<?xml version="1.0" encoding="utf-8"?>
<!-- Generator: Adobe Illustrator 18.1.1, SVG Export Plug-In . SVG Version: 6.00 Build 0)  -->
<svg version="1.1" id="Capa_1" xmlns="http://www.w3.org/2000/svg" xmlns:xlink="http://www.w3.org/1999/xlink" x="0px" y="0px"
	 viewBox="0 0 595.3 841.9" enable-background="new 0 0 595.3 841.9" xml:space="preserve">
<g>
	<path fill="#FFFFFF" d="M545.1,455.2c-21.1,2-158.3,16.7-179.1,17.6c-14.6,0.6-26.6-2.8-32.4-4.8c0.5-8.1-0.2-15.9-0.4-20.5
		c13-1.8,58.5-8,72.1-10.5c15.9-2.9,11.5-4.6,0-4.3c-10.3,0.3-62.1,6.9-73.4,8.4c-2.2-5.3-7.3-12-13.4-15.6
		c-4.8-2.8-11-4.5-15.5-5.4c-0.6-15.6-4-99.3-5.8-99.3c-1.7,0-5.2,83.7-5.8,99.3c-4.5,0.9-10.8,2.6-15.6,5.4
		c-6.1,3.6-11.2,10.3-13.4,15.6c-11.3-1.5-63.1-8.1-73.4-8.4c-11.5-0.3-15.9,1.4,0,4.3c13.6,2.5,59.1,8.7,72.1,10.5
		c-0.2,4.6-1,12.3-0.4,20.5c-5.9,2.1-17.9,5.4-32.4,4.8c-20.8-0.9-158-15.6-179.1-17.6c-21.1-2-41.2-1.1-23.4,4.5
		c11.9,3.7,56.8,11.6,91.5,17.3c-0.2,3.8,0.5,6.9,1.9,7.1c1.3,0.1,2.6-2.6,3.2-6.2c15.1,2.4,27.7,4.3,33.8,5.1
		c2.9,0.4,6.5,0.9,10.4,1.4c-0.3,3.9,0.5,7.2,1.9,7.3c1.3,0.1,2.7-2.8,3.2-6.6c1.8,0.3,3.6,0.5,5.5,0.8c-0.1,0.3-0.2,0.6-0.2,1
		c-1.3,8.8,8.3,17.4,21.3,19.2c13,1.9,24.6-3.7,25.8-12.5c0.1-0.5,0.1-1,0.1-1.5c4.9,0.5,9.4,1,13.4,1.2v4.9h9.3v15.5h-3.8V511
		c0-1.6-1.3-2.9-2.9-2.9c-1.6,0-2.9,1.3-2.9,2.9v8.6c0,1.6,1.3,2.9,2.9,2.9c1.6,0,2.9-1.3,2.9-2.9v-2.7h10.8v2.7
		c0,1.6,1.3,2.9,2.9,2.9c1.6,0,2.9-1.3,2.9-2.9V511c0-1.6-1.3-2.9-2.9-2.9c-1.6,0-2.9,1.3-2.9,2.9v2.7h-3.8v-15.5h9.3v-5.5
		c3.6-0.5,6.8-1.1,9.5-1.7c2.2,2.1,5,3.9,8.5,5.2c8.8,3.4,15.8,3.9,18.5,4v11.2h-2.7v-1.9c0-1.1-0.9-2-2-2c-1.1,0-2.1,0.9-2.1,2v6.1
		c0,1.1,0.9,2,2.1,2c1.1,0,2-0.9,2-2v-1.9h7.7v1.9c0,1.1,0.9,2,2.1,2c1.1,0,2.1-0.9,2.1-2v-6.1c0-1.1-0.9-2-2.1-2
		c-1.1,0-2.1,0.9-2.1,2v1.9h-2.7v-11.2c2.6-0.1,9.7-0.6,18.5-4c3.5-1.3,6.3-3.1,8.5-5.2c2.7,0.6,5.9,1.2,9.5,1.7v5.5h9.3v15.5h-3.8
		V511c0-1.6-1.3-2.9-2.9-2.9c-1.6,0-2.9,1.3-2.9,2.9v8.6c0,1.6,1.3,2.9,2.9,2.9c1.6,0,2.9-1.3,2.9-2.9v-2.7h10.8v2.7
		c0,1.6,1.3,2.9,2.9,2.9c1.6,0,2.9-1.3,2.9-2.9V511c0-1.6-1.3-2.9-2.9-2.9c-1.6,0-2.9,1.3-2.9,2.9v2.7h-3.8v-15.5h9.3v-4.9
		c4-0.3,8.5-0.7,13.4-1.2c0,0.5,0,1,0.1,1.5c1.3,8.8,12.8,14.4,25.8,12.5c13-1.9,22.6-10.5,21.3-19.2c0-0.3-0.1-0.6-0.2-1
		c1.9-0.3,3.7-0.5,5.5-0.8c0.5,3.8,1.9,6.7,3.2,6.6c1.4-0.1,2.2-3.4,1.9-7.3c4-0.6,7.5-1,10.4-1.4c6.1-0.8,18.7-2.7,33.8-5.1
		c0.6,3.6,1.9,6.4,3.2,6.2c1.3-0.1,2.1-3.2,1.9-7.1c34.6-5.6,79.6-13.5,91.5-17.3C586.3,454.1,566.1,453.2,545.1,455.2z"/>
	<g>
		<polygon fill="#C7C6C7" points="296.3,438.7 281.9,438.7 278.4,448.2 296.3,448.2 		"/>
		<polygon fill="#C7C6C7" points="280,438.7 271.6,438.7 263.1,451.6 276.7,448.2 		"/>
		<polygon fill="#C7C6C7" points="297.8,438.7 312.2,438.7 315.7,448.2 297.8,448.2 		"/>
		<polygon fill="#C7C6C7" points="314.1,438.7 322.6,438.7 331.1,451.6 317.4,448.2 		"/>
	</g>
	
		<ellipse transform="matrix(0.9905 0.1377 -0.1377 0.9905 69.4722 -23.0112)" fill="#C7C6C7" cx="201.1" cy="490.6" rx="16" ry="9.9"/>
	
		<ellipse transform="matrix(-0.9905 0.1377 -0.1377 -0.9905 851.2397 922.3575)" fill="#C7C6C7" cx="393.7" cy="490.6" rx="16" ry="9.9"/>
</g>
</svg>
