<?xml version="1.0" encoding="utf-8"?>
<!-- Generator: Adobe Illustrator 18.1.1, SVG Export Plug-In . SVG Version: 6.00 Build 0)  -->
<svg version="1.1" id="Layer_1" xmlns="http://www.w3.org/2000/svg" xmlns:xlink="http://www.w3.org/1999/xlink" x="0px" y="0px"
	 viewBox="-104.384 -98.315 449.158 423.045" enable-background="new -104.384 -98.315 449.158 423.045" xml:space="preserve">
<defs>
	
	<script  language="JavaScript" xlink:href="svg.js"></script>
</defs>
<script  type="text/JavaScript">
	<![CDATA[
function notify( ref, type ) {
    var event = document.createEvent("CustomEvent");
    event.initEvent(type,true,true);
    ref.dispatchEvent(event);
}

		
		
		
		
		
		
		
		
		
		
		
		]]>
</script>
<g>
	<g>
		<g>
			<path fill="#EA8E10" d="M212.525-68.708c-25.696-3.87-58.955-6.206-95.318-6.206c-33.564,0-64.472,1.988-89.239,5.337v46.794
				h-69.044v179.774h322.639V-21.914h-69.038V-68.708L212.525-68.708z"/>
		</g>
		<path fill="#231F20" d="M212.525-8.475v-60.042c35.308,6.127,58.172,15.775,58.172,26.666c5.993,0,10.866,5.011,10.866,11.199
			v22.176H212.525z"/>
		<path fill="#231F20" d="M27.964-9.436V-69.48c-35.308,6.128-58.172,15.777-58.172,26.668c-5.993,0-10.872,5.007-10.872,11.197
			v22.176L27.964-9.436L27.964-9.436z"/>
	</g>
	<path fill="#F5A909" d="M299.53,155.421c-8.157-8.153-24.665-8.709-36.957-15.648c-49.328-27.884-83.512-36.733-141.228-36.733
		c-0.364,0-0.735,0.004-1.097,0.008c-0.362-0.002-0.743-0.008-1.099-0.008c-57.716,0-91.897,8.849-141.226,36.733
		c-12.291,6.943-28.806,7.501-36.959,15.648c-23.251,23.253-8.479,73.314-8.479,73.314c0,1.342,1.071,2.409,2.396,2.409H120.24
		h185.366c1.327,0,2.402-1.067,2.402-2.409C308.009,228.735,322.785,178.674,299.53,155.421z"/>
	<path fill="#F5A909" d="M164.853-73.487c0-5.523-17.956-18.004-44.858-18.004c-26.874,0-44.358,12.481-44.358,18.004"/>
	<path fill="#231F20" d="M305.163,231.144h-35.721H192.53H46.344h-75.759h-35.251c-1.406,0-2.53,1.602-2.53,3.593l6.796,16.4
		c0,2.081,1.086,3.797,2.417,3.797h25.875v50.442c0,1.648,1.206,2.99,2.692,2.99h75.759c1.482,0,2.688-1.34,2.688-2.99v-31.527
		h140.791v31.527c0,1.648,1.195,2.99,2.711,2.99h76.912c1.504,0,2.699-1.34,2.699-2.99v-50.442h26.309
		c1.35,0,2.443-1.715,2.443-3.797l6.79-16.4C307.681,232.746,306.539,231.144,305.163,231.144z"/>
	<path fill="#12100B" stroke="#4D4947" stroke-width="11.5821" d="M202.21,199.175c0,7.531-6.104,13.635-13.635,13.635H51.916
		c-7.533,0-13.637-6.104-13.637-13.635v-51.269c0-7.542,6.104-13.646,13.637-13.646h136.659c7.531,0,13.635,6.104,13.635,13.646
		V199.175L202.21,199.175z"/>
	<path fill="#D0D0D0" stroke="#231F20" stroke-width="7.7214" d="M300.064,184.378c0,16.265-13.16,29.453-29.449,29.453
		c-16.235,0-29.434-13.184-29.434-29.453c0-16.261,13.2-29.447,29.434-29.447C286.904,154.933,300.064,168.117,300.064,184.378z"/>
	<path fill="#FFFFFF" stroke="#231F20" stroke-width="3.8607" d="M288.849,184.378c0,10.07-8.149,18.229-18.227,18.229
		c-10.052,0-18.222-8.162-18.222-18.229c0-10.065,8.17-18.225,18.222-18.225C280.7,166.153,288.849,174.314,288.849,184.378z"/>
	<path fill="#D0D0D0" stroke="#231F20" stroke-width="7.7214" d="M-0.692,184.378c0,16.265-13.16,29.453-29.455,29.453
		c-16.233,0-29.434-13.184-29.434-29.453c0-16.261,13.201-29.447,29.434-29.447C-13.855,154.933-0.692,168.117-0.692,184.378z"/>
	<path fill="#FFFFFF" stroke="#231F20" stroke-width="3.8607" d="M-11.914,184.378c0,10.07-8.147,18.229-18.229,18.229
		c-10.052,0-18.218-8.162-18.218-18.229c0-10.065,8.166-18.225,18.218-18.225C-20.057,166.153-11.914,174.314-11.914,184.378z"/>
	<line fill="none" stroke="#4D4947" stroke-width="9.6517" x1="42.274" y1="166.455" x2="198.217" y2="166.455"/>
	<line fill="none" stroke="#4D4947" stroke-width="9.6517" x1="42.274" y1="150.279" x2="198.217" y2="150.279"/>
	<line fill="none" stroke="#4D4947" stroke-width="9.6517" x1="42.274" y1="182.633" x2="198.217" y2="182.633"/>
	<line fill="none" stroke="#4D4947" stroke-width="9.6517" x1="42.274" y1="198.811" x2="198.217" y2="198.811"/>
	<g>
		<path fill="#FFFFFF" d="M111.165,76.308c0,1.328-1.071,2.411-2.402,2.411h-136.5c-1.327,0-2.405-1.085-2.405-2.411V9.854
			c0-1.328,1.082-2.413,2.405-2.413h136.5c1.331,0,2.402,1.085,2.402,2.413V76.308z"/>
		<path fill="#FFFFFF" d="M270.618,76.308c0,1.328-1.073,2.411-2.398,2.411H131.743c-1.336,0-2.439-1.085-2.439-2.411V9.854
			c0-1.328,1.095-2.413,2.439-2.413h136.478c1.329,0,2.398,1.085,2.398,2.413V76.308z"/>
	</g>
	<g>
		<path fill="#231F20" d="M-57.296,66.203c0,1.317-1.06,2.399-2.387,2.399h-32.452c-1.32,0-2.409-1.084-2.409-2.399V19.795
			c0-1.33,1.089-2.4,2.409-2.4h32.452c1.329,0,2.387,1.07,2.387,2.4V66.203z"/>
		<path fill="none" stroke="#13110C" stroke-width="11.5821" d="M-75.917,68.602c0,11.125,15.431,20.108,34.526,20.108"/>
	</g>
	<g>
		<path fill="#231F20" d="M297.687,66.203c0,1.317,1.091,2.399,2.396,2.399h32.452c1.306,0,2.398-1.084,2.398-2.399V19.795
			c0-1.33-1.091-2.4-2.398-2.4h-32.452c-1.305,0-2.396,1.07-2.396,2.4V66.203z"/>
		<path fill="none" stroke="#13110C" stroke-width="11.5821" d="M316.317,68.602c0,11.125-15.431,20.108-34.52,20.108"/>
	</g>
	<path fill="#E30613" stroke="#DD1215" stroke-width="0.4515" d="M222.995-33.936c0,11.323,9.141,20.477,20.453,20.477
		c11.299,0,20.467-9.154,20.467-20.477c0-11.272-9.165-20.454-20.467-20.454C232.138-54.39,222.995-45.208,222.995-33.936z"/>
	<path fill="#E30613" stroke="#DD1215" stroke-width="0.4515" d="M-25.807-33.936c0,11.323,9.158,20.477,20.431,20.477
		c11.318,0,20.487-9.154,20.487-20.477c0-11.272-9.169-20.454-20.487-20.454C-16.649-54.39-25.807-45.208-25.807-33.936z"/>
</g>
<g>
	<path d="M32.036-54.302c1.84-0.334,4.749-0.584,7.701-0.584c4.213,0,6.924,0.625,8.962,2.046c1.695,1.085,2.707,2.754,2.707,4.966
		c0,2.714-2.081,5.093-5.516,6.177v0.083c3.095,0.667,6.726,2.88,6.726,7.053c0,2.42-1.11,4.258-2.76,5.634
		c-2.275,1.796-5.955,2.63-11.282,2.63c-2.905,0-5.133-0.166-6.541-0.335L32.036-54.302L32.036-54.302z M36.249-42.783h3.821
		c4.46,0,7.071-2.004,7.071-4.716c0-3.297-2.905-4.591-7.167-4.591c-1.936,0-3.05,0.125-3.729,0.252L36.249-42.783L36.249-42.783z
		 M36.249-29.301c0.824,0.125,2.034,0.168,3.535,0.168c4.358,0,8.377-1.378,8.377-5.469c0-3.839-3.825-5.426-8.424-5.426h-3.488
		V-29.301L36.249-29.301z"/>
	<path d="M62.497-54.678v16.653c0,6.303,3.246,8.972,7.603,8.972c4.843,0,7.938-2.754,7.938-8.972v-16.653h4.26v16.404
		c0,8.64-5.274,12.186-12.346,12.186c-6.683,0-11.718-3.297-11.718-12.02v-16.57H62.497z"/>
	<path d="M89.036-30.971c1.891,1.002,4.649,1.838,7.554,1.838c4.309,0,6.828-1.963,6.828-4.8c0-2.63-1.744-4.133-6.153-5.592
		c-5.327-1.628-8.619-4.008-8.619-7.972c0-4.385,4.215-7.638,10.557-7.638c3.34,0,5.761,0.667,7.214,1.378l-1.163,2.963
		c-1.067-0.502-3.248-1.337-6.198-1.337c-4.458,0-6.153,2.295-6.153,4.216c0,2.629,1.985,3.923,6.488,5.426
		c5.518,1.836,8.325,4.131,8.325,8.264c0,4.341-3.729,8.097-11.427,8.097c-3.148,0-6.585-0.794-8.325-1.795L89.036-30.971z"/>
	<path d="M123.465-39.192v2.713h-11.957v-2.713H123.465z"/>
	<path d="M128.6-54.302c1.84-0.334,4.747-0.584,7.701-0.584c4.211,0,6.924,0.625,8.958,2.046c1.695,1.085,2.711,2.754,2.711,4.966
		c0,2.714-2.081,5.093-5.518,6.177v0.083c3.097,0.667,6.728,2.88,6.728,7.053c0,2.42-1.112,4.258-2.76,5.634
		c-2.277,1.796-5.957,2.63-11.284,2.63c-2.907,0-5.133-0.166-6.539-0.335L128.6-54.302L128.6-54.302z M132.815-42.783h3.823
		c4.458,0,7.071-2.004,7.071-4.716c0-3.297-2.907-4.591-7.167-4.591c-1.938,0-3.05,0.125-3.731,0.252L132.815-42.783L132.815-42.783
		z M132.815-29.301c0.826,0.125,2.036,0.168,3.535,0.168c4.358,0,8.377-1.378,8.377-5.469c0-3.839-3.823-5.426-8.423-5.426h-3.489
		V-29.301L132.815-29.301z"/>
	<path d="M177.656-27.465c-1.549,0.667-4.649,1.336-8.619,1.336c-9.203,0-16.127-5.01-16.127-14.233
		c0-8.806,6.924-14.774,17.043-14.774c4.068,0,6.637,0.75,7.75,1.253l-1.016,2.963c-1.597-0.667-3.874-1.168-6.585-1.168
		c-7.652,0-12.736,4.216-12.736,11.604c0,6.885,4.6,11.31,12.541,11.31c2.566,0,5.182-0.459,6.875-1.168L177.656-27.465z"/>
	<path d="M182.938-26.547v-28.13h4.602l10.459,14.232c2.42,3.297,4.307,6.262,5.859,9.14l0.098-0.041
		c-0.388-3.756-0.485-7.178-0.485-11.56v-11.771h3.972v28.13h-4.26L192.82-40.821c-2.279-3.131-4.458-6.345-6.1-9.392l-0.145,0.041
		c0.241,3.548,0.339,6.928,0.339,11.604v12.02L182.938-26.547L182.938-26.547z"/>
</g>
<g>
	<defs>
		<path id="SVGID_1_" d="M267.771,76.338c0,1.328-1.073,2.411-2.398,2.411H128.895c-1.336,0-2.439-1.085-2.439-2.411V9.884
			c0-1.328,1.095-2.413,2.439-2.413h136.478c1.329,0,2.398,1.085,2.398,2.413V76.338z"/>
	</defs>
	<clipPath id="SVGID_2_">
		<use xlink:href="#SVGID_1_"  overflow="visible"/>
	</clipPath>
	<g clip-path="url(#SVGID_2_)">
		<g>
			<path fill="#778D93" d="M215.562,88.699c-8.864,0-17.727,0-26.591,0c1.521-11.17,5.657-21.314,12.023-30.763
				c0.014,0.291,0.034,0.413,0.023,0.533c-0.367,4.032-0.767,8.061-1.084,12.097c-0.087,1.104,0.053,2.229,0.142,3.34
				c0.02,0.254,0.259,0.491,0.397,0.735c0.256-0.159,0.592-0.26,0.755-0.487c2.261-3.148,4.129-6.504,5.329-10.208
				c0.965-2.979,1.926-5.959,2.917-8.93c0.199-0.598,0.523-1.154,0.816-1.785c7.545,11.171,17.251,19.283,30.437,22.969
				c-0.311,0.217-0.535,0.36-0.746,0.521c-1.841,1.407-3.698,2.819-4.471,5.134c-0.346,1.036-0.743,1.926-1.914,2.238
				c-0.297,0.079-0.546,0.339-0.817,0.514c-0.538,0.348-0.737,0.898-0.482,1.422c0.202,0.417,0.651,0.735,1.042,1.028
				c0.164,0.122,0.462,0.064,0.693,0.088c-0.035,0.574-0.064,1.064-0.094,1.554c-4.033,0-8.067,0-12.1,0
				c-0.159-0.188-0.304-0.389-0.478-0.562c-2.866-2.848-5.482-5.903-7.496-9.419c-1.234-2.155-2.335-4.387-3.515-6.573
				c-0.094-0.174-0.342-0.264-0.519-0.393c0.002,0.217-0.075,0.477,0.017,0.643c1.643,2.98,3.262,5.974,4.99,8.905
				c0.557,0.945,1.126,1.778,0.74,2.934c-0.097,0.291-0.016,0.641-0.016,0.965C215.56,86.366,215.561,87.533,215.562,88.699z"/>
			<path fill="#778D93" d="M182.846,88.699c-4.78,0-9.561,0-14.341,0c-1.019-2.501-1.147-5.132-1.015-7.772
				c0.089-1.777,0.174-3.597,0.624-5.302c0.496-1.879,1.353-3.673,2.155-5.458c0.747-1.665,0.809-1.657,2.62-1.363
				c3.762,0.611,7.5,0.327,11.179-0.486c4.515-0.998,8.638-2.967,12.476-5.535c0.304-0.204,0.621-0.389,0.843-0.528
				c-1.226,2.542-2.472,5.079-3.677,7.635c-2.078,4.409-3.365,9.083-4.566,13.785c-0.064,0.25-0.174,0.539-0.358,0.7
				c-0.73,0.636-1.471,1.264-2.258,1.827C185.323,87.064,184.076,87.87,182.846,88.699z"/>
			<path d="M182.846,88.699c1.23-0.829,2.477-1.635,3.683-2.497c0.786-0.562,1.528-1.191,2.258-1.827
				c0.184-0.161,0.294-0.449,0.358-0.7c1.201-4.702,2.488-9.376,4.566-13.785c1.205-2.556,2.451-5.093,3.677-7.635
				c-0.222,0.139-0.539,0.324-0.843,0.528c-3.838,2.569-7.961,4.537-12.476,5.535c-3.679,0.813-7.417,1.096-11.179,0.486
				c-1.811-0.294-1.873-0.302-2.62,1.363c-0.801,1.785-1.658,3.579-2.155,5.458c-0.45,1.705-0.535,3.525-0.624,5.302
				c-0.133,2.64-0.004,5.271,1.015,7.772c-0.199,0-0.398,0-0.597,0c-1.078-2.771-1.047-5.68-0.972-8.621
				c-1.345-0.218-2.477,0.12-3.386,0.946c-1.064,0.968-1.998,2.077-3.021,3.092c-0.418,0.415-0.879,0.823-1.394,1.095
				c-0.717,0.378-1.414-0.045-1.528-0.849c-0.112-0.791,0.172-1.452,0.691-2.046c0.949-1.085,1.897-2.172,2.811-3.287
				c1.664-2.032,2.188-4.409,1.15-6.767c-0.973-2.21-2.405-4.225-3.706-6.281c-1.059-1.674-2.224-3.281-3.342-4.918
				c0-0.149,0-0.299,0-0.448c0.753-1.132,1.304-1.299,2.347-0.437c0.909,0.751,1.667,1.686,2.486,2.545
				c0.204,0.214,0.384,0.449,0.576,0.675c0.055-0.034,0.11-0.068,0.166-0.101c-0.283-0.458-0.528-0.946-0.858-1.368
				c-0.675-0.861-1.395-1.686-2.097-2.526c-0.032-0.038-0.068-0.073-0.1-0.111c-0.574-0.695-0.69-1.507-0.282-1.975
				c0.418-0.48,1.195-0.44,1.988,0.03c1.433,0.851,2.437,2.1,3.326,3.466c0.254,0.39,0.506,0.782,0.759,1.173
				c0.084-0.041,0.167-0.082,0.25-0.124c-0.368-0.711-0.71-1.438-1.113-2.128c-0.262-0.448-0.689-0.808-0.899-1.272
				c-0.151-0.333-0.234-0.934-0.048-1.125c0.269-0.277,0.956-0.53,1.204-0.375c0.781,0.487,1.561,1.074,2.125,1.793
				c2.046,2.603,3.308,5.592,4.042,8.812c0.158,0.694,0.368,1.377,0.553,2.064c0.072,0.012,0.144,0.025,0.216,0.037
				c0.211-0.393,0.426-0.784,0.633-1.178c0.223-0.425,0.512-0.575,1.028-0.476c2.948,0.568,5.912,0.655,8.907,0.352
				c6.648-0.672,12.347-3.616,17.756-7.282c0.274-0.186,0.473-0.501,0.662-0.786c0.756-1.138,1.503-2.282,2.23-3.438
				c0.152-0.243,0.243-0.541,0.297-0.826c0.408-2.149,0.776-4.306,1.211-6.45c0.125-0.617-0.078-0.936-0.593-1.185
				c-0.939-0.455-1.376-1.61-1.138-2.946c0.162-0.908,0.712-1.324,1.9-1.436c0.793-0.075,1.005-0.275,0.88-1.036
				c-0.174-1.056-0.369-2.135-1.277-2.858c-0.283-0.225-0.655-0.346-0.996-0.492c-0.873-0.372-1.652-0.202-2.546,0.147
				c-0.897,0.35-1.858,0.032-2.462-0.898c-0.101-0.155-0.354-0.287-0.543-0.296c-0.762-0.036-1.527-0.018-2.291-0.025
				c-0.171-0.002-0.356,0.015-0.51-0.042c-0.731-0.272-1.462-0.546-2.176-0.857c-1.195-0.52-1.611-1.364-1.092-2.593
				c0.391-0.925,0.994-1.765,1.555-2.609c0.272-0.409,0.682-0.724,0.993-1.112c0.509-0.634,0.462-1.307,0.019-1.987
				c-0.319-0.49-0.569-1.039-0.767-1.591c-0.093-0.257-0.109-0.695,0.045-0.86c0.602-0.646,0.24-1.156-0.045-1.776
				c-1.265-2.752-0.201-6.02,2.456-7.439c0.617-0.33,0.86-0.825,1.181-1.348c2.236-3.646,5.377-6.14,9.483-7.393
				c0.306-0.093,0.604-0.213,0.905-0.32c3.411-0.822,5.182-0.709,8.366,0c0.339,0.14,0.673,0.293,1.018,0.417
				c3.697,1.331,6.491,3.811,8.76,6.935c0.551,0.759,0.959,1.622,1.465,2.417c0.111,0.175,0.35,0.361,0.542,0.375
				c1.83,0.135,3.118,1.145,4.047,2.608c3.273,5.156,1.323,11.523-2.364,14.804c-1.533,1.364-3.362,2.315-5.539,2.288
				c-0.27-0.003-0.629,0.09-0.801,0.274c-2.312,2.47-4.657,4.912-6.868,7.47c-1.45,1.677-2.56,3.605-3.329,5.713
				c-0.163,0.447-0.143,0.766,0.109,1.169c3.608,5.772,8.228,10.569,13.698,14.613c2.554,1.889,5.171,3.679,8.037,4.988
				c2.566,1.172,5.326,1.92,8.001,2.853c0.187,0.065,0.415,0.07,0.563,0.183c0.843,0.643,1.447,0.428,2.199-0.29
				c2.071-1.978,4.448-3.512,7.213-4.374c0,0.199,0,0.398,0,0.598c-1.463,0.728-3.029,1.303-4.365,2.215
				c-2.597,1.772-4.812,3.992-6.662,6.548c-0.908,1.254-2.059,2.215-3.388,2.974c-0.969,0.553-1.981,1.034-2.929,1.619
				c-0.244,0.151-0.52,0.728-0.431,0.846c0.215,0.287,0.636,0.574,0.976,0.576c0.471,0.003,0.988-0.177,1.409-0.414
				c1.554-0.875,3.065-1.825,4.616-2.705c0.546-0.31,1.155-0.693,1.742-0.704c1.268-0.025,2.152-0.656,2.977-1.468
				c0.335-0.33,0.594-0.737,0.928-1.067c0.146-0.145,0.396-0.184,0.599-0.272c-0.026,0.215,0.021,0.482-0.09,0.635
				c-0.39,0.534-0.834,1.028-1.32,1.611c1.498,0.054,2.569-0.533,3.37-1.643c0.648-0.897,1.445-1.549,2.568-1.731
				c0,0.199,0,0.398,0,0.597c-0.609,0.38-1.261,0.707-1.816,1.155c-0.649,0.523-1.219,1.145-1.81,1.738
				c-0.148,0.149-0.295,0.335-0.352,0.531c-0.577,1.993-1.136,3.991-1.699,5.988c-0.199,0-0.398,0-0.597,0
				c0.668-1.966,1.483-3.891,1.711-6.135c-1.18,0.201-2.263,0.388-3.347,0.568c-0.343,0.057-0.699,0.058-1.03,0.152
				c-0.487,0.138-0.995,0.269-1.427,0.52c-1.438,0.835-2.787,1.844-4.283,2.548c-1.104,0.519-1.571,1.195-1.483,2.348
				c-0.199,0-0.398,0-0.597,0c0.03-0.49,0.059-0.979,0.094-1.554c-0.231-0.024-0.53,0.034-0.693-0.088
				c-0.391-0.293-0.84-0.611-1.042-1.028c-0.255-0.524-0.057-1.074,0.482-1.422c0.272-0.175,0.52-0.435,0.817-0.514
				c1.171-0.313,1.568-1.202,1.914-2.238c0.773-2.315,2.631-3.727,4.471-5.134c0.211-0.161,0.435-0.304,0.746-0.521
				c-13.186-3.686-22.892-11.798-30.437-22.969c-0.293,0.631-0.617,1.187-0.816,1.785c-0.991,2.97-1.952,5.951-2.917,8.93
				c-1.2,3.704-3.068,7.061-5.329,10.208c-0.163,0.226-0.499,0.327-0.755,0.487c-0.138-0.244-0.376-0.481-0.397-0.735
				c-0.089-1.111-0.229-2.236-0.142-3.34c0.317-4.036,0.718-8.065,1.084-12.097c0.011-0.12-0.009-0.242-0.023-0.533
				c-6.366,9.449-10.502,19.593-12.023,30.763c-0.199,0-0.398,0-0.597,0c0.201-1.168,0.402-2.336,0.606-3.526
				c-1.805,1.216-3.521,2.371-5.237,3.526C183.444,88.699,183.145,88.699,182.846,88.699z M200.639,73.769
				c0.215-0.197,0.281-0.238,0.322-0.297c2.267-3.207,4.048-6.662,5.235-10.411c0.555-1.752,0.975-3.552,1.61-5.273
				c0.773-2.093,1.768-4.104,2.56-6.19c1.079-2.84,2.841-5.22,4.776-7.505c2.324-2.745,5.369-4.89,6.896-8.301
				c0.218-0.487,0.734-0.952,0.337-1.489c-0.485-0.656-0.105-0.66,0.394-0.742c0.705-0.116,1.457-0.164,2.09-0.456
				c1.432-0.661,1.879-1.855,1.645-3.922c-0.103-0.912-0.596-1.403-1.357-1.351c-1.17,0.08-1.825,0.673-1.8,1.722
				c0.187-0.198,0.311-0.447,0.481-0.485c0.325-0.072,0.676-0.023,1.017-0.024c-0.039,0.187-0.079,0.374-0.118,0.561
				c-0.691-0.164-0.612,0.323-0.659,0.746c-0.047,0.416-0.293,0.541-0.589,0.206c-0.46-0.521-0.661-0.196-0.847,0.218
				c-0.183,0.408-0.394,0.811-0.511,1.239c-0.561,2.046-0.91,2.14-3.526,1.622c-0.049-0.01-0.098-0.018-0.145-0.033
				c-0.791-0.259-1.055-0.777-0.762-1.554c0.701-1.86,1.439-3.706,2.115-5.575c0.551-1.525,1.534-2.587,2.948-3.402
				c1.876-1.08,2.724-3.125,1.497-5.22c-1.247-2.128-2.858-3.919-4.729-5.512c-3.613-3.076-7.811-4.024-12.406-3.381
				c-2.754,0.385-5.236,1.545-7.496,3.149c-1.715,1.217-2.832,2.972-4.029,4.648c-0.013,0.019,0.035,0.081,0.056,0.123
				c0.022,0.011,0.046,0.033,0.067,0.031c0.123-0.016,0.246-0.031,0.367-0.058c2.367-0.534,4.376-0.032,6.096,1.8
				c1.541,1.641,1.308,5.379-0.579,6.456c-1.358,0.775-2.608,1.739-3.956,2.534c-1.035,0.61-1.896,1.373-2.491,2.397
				c-0.599,1.03-1.269,2.059-1.623,3.179c-0.413,1.308-0.565,2.708-0.734,4.08c-0.079,0.636,0.421,0.886,0.989,0.573
				c0.19-0.105,0.33-0.297,0.505-0.434c1.194-0.931,2.324-1.969,3.604-2.761c1.97-1.218,4.075-2.168,6.422-2.478
				c0.564-0.075,1.232-0.263,1.378-0.958c0.141-0.669-0.38-0.96-0.891-1.208c-0.067-0.032-0.163-0.052-0.191-0.106
				c-0.052-0.1-0.11-0.239-0.077-0.329c0.034-0.092,0.229-0.224,0.26-0.202c0.473,0.324,1.005,0.606,1.371,1.029
				c0.417,0.482,0.395,1.155-0.124,1.536c-0.582,0.428-1.268,0.842-1.963,0.967c-3.338,0.604-6.128,2.243-8.701,4.35
				c-0.186,0.152-0.452,0.205-0.681,0.304c0.089,0.108,0.178,0.215,0.268,0.323c0.241,0.015,0.482,0.046,0.722,0.044
				c3.913-0.021,7.775-0.526,11.621-1.206c1.813-0.321,3.641-0.607,5.442,0.116c2.236,0.899,2.808,3.133,1.167,4.857
				c-2.575,2.707-5.65,4.523-9.426,4.969c-0.228,0.027-0.476-0.125-0.715-0.194c0.139-0.186,0.262-0.388,0.42-0.556
				c0.468-0.497,1.191-0.904,1.374-1.485c0.336-1.065,0.441-2.227,0.481-3.355c0.028-0.8-0.815-1.438-1.632-1.511
				c-0.312-0.028-0.656-0.109-0.911-0.278c-0.399-0.264-0.661-0.242-0.917,0.239c0.974,0.79,1.345,1.911,1.577,3.103
				c0.252,1.3-0.187,1.846-1.5,1.993c-0.382,0.043-0.863,0.225-1.079,0.51c-0.549,0.723-0.086,2.327,0.713,2.779
				c0.881,0.497,0.996,0.933,0.814,1.912c-0.509,2.734-1.018,5.471-1.403,8.225c-0.358,2.559-0.593,5.137-0.811,7.713
				c-0.191,2.254-0.291,4.515-0.408,6.775C200.47,72.906,200.573,73.265,200.639,73.769z M162.489,65.843
				c-0.118,0.187-0.233,0.408-0.397,0.582c-0.024,0.025-0.334-0.142-0.432-0.277c-1.03-1.422-2.001-2.89-3.081-4.272
				c-0.461-0.59-1.121-1.036-1.734-1.488c-0.164-0.121-0.597-0.124-0.718,0.001c-0.165,0.171-0.254,0.544-0.189,0.78
				c0.101,0.372,0.313,0.735,0.553,1.045c2.117,2.733,4.051,5.579,5.724,8.614c1.557,2.823,1.459,5.516-0.359,8.111
				c-0.895,1.278-2.007,2.401-2.979,3.628c-0.311,0.392-0.537,0.874-0.701,1.35c-0.069,0.2,0.057,0.627,0.215,0.705
				c0.213,0.105,0.552,0.004,0.818-0.073c0.151-0.044,0.275-0.208,0.395-0.332c0.827-0.86,1.683-1.695,2.466-2.593
				c1.166-1.336,2.534-2.22,4.368-2.19c0.519,0.009,0.547-0.328,0.539-0.695c-0.05-2.427,0.758-4.639,1.736-6.798
				c0.425-0.939,0.911-1.823,0.169-2.815c-0.069-0.092-0.067-0.237-0.095-0.358c-0.8-3.549-1.995-6.927-4.306-9.809
				c-0.37-0.462-0.78-0.917-1.254-1.263c-0.243-0.177-0.669-0.104-1.012-0.144c0.054,0.301,0.106,0.602,0.167,0.901
				c0.008,0.042,0.061,0.076,0.096,0.112c1.34,1.418,1.88,3.174,2.105,5.053c0.023,0.19-0.135,0.402-0.209,0.604
				c-0.183-0.125-0.379-0.236-0.543-0.381c-0.087-0.077-0.115-0.217-0.175-0.326c-1.139-2.036-2.183-4.146-4.248-5.463
				c-0.445-0.284-0.95-0.866-1.427-0.364c-0.536,0.566,0.055,1.096,0.446,1.525c1.5,1.644,2.824,3.402,3.681,5.475
				C162.251,65.03,162.342,65.391,162.489,65.843z M191.552,22.706c0,0.224-0.004,0.448,0.002,0.672
				c0.003,0.099,0.023,0.198,0.042,0.295c0.431,2.163,1.791,3.604,3.639,4.656c0.118,0.067,0.351,0.064,0.463-0.01
				c1.81-1.183,3.624-2.359,5.405-3.586c1.364-0.94,1.88-2.635,1.394-4.303c-0.537-1.844-2.403-3.154-4.656-3.154
				C194.478,17.276,191.504,18.919,191.552,22.706z M226.513,22.129c-0.049-0.016-0.097-0.031-0.146-0.047
				c-0.074-0.765-0.131-1.532-0.236-2.293c-0.021-0.15-0.23-0.274-0.353-0.41c-0.106,0.136-0.298,0.268-0.304,0.408
				c-0.092,1.919-1.217,3.092-2.748,4.056c-0.673,0.424-1.436,0.967-1.751,1.646c-1.014,2.181-1.844,4.449-2.732,6.688
				c-0.188,0.474,0.006,0.763,0.513,0.845c0.441,0.071,0.883,0.143,1.32,0.233c0.571,0.118,0.921-0.049,1.147-0.635
				c0.608-1.575,1.272-3.128,1.915-4.689c0.152-0.371,0.254-0.642,0.837-0.566c0.673,0.087,1.405-0.094,1.598-0.976
				C225.883,24.968,226.199,23.549,226.513,22.129z M226.719,19.572c0.364,2.627,0.25,5.053-0.727,7.386
				c-0.045,0.108-0.013,0.299,0.058,0.398c0.465,0.65,0.951,1.284,1.523,2.049c0.625-1.21,1.182-2.543,1.961-3.73
				c0.973-1.483,0.59-2.763-0.269-4.052C228.666,20.726,227.924,19.985,226.719,19.572z M230.646,24.832
				c-0.753,1.427-1.427,2.716-2.111,4c-0.544,1.023-1.039,2.078-1.67,3.045c-0.421,0.646-1.036,1.167-1.577,1.732
				c-0.124,0.129-0.304,0.205-0.647,0.429c0.497,0.123,0.799,0.276,1.088,0.254c0.838-0.063,1.676-0.172,2.504-0.319
				c0.236-0.042,0.515-0.228,0.643-0.431c0.897-1.413,1.614-2.916,1.817-4.595C230.853,27.629,231.024,26.294,230.646,24.832z
				 M192.212,26.796c-0.051,0.254-0.196,0.529-0.13,0.736c0.163,0.51,0.339,1.055,0.662,1.466c0.569,0.723,0.617,1.475,0.258,2.23
				c-0.228,0.48-0.67,0.854-0.994,1.293c-0.529,0.716-1.171,1.386-1.53,2.181c-0.738,1.635-0.394,2.372,1.629,2.669
				c-0.16-3.201,1.278-5.845,2.958-8.388C194.144,28.277,193.245,27.588,192.212,26.796z M212.127,37.506
				c0.004-0.076,0.007-0.152,0.011-0.227c-0.252-0.077-0.502-0.215-0.756-0.22c-0.844-0.015-1.698-0.053-2.533,0.045
				c-3.851,0.452-7.698,0.945-11.545,1.428c-0.152,0.019-0.299,0.081-0.48,0.132c0.722,0.833,1.727,0.988,2.56,0.361
				c0.441-0.331,0.774-0.397,1.268-0.105c0.631,0.373,1.308,0.321,1.857-0.205c0.384-0.368,0.695-0.376,1.093-0.031
				c0.507,0.44,1.117,0.499,1.651,0.11c0.473-0.346,0.936-0.408,1.47-0.287c0.6,0.137,1.135,0.032,1.577-0.426
				c0.357-0.371,0.745-0.412,1.217-0.187C210.48,38.353,211.33,38.042,212.127,37.506z M221.573,37.736
				c1.747,0.481,5.349-1.257,6.459-3.038c-0.236,0.03-0.417,0.073-0.598,0.072c-1.123-0.008-2.327,0.512-3.278-0.594
				c-0.27-0.314-0.91,0.069-1.051,0.492c-0.192,0.576-0.447,1.135-0.719,1.68C222.153,36.814,221.861,37.249,221.573,37.736z
				 M241.84,76.734c-0.838-0.368-4.184,2.237-4.714,3.679c0.253,0.093,0.529,0.149,0.755,0.286c0.403,0.244,0.657,0.136,0.933-0.214
				C239.797,79.239,240.805,78.013,241.84,76.734z M235.825,82.745c0.057,0.04,0.113,0.08,0.17,0.119
				c0.607-0.457,1.214-0.914,1.917-1.443c-0.545-0.245-0.923-0.415-1.333-0.599C236.322,81.479,236.073,82.112,235.825,82.745z"/>
			<path fill="#FDD502" d="M250.667,78.691c-1.123,0.181-1.92,0.834-2.568,1.731c-0.801,1.11-1.873,1.696-3.37,1.643
				c0.485-0.583,0.93-1.077,1.32-1.611c0.111-0.152,0.064-0.42,0.09-0.635c-0.203,0.087-0.452,0.127-0.599,0.272
				c-0.335,0.33-0.593,0.738-0.928,1.067c-0.825,0.812-1.709,1.443-2.977,1.468c-0.587,0.011-1.197,0.395-1.742,0.704
				c-1.551,0.88-3.062,1.83-4.616,2.705c-0.421,0.237-0.938,0.417-1.409,0.414c-0.34-0.002-0.76-0.289-0.976-0.576
				c-0.089-0.119,0.187-0.695,0.431-0.846c0.948-0.586,1.96-1.066,2.929-1.619c1.328-0.759,2.48-1.72,3.388-2.974
				c1.85-2.556,4.066-4.776,6.662-6.548c1.337-0.912,2.903-1.488,4.365-2.215c0,0.747,0,1.494,0,2.241
				c-0.695,0.42-1.404,0.819-2.072,1.279c-0.141,0.097-0.128,0.416-0.187,0.633c0.208-0.057,0.437-0.076,0.62-0.178
				c0.556-0.312,1.094-0.655,1.639-0.986C250.667,76.002,250.667,77.346,250.667,78.691z"/>
			<path fill="#778D93" d="M234.533,88.699c-0.088-1.152,0.379-1.828,1.483-2.348c1.495-0.704,2.845-1.713,4.283-2.548
				c0.432-0.251,0.94-0.382,1.427-0.52c0.331-0.094,0.688-0.095,1.03-0.152c1.084-0.18,2.167-0.367,3.347-0.568
				c-0.228,2.244-1.043,4.17-1.711,6.135C241.106,88.699,237.82,88.699,234.533,88.699z"/>
			<path d="M215.562,88.699c-0.001-1.167-0.002-2.333-0.003-3.5c0-0.323-0.081-0.674,0.016-0.965
				c0.385-1.156-0.183-1.988-0.74-2.934c-1.727-2.93-3.347-5.925-4.99-8.905c-0.092-0.167-0.015-0.427-0.017-0.643
				c0.177,0.129,0.425,0.219,0.519,0.393c1.18,2.187,2.281,4.418,3.515,6.573c2.014,3.516,4.63,6.571,7.496,9.419
				c0.174,0.173,0.319,0.374,0.478,0.562c-0.249,0-0.498,0-0.747,0c-1.54-1.72-3.08-3.44-4.623-5.157
				c-0.023-0.026-0.091-0.011-0.307-0.03c0,1.738,0,3.462,0,5.187C215.96,88.699,215.761,88.699,215.562,88.699z"/>
			<path d="M250.667,74.657c-0.545,0.331-1.083,0.675-1.639,0.986c-0.183,0.102-0.412,0.121-0.62,0.178
				c0.058-0.217,0.046-0.536,0.187-0.633c0.668-0.46,1.377-0.859,2.072-1.279C250.667,74.159,250.667,74.408,250.667,74.657z"/>
			<path fill="#FDD502" d="M200.639,73.769c-0.066-0.504-0.169-0.863-0.151-1.217c0.118-2.259,0.218-4.521,0.408-6.775
				c0.218-2.576,0.454-5.154,0.811-7.713c0.385-2.753,0.894-5.49,1.403-8.225c0.182-0.979,0.067-1.415-0.814-1.912
				c-0.8-0.452-1.263-2.056-0.713-2.779c0.216-0.285,0.698-0.467,1.079-0.51c1.313-0.147,1.753-0.693,1.5-1.993
				c-0.231-1.192-0.602-2.312-1.577-3.103c0.256-0.481,0.518-0.503,0.917-0.239c0.255,0.169,0.599,0.25,0.911,0.278
				c0.817,0.074,1.66,0.712,1.632,1.511c-0.04,1.127-0.145,2.289-0.481,3.355c-0.183,0.581-0.906,0.989-1.374,1.485
				c-0.158,0.168-0.281,0.369-0.42,0.556c0.239,0.069,0.488,0.221,0.715,0.194c3.776-0.446,6.851-2.262,9.426-4.969
				c1.64-1.724,1.068-3.958-1.167-4.857c-1.801-0.724-3.629-0.437-5.442-0.116c-3.846,0.68-7.708,1.185-11.621,1.206
				c-0.241,0.001-0.481-0.029-0.722-0.044c-0.089-0.108-0.178-0.215-0.268-0.323c0.229-0.099,0.495-0.152,0.681-0.304
				c2.573-2.107,5.363-3.746,8.701-4.35c0.694-0.126,1.38-0.54,1.963-0.967c0.519-0.381,0.541-1.054,0.124-1.536
				c-0.366-0.423-0.899-0.705-1.371-1.029c-0.031-0.021-0.226,0.11-0.26,0.202c-0.033,0.09,0.025,0.229,0.077,0.329
				c0.028,0.054,0.124,0.074,0.191,0.106c0.511,0.248,1.032,0.54,0.891,1.208c-0.146,0.695-0.814,0.884-1.378,0.958
				c-2.347,0.311-4.453,1.26-6.422,2.478c-1.281,0.792-2.41,1.83-3.604,2.761c-0.175,0.136-0.315,0.329-0.505,0.434
				c-0.568,0.313-1.067,0.064-0.989-0.573c0.17-1.372,0.321-2.772,0.734-4.08c0.354-1.12,1.024-2.149,1.623-3.179
				c0.596-1.024,1.456-1.787,2.491-2.397c1.348-0.795,2.598-1.759,3.956-2.534c1.887-1.077,2.12-4.814,0.579-6.456
				c-1.72-1.832-3.729-2.334-6.096-1.8c-0.12,0.027-0.244,0.042-0.367,0.058c-0.021,0.003-0.045-0.02-0.068-0.03
				c-0.02-0.042-0.068-0.104-0.055-0.123c1.197-1.676,2.314-3.431,4.029-4.648c2.26-1.605,4.742-2.764,7.496-3.149
				c4.595-0.642,8.793,0.306,12.406,3.381c1.87,1.592,3.482,3.384,4.729,5.512c1.228,2.095,0.379,4.14-1.497,5.22
				c-1.414,0.814-2.397,1.877-2.948,3.402c-0.676,1.869-1.414,3.715-2.115,5.575c-0.293,0.777-0.029,1.295,0.762,1.554
				c0.047,0.015,0.097,0.024,0.145,0.033c2.616,0.518,2.966,0.424,3.526-1.622c0.117-0.428,0.328-0.831,0.511-1.239
				c0.186-0.413,0.387-0.738,0.847-0.218c0.296,0.335,0.543,0.21,0.589-0.206c0.047-0.423-0.032-0.911,0.659-0.746
				c0.039-0.187,0.079-0.374,0.118-0.561c-0.34,0.001-0.692-0.047-1.017,0.024c-0.17,0.038-0.294,0.286-0.481,0.485
				c-0.025-1.049,0.629-1.642,1.8-1.722c0.761-0.052,1.254,0.439,1.357,1.351c0.234,2.067-0.213,3.261-1.645,3.922
				c-0.633,0.292-1.385,0.341-2.09,0.456c-0.499,0.082-0.878,0.086-0.394,0.742c0.397,0.537-0.119,1.002-0.337,1.489
				c-1.527,3.411-4.572,5.556-6.896,8.301c-1.935,2.286-3.697,4.665-4.776,7.505c-0.793,2.087-1.787,4.097-2.56,6.19
				c-0.636,1.721-1.056,3.521-1.61,5.273c-1.187,3.749-2.968,7.204-5.235,10.411C200.92,73.531,200.855,73.572,200.639,73.769z
				 M212.345,28.562c2.238-0.126,4.433-0.743,6.067-2.82c1.405-1.786,1.987-5.152,0.658-7.145c-2.113-3.169-5.033-4.073-8.414-3.075
				c-2.672,0.789-5.23,3.615-5.219,7.001c0.004,1.192,0.224,2.323,0.972,3.295C207.85,27.691,209.809,28.476,212.345,28.562z
				 M212.591,31.195c0.337-0.038,0.675-0.024,0.973-0.126c0.23-0.079,0.41-0.302,0.613-0.462c-0.23-0.063-0.468-0.199-0.69-0.177
				c-2.1,0.204-3.895-0.512-5.529-1.763c-0.241-0.185-0.524-0.316-0.787-0.473c0.106,0.317,0.21,0.635,0.322,0.951
				c0.015,0.042,0.064,0.076,0.104,0.105C209.085,30.36,210.75,31.015,212.591,31.195z M221.303,17.515
				c-0.263-0.285-0.48-0.729-0.799-0.821c-0.516-0.149-1.128,0.468-1.149,0.997c-0.021,0.508,0.396,0.948,0.922,0.943
				C220.909,18.628,221.12,18.225,221.303,17.515z M218.772,13.898c0.42,0.409,0.641,0.813,0.91,0.848
				c0.576,0.074,0.76-0.464,0.71-0.897c-0.032-0.283-0.389-0.529-0.601-0.791C219.513,13.286,219.235,13.515,218.772,13.898z
				 M221.787,17.341c0.481,0.355,0.719,0.668,0.994,0.705c0.498,0.066,0.832-0.31,0.75-0.779c-0.049-0.281-0.441-0.727-0.635-0.706
				C222.58,16.596,222.301,16.954,221.787,17.341z"/>
			<path fill="#FDD502" d="M162.489,65.843c-0.147-0.452-0.238-0.813-0.378-1.153c-0.857-2.072-2.181-3.831-3.681-5.475
				c-0.392-0.429-0.982-0.959-0.446-1.525c0.476-0.502,0.981,0.08,1.427,0.364c2.065,1.317,3.109,3.427,4.248,5.463
				c0.061,0.108,0.089,0.249,0.175,0.326c0.164,0.146,0.36,0.256,0.543,0.381c0.074-0.202,0.232-0.414,0.209-0.604
				c-0.226-1.879-0.765-3.635-2.105-5.053c-0.034-0.036-0.087-0.07-0.096-0.112c-0.061-0.299-0.113-0.601-0.167-0.901
				c0.343,0.04,0.769-0.033,1.012,0.144c0.474,0.345,0.883,0.801,1.254,1.263c2.311,2.882,3.506,6.26,4.306,9.809
				c0.027,0.121,0.026,0.266,0.095,0.358c0.742,0.992,0.257,1.876-0.169,2.815c-0.978,2.158-1.787,4.371-1.736,6.798
				c0.008,0.367-0.021,0.703-0.539,0.695c-1.834-0.03-3.202,0.854-4.368,2.19c-0.784,0.898-1.639,1.733-2.466,2.593
				c-0.12,0.125-0.243,0.288-0.395,0.332c-0.266,0.077-0.606,0.178-0.818,0.073c-0.158-0.078-0.284-0.505-0.215-0.705
				c0.164-0.476,0.39-0.957,0.701-1.35c0.972-1.227,2.084-2.35,2.979-3.628c1.818-2.595,1.916-5.288,0.359-8.111
				c-1.674-3.035-3.607-5.881-5.724-8.614c-0.24-0.309-0.452-0.673-0.553-1.045c-0.064-0.236,0.024-0.609,0.189-0.78
				c0.121-0.125,0.553-0.122,0.718-0.001c0.613,0.452,1.273,0.898,1.734,1.488c1.08,1.383,2.052,2.85,3.081,4.272
				c0.098,0.136,0.408,0.302,0.432,0.277C162.256,66.251,162.37,66.03,162.489,65.843z"/>
			<path fill="#FFFFFF" d="M191.552,22.706c-0.049-3.787,2.926-5.431,6.29-5.43c2.252,0.001,4.119,1.31,4.656,3.154
				c0.485,1.668-0.031,3.362-1.394,4.303c-1.78,1.227-3.595,2.403-5.405,3.586c-0.112,0.073-0.345,0.077-0.463,0.01
				c-1.848-1.052-3.208-2.493-3.639-4.656c-0.019-0.097-0.039-0.196-0.042-0.295C191.548,23.154,191.552,22.93,191.552,22.706z
				 M200.205,22.593c0.061-1.771-0.923-3.023-2.419-3.078c-1.774-0.065-3.399,1.47-3.473,3.28c-0.064,1.571,1.14,2.683,2.964,2.737
				C199.155,25.588,200.136,24.603,200.205,22.593z"/>
			<path fill="#718199" d="M226.513,22.129c-0.314,1.42-0.63,2.839-0.941,4.259c-0.193,0.882-0.925,1.063-1.598,0.976
				c-0.583-0.075-0.685,0.196-0.837,0.566c-0.643,1.561-1.307,3.114-1.915,4.689c-0.226,0.585-0.575,0.752-1.147,0.635
				c-0.438-0.09-0.879-0.162-1.32-0.233c-0.507-0.082-0.701-0.371-0.513-0.845c0.888-2.239,1.718-4.506,2.732-6.688
				c0.315-0.678,1.078-1.222,1.751-1.646c1.532-0.964,2.657-2.137,2.748-4.056c0.007-0.14,0.198-0.272,0.304-0.408
				c0.123,0.136,0.332,0.26,0.353,0.41c0.106,0.761,0.163,1.528,0.236,2.293C226.416,22.098,226.464,22.114,226.513,22.129z"/>
			<path fill="#718199" d="M226.719,19.572c1.206,0.413,1.947,1.154,2.544,2.05c0.859,1.289,1.243,2.569,0.269,4.052
				c-0.779,1.188-1.336,2.521-1.961,3.73c-0.572-0.764-1.058-1.399-1.523-2.049c-0.071-0.099-0.103-0.29-0.058-0.398
				C226.969,24.625,227.083,22.199,226.719,19.572z"/>
			<path fill="#718199" d="M230.646,24.832c0.377,1.462,0.207,2.796,0.047,4.115c-0.203,1.679-0.92,3.182-1.817,4.595
				c-0.129,0.203-0.407,0.389-0.643,0.431c-0.828,0.147-1.665,0.255-2.504,0.319c-0.289,0.022-0.591-0.131-1.088-0.254
				c0.343-0.223,0.523-0.299,0.647-0.429c0.541-0.564,1.156-1.086,1.577-1.732c0.631-0.967,1.126-2.022,1.67-3.045
				C229.219,27.548,229.893,26.26,230.646,24.832z"/>
			<path fill="#FDD502" d="M192.212,26.796c1.034,0.792,1.932,1.481,2.854,2.187c-1.681,2.543-3.118,5.187-2.958,8.388
				c-2.023-0.297-2.367-1.034-1.629-2.669c0.359-0.795,1.001-1.466,1.53-2.181c0.324-0.438,0.765-0.813,0.994-1.293
				c0.359-0.756,0.312-1.508-0.258-2.23c-0.324-0.411-0.499-0.956-0.662-1.466C192.015,27.324,192.16,27.05,192.212,26.796z"/>
			<path fill="#FFFFFF" d="M212.127,37.506c-0.797,0.537-1.647,0.847-2.611,0.388c-0.472-0.224-0.86-0.184-1.217,0.187
				c-0.441,0.458-0.977,0.563-1.577,0.426c-0.533-0.121-0.996-0.059-1.47,0.287c-0.534,0.39-1.144,0.33-1.651-0.11
				c-0.398-0.345-0.709-0.337-1.093,0.031c-0.549,0.526-1.226,0.577-1.857,0.205c-0.494-0.291-0.828-0.226-1.268,0.105
				c-0.833,0.626-1.838,0.472-2.56-0.361c0.18-0.051,0.327-0.113,0.48-0.132c3.848-0.483,7.694-0.976,11.545-1.428
				c0.835-0.098,1.689-0.06,2.533-0.045c0.253,0.005,0.504,0.143,0.756,0.22C212.134,37.354,212.131,37.43,212.127,37.506z"/>
			<path fill="#718199" d="M221.573,37.736c0.288-0.486,0.581-0.922,0.813-1.388c0.271-0.545,0.527-1.104,0.719-1.68
				c0.141-0.423,0.781-0.806,1.051-0.492c0.951,1.106,2.155,0.586,3.278,0.594c0.181,0.001,0.363-0.042,0.598-0.072
				C226.921,36.479,223.319,38.217,221.573,37.736z"/>
			<path fill="#FDD502" d="M241.84,76.734c-1.035,1.279-2.042,2.505-3.025,3.751c-0.276,0.35-0.53,0.458-0.933,0.214
				c-0.226-0.137-0.502-0.193-0.755-0.286C237.656,78.971,241.002,76.366,241.84,76.734z"/>
			<path fill="#778D93" d="M235.825,82.745c0.248-0.633,0.496-1.266,0.754-1.923c0.41,0.185,0.788,0.354,1.333,0.599
				c-0.702,0.529-1.31,0.986-1.917,1.443C235.938,82.825,235.882,82.785,235.825,82.745z"/>
			<path d="M212.345,28.562c-2.536-0.086-4.495-0.871-5.936-2.743c-0.748-0.972-0.968-2.103-0.972-3.295
				c-0.011-3.386,2.547-6.212,5.219-7.001c3.381-0.999,6.301-0.094,8.414,3.075c1.329,1.993,0.747,5.359-0.658,7.145
				C216.778,27.819,214.583,28.437,212.345,28.562z M212.534,28.019c0.419-0.083,1.166-0.243,1.918-0.375
				c2.663-0.465,4.602-3.253,4.785-5.747c0.233-3.192-2.453-5.565-4.82-6.042c-3.648-0.735-7.126,1.412-8.157,4.977
				c-0.534,1.845-0.379,3.627,1.045,5.145C208.639,27.402,210.317,27.896,212.534,28.019z"/>
			<path d="M212.591,31.195c-1.841-0.181-3.505-0.835-4.994-1.944c-0.04-0.029-0.089-0.063-0.104-0.105
				c-0.111-0.315-0.215-0.633-0.322-0.951c0.263,0.156,0.546,0.288,0.787,0.473c1.633,1.251,3.428,1.967,5.529,1.763
				c0.222-0.021,0.459,0.114,0.69,0.177c-0.202,0.159-0.383,0.383-0.613,0.462C213.265,31.171,212.927,31.158,212.591,31.195z"/>
			<path d="M221.303,17.515c-0.183,0.71-0.394,1.113-1.026,1.119c-0.527,0.005-0.943-0.435-0.922-0.943
				c0.021-0.529,0.633-1.147,1.149-0.997C220.823,16.786,221.04,17.229,221.303,17.515z"/>
			<path d="M218.772,13.898c0.464-0.382,0.741-0.612,1.019-0.841c0.212,0.262,0.569,0.508,0.601,0.791
				c0.049,0.433-0.134,0.971-0.71,0.897C219.413,14.711,219.191,14.307,218.772,13.898z"/>
			<path d="M221.787,17.341c0.514-0.387,0.794-0.745,1.109-0.78c0.194-0.022,0.586,0.425,0.635,0.706
				c0.082,0.469-0.252,0.845-0.75,0.779C222.506,18.008,222.267,17.696,221.787,17.341z"/>
			<path d="M200.205,22.593c-0.069,2.01-1.05,2.995-2.927,2.939c-1.824-0.054-3.028-1.166-2.964-2.737
				c0.074-1.81,1.698-3.345,3.473-3.28C199.283,19.569,200.266,20.822,200.205,22.593z"/>
			<path fill="#FFFFFF" d="M212.534,28.019c-2.217-0.123-3.895-0.617-5.23-2.041c-1.423-1.518-1.578-3.301-1.045-5.145
				c1.031-3.566,4.509-5.712,8.157-4.977c2.367,0.477,5.053,2.85,4.82,6.042c-0.182,2.493-2.122,5.281-4.785,5.747
				C213.7,27.775,212.954,27.936,212.534,28.019z M212.524,25.563c2.417,0.08,4.002-1.406,3.689-3.962
				c-0.115-0.942-0.41-1.902-1.311-2.405c-1.322-0.739-2.76-0.827-4.185-0.345c-1.159,0.392-1.797,1.245-1.931,2.498
				C208.581,23.268,209.673,25.645,212.524,25.563z"/>
			<path d="M212.524,25.563c-2.851,0.082-3.944-2.295-3.738-4.215c0.134-1.252,0.772-2.106,1.931-2.498
				c1.425-0.482,2.863-0.394,4.185,0.345c0.901,0.503,1.195,1.463,1.311,2.405C216.526,24.157,214.941,25.643,212.524,25.563z"/>
		</g>
		<path fill="#9B4122" d="M209.411,41.405c0.249-0.017,0.457-0.198,0.54-0.361c0.329-0.637,0.887-0.596,1.46-0.611
			c0.598-0.016,0.884,0.298,1.097,0.815c0.204,0.497,0.213,0.904-0.228,1.263c-0.115,0.094-0.21,0.212-0.318,0.314
			c-0.267,0.252-0.526,0.666-0.907,0.541c-0.353-0.115-0.14-0.572-0.192-0.874c-0.034-0.197-0.009-0.413-0.247-0.492
			c-0.263-0.088-0.442,0.074-0.562,0.264c-0.33,0.525-0.84,0.831-1.344,1.145c-0.396,0.247-0.849,0.302-1.156-0.063
			c-0.288-0.344-0.388-0.808-0.138-1.255c0.294-0.525,0.708-0.951,1.158-1.344c0.285-0.249,0.678-0.403,0.949-0.194
			c0.336,0.259-0.241,0.467-0.205,0.759c-0.024,0.038-0.077,0.094-0.067,0.112C209.308,41.519,209.362,41.461,209.411,41.405z"/>
	</g>
</g>
<path fill="none" stroke="#13110C" stroke-width="9.5806" d="M248.395,78.891c0-14.414-15.575-24.879-29.52-24.879
	c-13.943,0-29.501,10.647-29.501,24.879"/>
</svg>
