<?xml version="1.0" encoding="utf-8"?>
<!-- Generator: Adobe Illustrator 18.1.1, SVG Export Plug-In . SVG Version: 6.00 Build 0)  -->
<svg version="1.1" id="Capa_1" xmlns="http://www.w3.org/2000/svg" xmlns:xlink="http://www.w3.org/1999/xlink" x="0px" y="0px"
	 viewBox="0 0 841.9 595.3" enable-background="new 0 0 841.9 595.3" xml:space="preserve">
<g>
	<g>
		<g>
			<polyline fill-rule="evenodd" clip-rule="evenodd" fill="#044262" points="320.4,344.2 341.5,343.7 381,346.1 476.7,345.3 
				514.1,349.8 518.5,339.9 512.3,314.9 341,314.9 			"/>
			<path fill="#0582BB" d="M393.1,327.3c0,0-1.2-27.8-78.5-21.5l5.5,26c0,0-6.7,9-1.8,12.5l23.3-0.7c-0.3-1.4-0.4-2.8-0.4-4.2
				c0-11.3,9.2-20.5,20.5-20.5c11.3,0,20.5,9.2,20.5,20.5c0,2.3-0.4,4.6-1.1,6.6l95.7-0.8c-0.5-1.8-0.8-3.8-0.8-5.8
				c0-11.3,9.2-20.5,20.5-20.5c11.3,0,20.5,9.2,20.5,20.5c0,3.8-1,7.4-2.8,10.4l5.6,0.7l-1.2-10.7l-0.6-9l6.1-18.8
				c0,0,9.1-4.5,9.1-14.3C533.1,297.8,444.2,294.2,393.1,327.3z"/>
			<ellipse fill="#F9B233" stroke="#055A81" cx="315.5" cy="312.3" rx="3.5" ry="2"/>
			<ellipse fill="#F9B233" stroke="#055A81" cx="316.5" cy="315.7" rx="3.5" ry="2"/>
			<ellipse fill="#F9B233" stroke="#055A81" cx="317.5" cy="318.9" rx="3.5" ry="2"/>
			<path fill="#FFFFFF" d="M383,344.2h88.8c0,0-7.5-7.4,0.4-11.1c0,0-9.7-1.1-6.8,6.8L383,344.2z"/>
			<path fill="#0582BB" d="M466.1,302.2l-6.7-24.2l8.8,0.8c0,0-61.7-41.1-122,29.7l28.6,7.2c0,0-7.9-39.4,79.1-37.6L466.1,302.2z"/>
			<path fill="#FFFFFF" d="M525,301c0,0-71.4-4.4-131.1,28.5c0,0,60.5-28.5,125.4-26.8L525,301z"/>
			<path fill="#FFFFFF" d="M392,328.9c0,0-1-18.9-45.1-21.8C347,307.1,382.6,310.8,392,328.9z"/>
			<path fill="#055A81" d="M459.7,339.1c0,0-0.7-0.9,0.2-5.4l-79.9,5.8L459.7,339.1z"/>
			<path fill="#FFFFFF" stroke="#055A81" stroke-width="0.9747" d="M364.5,299.1c0,3.2,1.8,5.8,4,5.8c2.2,0,4-2.6,4-5.8
				c0-3.2-1.8-5.8-4-5.8C366.2,293.3,364.5,295.9,364.5,299.1z"/>
			<polyline fill="#0582BB" points="458.5,303.7 451.4,297.8 453.2,291.5 445.3,304.9 450.4,300.2 457.1,304.3 			"/>
			<path fill="#055A81" d="M419.6,308.4l-1.7-13.6c1.2-2.1,4.8-0.6,4.8-0.6l3.6,13.5l15.2-1.6h0.4c-25,4.5-48.5,19.6-48.5,19.6
				c-2.2-11-11.7-13.4-11.7-13.4L419.6,308.4z"/>
			<path fill="#0582BB" d="M343.7,306.1c0,0-6.3-18.7-13.7-23.5c0,0,9.5,11,12.1,23.5H343.7z"/>
			<path fill="#0582BB" d="M329.2,282.6c0,1,0.5,1.8,1.2,1.8c0.7,0,1.2-0.8,1.2-1.8c0-1-0.5-1.8-1.2-1.8
				C329.7,280.8,329.2,281.6,329.2,282.6z"/>
			<path fill="#055A81" d="M521.9,312c0,0-10.8-2.4-45.3,2.4c0,0,41.8-2.2,41.2,0.3c-0.6,2.6-16.4,2.3-16.4,2.3s16,0.6,14.8,3.3
				c-1.3,2.7-6.7,2.1-6.7,2.1l7.5,3.9c0,0,3.8-8.9,4.9-14"/>
			<path fill="#055A81" d="M318.7,309.2c0,0,25.6-5.6,51.8,9.4c0,0-32.3-1.9-48.9,7.5c0,0,8.6-9.4,31.4-10.3c0,0-15.7-4.1-32.2,1.3
				c0,0,1.9-4.5,25-4.9C345.9,312.2,329.8,307.7,318.7,309.2z"/>
			<path fill="#055A81" d="M461.5,276.6c0,0-69.2-5.3-82.3,21C379.2,297.6,384.3,268.3,461.5,276.6z"/>
		</g>
		<path fill="#F9B233" stroke="#055A81" d="M529.6,304.5c2.4-3.6,3.2-5.7,1.5-5.8c-1.9,0-5.7,2.9-8.1,6.5c-2.4,3.6-2.2,6.9-0.6,6.5
			C523.9,311.3,527.2,308.1,529.6,304.5z"/>
	</g>
	<g>
		<g>
			<path fill-rule="evenodd" clip-rule="evenodd" fill="#1E1E1C" d="M479.4,338.6c0-10.6,8.6-19.3,19.2-19.3
				c10.6,0,19.2,8.6,19.2,19.3c0,10.7-8.6,19.3-19.2,19.3C488,357.9,479.4,349.3,479.4,338.6z"/>
			<path fill-rule="evenodd" clip-rule="evenodd" fill="#CECEB8" d="M485.3,338.6c0-7.4,5.9-13.3,13.2-13.3c7.3,0,13.2,6,13.2,13.3
				c0,7.4-5.9,13.3-13.2,13.3C491.2,351.9,485.3,346,485.3,338.6z"/>
			<g>
				<path fill-rule="evenodd" clip-rule="evenodd" fill="#BE1823" d="M499.5,328.9c-0.5-3.9-1.4-3.9-1.9,0c-0.5,3.9-4.1,6.5-7.9,5.8
					c-3.8-0.7-4.1,0.1-0.6,1.8c3.5,1.7,4.8,5.9,3,9.4c-1.8,3.4-1.1,4,1.6,1.1c2.7-2.8,7-2.8,9.7,0c2.7,2.8,3.4,2.3,1.5-1.1
					c-1.8-3.4-0.5-7.7,3-9.4s3.2-2.5-0.6-1.8C503.6,335.3,500,332.7,499.5,328.9z"/>
			</g>
			<path fill-rule="evenodd" clip-rule="evenodd" fill="#B2B390" d="M494.1,338.6c0-2.5,2-4.5,4.5-4.5c2.5,0,4.5,2,4.5,4.5
				c0,2.5-2,4.5-4.5,4.5C496.1,343.1,494.1,341.1,494.1,338.6z"/>
		</g>
	</g>
	<g>
		<g>
			<path fill-rule="evenodd" clip-rule="evenodd" fill="#1E1E1C" d="M345.3,339.5c0-10.6,8.6-19.3,19.2-19.3
				c10.6,0,19.2,8.6,19.2,19.3c0,10.7-8.6,19.3-19.2,19.3C353.9,358.8,345.3,350.2,345.3,339.5z"/>
			<path fill-rule="evenodd" clip-rule="evenodd" fill="#CECEB8" d="M351.2,339.5c0-7.4,5.9-13.3,13.2-13.3c7.3,0,13.2,6,13.2,13.3
				c0,7.4-5.9,13.3-13.2,13.3C357.1,352.8,351.2,346.9,351.2,339.5z"/>
			<g>
				<path fill-rule="evenodd" clip-rule="evenodd" fill="#BE1823" d="M365.4,329.8c-0.5-3.9-1.4-3.9-1.9,0c-0.5,3.9-4.1,6.5-7.9,5.8
					c-3.8-0.7-4.1,0.1-0.6,1.8c3.5,1.7,4.8,5.9,3,9.4c-1.8,3.4-1.1,4,1.6,1.1c2.7-2.8,7-2.8,9.7,0c2.7,2.8,3.4,2.3,1.5-1.1
					c-1.8-3.4-0.5-7.7,3-9.4c3.5-1.7,3.2-2.5-0.6-1.8C369.5,336.2,365.9,333.6,365.4,329.8z"/>
			</g>
			<ellipse fill-rule="evenodd" clip-rule="evenodd" fill="#B2B390" cx="364.5" cy="339.5" rx="4.5" ry="4.5"/>
		</g>
	</g>
</g>
</svg>
