<?xml version="1.0" encoding="utf-8"?>
<!-- Generator: Adobe Illustrator 18.1.1, SVG Export Plug-In . SVG Version: 6.00 Build 0)  -->
<svg version="1.1" id="Layer_1" xmlns="http://www.w3.org/2000/svg" xmlns:xlink="http://www.w3.org/1999/xlink" x="0px" y="0px"
	 viewBox="0 0 240.391 226.414" enable-background="new 0 0 240.391 226.414" xml:space="preserve">
<defs>
	
	<script  xlink:href="svg.js" language="JavaScript"></script>
</defs>
<script  type="text/JavaScript">
	<![CDATA[
function notify( ref, type ) {
    var event = document.createEvent("CustomEvent");
    event.initEvent(type,true,true);
    ref.dispatchEvent(event);
}

		
		
		
		
		
		
		
		
		
		
		
		]]>
</script>
<g>
	<g>
		<g>
			<path fill="#EA8E10" d="M168.026,16.669c-13.312-2.005-30.541-3.215-49.379-3.215c-17.388,0-33.399,1.03-46.229,2.765V40.46
				H36.65v93.13H203.79V40.91h-35.765V16.669L168.026,16.669z"/>
		</g>
		<path fill="#231F20" d="M168.026,47.872V16.768c18.291,3.174,30.136,8.172,30.136,13.814c3.104,0,5.629,2.596,5.629,5.802v11.488
			H168.026z"/>
		<path fill="#231F20" d="M72.415,47.374V16.269C54.124,19.444,42.28,24.442,42.28,30.084c-3.105,0-5.632,2.594-5.632,5.801v11.488
			L72.415,47.374L72.415,47.374z"/>
	</g>
	<path fill="#F5A909" d="M213.098,132.777c-4.225-4.224-12.777-4.512-19.145-8.106c-25.554-14.445-43.263-19.029-73.162-19.029
		c-0.188,0-0.381,0.002-0.568,0.004c-0.188-0.001-0.385-0.004-0.569-0.004c-29.899,0-47.606,4.584-73.161,19.029
		c-6.367,3.597-14.923,3.886-19.146,8.106c-12.045,12.046-4.393,37.98-4.393,37.98c0,0.695,0.555,1.248,1.241,1.248h96.024h96.027
		c0.688,0,1.244-0.553,1.244-1.248C217.49,170.756,225.145,144.823,213.098,132.777z"/>
	<path fill="#F5A909" d="M143.329,14.193c0-2.861-9.302-9.327-23.238-9.327c-13.922,0-22.979,6.466-22.979,9.327"/>
	<path fill="#231F20" d="M216.016,172.004h-18.505h-39.844h-75.73H42.691H24.429c-0.729,0-1.311,0.83-1.311,1.861l3.521,8.496
		c0,1.078,0.562,1.967,1.252,1.967h13.404v26.131c0,0.854,0.625,1.549,1.395,1.549h39.246c0.768,0,1.393-0.694,1.393-1.549v-16.332
		h72.936v16.332c0,0.854,0.619,1.549,1.404,1.549h39.844c0.779,0,1.398-0.694,1.398-1.549v-26.131h13.629
		c0.699,0,1.266-0.889,1.266-1.967l3.518-8.496C217.321,172.835,216.729,172.004,216.016,172.004z"/>
	<path fill="#12100B" stroke="#4D4947" stroke-width="6" d="M162.682,155.443c0,3.901-3.162,7.063-7.063,7.063H84.823
		c-3.902,0-7.064-3.162-7.064-7.063v-26.56c0-3.907,3.162-7.069,7.064-7.069h70.795c3.901,0,7.063,3.162,7.063,7.069V155.443
		L162.682,155.443z"/>
	<path fill="#D0D0D0" stroke="#231F20" stroke-width="4" d="M213.374,147.778c0,8.426-6.817,15.258-15.256,15.258
		c-8.41,0-15.248-6.83-15.248-15.258c0-8.424,6.838-15.255,15.248-15.255C206.557,132.524,213.374,139.354,213.374,147.778z"/>
	<path fill="#FFFFFF" stroke="#231F20" stroke-width="2" d="M207.565,147.778c0,5.217-4.222,9.443-9.442,9.443
		c-5.207,0-9.439-4.229-9.439-9.443c0-5.214,4.232-9.441,9.439-9.441C203.343,138.336,207.565,142.564,207.565,147.778z"/>
	<path fill="#D0D0D0" stroke="#231F20" stroke-width="4" d="M57.571,147.778c0,8.426-6.817,15.258-15.259,15.258
		c-8.409,0-15.248-6.83-15.248-15.258c0-8.424,6.839-15.255,15.248-15.255C50.751,132.524,57.571,139.354,57.571,147.778z"/>
	<path fill="#FFFFFF" stroke="#231F20" stroke-width="2" d="M51.757,147.778c0,5.217-4.221,9.443-9.443,9.443
		c-5.207,0-9.438-4.229-9.438-9.443c0-5.214,4.23-9.441,9.438-9.441C47.538,138.336,51.757,142.564,51.757,147.778z"/>
	<line fill="none" stroke="#4D4947" stroke-width="5" x1="79.828" y1="138.493" x2="160.614" y2="138.493"/>
	<line fill="none" stroke="#4D4947" stroke-width="5" x1="79.828" y1="130.113" x2="160.614" y2="130.113"/>
	<line fill="none" stroke="#4D4947" stroke-width="5" x1="79.828" y1="146.874" x2="160.614" y2="146.874"/>
	<line fill="none" stroke="#4D4947" stroke-width="5" x1="79.828" y1="155.254" x2="160.614" y2="155.254"/>
	<g>
		<path fill="#FFFFFF" d="M115.517,91.793c0,0.688-0.555,1.249-1.244,1.249H43.56c-0.688,0-1.246-0.562-1.246-1.249V57.367
			c0-0.688,0.56-1.25,1.246-1.25h70.713c0.689,0,1.244,0.562,1.244,1.25V91.793z"/>
		<path fill="#FFFFFF" d="M198.12,91.793c0,0.688-0.556,1.249-1.242,1.249h-70.701c-0.692,0-1.264-0.562-1.264-1.249V57.367
			c0-0.688,0.567-1.25,1.264-1.25h70.701c0.688,0,1.242,0.562,1.242,1.25V91.793z"/>
	</g>
	<g>
		<path fill="#231F20" d="M28.247,86.558c0,0.682-0.549,1.243-1.236,1.243H10.199c-0.684,0-1.248-0.562-1.248-1.243V62.517
			c0-0.689,0.564-1.243,1.248-1.243h16.811c0.689,0,1.236,0.554,1.236,1.243V86.558z"/>
		<path fill="none" stroke="#13110C" stroke-width="6" d="M18.601,87.801c0,5.763,7.994,10.417,17.886,10.417"/>
	</g>
	<g>
		<path fill="#231F20" d="M212.143,86.558c0,0.682,0.565,1.243,1.241,1.243h16.812c0.677,0,1.242-0.562,1.242-1.243V62.517
			c0-0.689-0.565-1.243-1.242-1.243h-16.812c-0.676,0-1.241,0.554-1.241,1.243V86.558z"/>
		<path fill="none" stroke="#13110C" stroke-width="6" d="M221.794,87.801c0,5.763-7.994,10.417-17.883,10.417"/>
	</g>
	<path fill="#E30613" stroke="#DD1215" stroke-width="0.2339" d="M173.449,34.682c0,5.866,4.735,10.608,10.596,10.608
		c5.854,0,10.603-4.742,10.603-10.608c0-5.839-4.748-10.596-10.603-10.596C178.186,24.086,173.449,28.843,173.449,34.682z"/>
	<path fill="#E30613" stroke="#DD1215" stroke-width="0.2339" d="M44.56,34.682c0,5.866,4.744,10.608,10.584,10.608
		c5.863,0,10.613-4.742,10.613-10.608c0-5.839-4.75-10.596-10.613-10.596C49.304,24.086,44.56,28.843,44.56,34.682z"/>
</g>
<g>
	<path d="M74.525,24.132c0.953-0.173,2.46-0.303,3.989-0.303c2.183,0,3.587,0.324,4.643,1.06c0.878,0.562,1.402,1.427,1.402,2.573
		c0,1.406-1.078,2.638-2.857,3.2v0.043c1.604,0.346,3.484,1.492,3.484,3.654c0,1.254-0.575,2.206-1.43,2.919
		c-1.179,0.93-3.085,1.362-5.845,1.362c-1.505,0-2.659-0.086-3.389-0.173L74.525,24.132L74.525,24.132z M76.707,30.099h1.979
		c2.311,0,3.663-1.038,3.663-2.443c0-1.708-1.505-2.378-3.713-2.378c-1.003,0-1.58,0.065-1.932,0.13L76.707,30.099L76.707,30.099z
		 M76.707,37.083c0.427,0.065,1.054,0.087,1.831,0.087c2.258,0,4.34-0.714,4.34-2.833c0-1.989-1.981-2.811-4.364-2.811h-1.807
		V37.083L76.707,37.083z"/>
	<path d="M90.305,23.937v8.627c0,3.265,1.682,4.648,3.938,4.648c2.509,0,4.112-1.427,4.112-4.648v-8.627h2.207v8.498
		c0,4.476-2.732,6.313-6.396,6.313c-3.462,0-6.07-1.708-6.07-6.227v-8.584H90.305z"/>
	<path d="M104.053,36.218c0.979,0.519,2.408,0.952,3.913,0.952c2.232,0,3.537-1.017,3.537-2.487c0-1.362-0.903-2.141-3.188-2.897
		c-2.76-0.843-4.465-2.076-4.465-4.13c0-2.271,2.184-3.957,5.469-3.957c1.73,0,2.984,0.346,3.737,0.714l-0.603,1.535
		c-0.553-0.26-1.683-0.692-3.211-0.692c-2.31,0-3.188,1.189-3.188,2.184c0,1.362,1.028,2.032,3.361,2.811
		c2.858,0.951,4.312,2.14,4.312,4.281c0,2.249-1.932,4.195-5.92,4.195c-1.631,0-3.411-0.411-4.312-0.93L104.053,36.218z"/>
	<path d="M121.889,31.959v1.405h-6.194v-1.405H121.889z"/>
	<path d="M124.549,24.132c0.953-0.173,2.459-0.303,3.989-0.303c2.182,0,3.587,0.324,4.641,1.06c0.878,0.562,1.404,1.427,1.404,2.573
		c0,1.406-1.078,2.638-2.858,3.2v0.043c1.605,0.346,3.485,1.492,3.485,3.654c0,1.254-0.576,2.206-1.43,2.919
		c-1.18,0.93-3.086,1.362-5.846,1.362c-1.506,0-2.659-0.086-3.388-0.173L124.549,24.132L124.549,24.132z M126.733,30.099h1.981
		c2.309,0,3.663-1.038,3.663-2.443c0-1.708-1.506-2.378-3.713-2.378c-1.004,0-1.58,0.065-1.933,0.13L126.733,30.099L126.733,30.099z
		 M126.733,37.083c0.428,0.065,1.055,0.087,1.831,0.087c2.258,0,4.34-0.714,4.34-2.833c0-1.989-1.98-2.811-4.363-2.811h-1.808
		V37.083L126.733,37.083z"/>
	<path d="M149.962,38.034c-0.803,0.346-2.408,0.692-4.465,0.692c-4.768,0-8.355-2.595-8.355-7.373c0-4.562,3.587-7.654,8.829-7.654
		c2.107,0,3.438,0.389,4.015,0.649l-0.526,1.535c-0.827-0.346-2.007-0.605-3.411-0.605c-3.964,0-6.598,2.184-6.598,6.011
		c0,3.567,2.383,5.859,6.497,5.859c1.329,0,2.685-0.238,3.562-0.605L149.962,38.034z"/>
	<path d="M152.698,38.51V23.937h2.384l5.418,7.373c1.254,1.708,2.231,3.244,3.035,4.735l0.051-0.021
		c-0.201-1.946-0.251-3.719-0.251-5.989v-6.098h2.058V38.51h-2.207l-5.368-7.394c-1.181-1.622-2.31-3.287-3.16-4.865l-0.075,0.021
		c0.125,1.838,0.176,3.589,0.176,6.011v6.227L152.698,38.51L152.698,38.51z"/>
</g>
<g>
	<defs>
		<path id="SVGID_1_" d="M196.645,91.809c0,0.688-0.556,1.249-1.242,1.249h-70.701c-0.692,0-1.264-0.562-1.264-1.249V57.383
			c0-0.688,0.567-1.25,1.264-1.25h70.701c0.689,0,1.242,0.562,1.242,1.25V91.809z"/>
	</defs>
	<clipPath id="SVGID_2_">
		<use xlink:href="#SVGID_1_"  overflow="visible"/>
	</clipPath>
	<g clip-path="url(#SVGID_2_)">
		<g>
			<path fill="#778D93" d="M169.599,98.212c-4.592,0-9.183,0-13.775,0c0.788-5.786,2.93-11.041,6.228-15.936
				c0.007,0.151,0.017,0.214,0.012,0.276c-0.19,2.089-0.398,4.176-0.562,6.267c-0.045,0.572,0.028,1.155,0.073,1.73
				c0.01,0.132,0.134,0.254,0.206,0.381c0.132-0.083,0.307-0.135,0.391-0.252c1.171-1.631,2.139-3.369,2.761-5.288
				c0.5-1.543,0.998-3.087,1.511-4.626c0.103-0.31,0.271-0.598,0.423-0.925c3.909,5.787,8.937,9.989,15.768,11.899
				c-0.161,0.112-0.277,0.186-0.386,0.27c-0.954,0.729-1.916,1.461-2.316,2.66c-0.179,0.537-0.385,0.998-0.991,1.159
				c-0.154,0.041-0.283,0.175-0.423,0.266c-0.279,0.18-0.382,0.465-0.25,0.737c0.105,0.216,0.337,0.381,0.54,0.533
				c0.085,0.063,0.239,0.033,0.359,0.045c-0.018,0.298-0.033,0.551-0.049,0.805c-2.089,0-4.179,0-6.268,0
				c-0.082-0.097-0.158-0.202-0.248-0.291c-1.485-1.475-2.84-3.058-3.883-4.88c-0.64-1.116-1.209-2.272-1.821-3.405
				c-0.049-0.09-0.177-0.137-0.269-0.203c0.001,0.112-0.039,0.247,0.009,0.333c0.851,1.544,1.69,3.095,2.585,4.613
				c0.289,0.49,0.583,0.921,0.384,1.52c-0.05,0.151-0.008,0.332-0.008,0.5C169.598,97.003,169.598,97.608,169.599,98.212z"/>
			<path fill="#778D93" d="M152.651,98.212c-2.476,0-4.953,0-7.429,0c-0.528-1.296-0.594-2.659-0.526-4.026
				c0.046-0.921,0.09-1.863,0.323-2.747c0.257-0.973,0.701-1.903,1.116-2.827c0.387-0.862,0.419-0.858,1.357-0.706
				c1.949,0.316,3.885,0.17,5.791-0.252c2.339-0.517,4.475-1.537,6.463-2.868c0.158-0.105,0.322-0.202,0.437-0.273
				c-0.635,1.317-1.281,2.631-1.905,3.955c-1.076,2.284-1.743,4.706-2.365,7.141c-0.033,0.13-0.09,0.279-0.186,0.362
				c-0.378,0.329-0.762,0.655-1.169,0.946C153.934,97.365,153.288,97.782,152.651,98.212z"/>
			<path d="M152.651,98.212c0.637-0.43,1.283-0.847,1.908-1.294c0.407-0.291,0.791-0.617,1.169-0.946
				c0.096-0.083,0.153-0.233,0.186-0.362c0.622-2.436,1.289-4.857,2.365-7.141c0.624-1.324,1.27-2.638,1.905-3.955
				c-0.115,0.072-0.279,0.168-0.437,0.273c-1.988,1.331-4.124,2.351-6.463,2.868c-1.906,0.421-3.842,0.568-5.791,0.252
				c-0.938-0.152-0.97-0.156-1.357,0.706c-0.415,0.925-0.859,1.854-1.116,2.827c-0.233,0.883-0.277,1.826-0.323,2.747
				c-0.069,1.368-0.002,2.731,0.526,4.026c-0.103,0-0.206,0-0.31,0c-0.559-1.435-0.542-2.942-0.504-4.466
				c-0.697-0.113-1.283,0.062-1.754,0.49c-0.551,0.501-1.035,1.076-1.565,1.602c-0.217,0.215-0.455,0.427-0.722,0.567
				c-0.371,0.196-0.732-0.023-0.791-0.44c-0.058-0.41,0.089-0.752,0.358-1.06c0.492-0.562,0.983-1.125,1.456-1.703
				c0.862-1.053,1.133-2.284,0.595-3.506c-0.504-1.145-1.246-2.189-1.92-3.254c-0.549-0.867-1.152-1.7-1.731-2.548
				c0-0.077,0-0.155,0-0.232c0.39-0.586,0.675-0.673,1.216-0.226c0.471,0.389,0.863,0.873,1.288,1.318
				c0.106,0.111,0.199,0.233,0.298,0.35c0.029-0.017,0.057-0.035,0.086-0.052c-0.147-0.237-0.273-0.49-0.444-0.709
				c-0.349-0.446-0.723-0.873-1.086-1.308c-0.017-0.02-0.035-0.038-0.052-0.057c-0.297-0.36-0.357-0.781-0.146-1.023
				c0.216-0.249,0.619-0.228,1.03,0.016c0.743,0.441,1.263,1.088,1.723,1.796c0.132,0.202,0.262,0.405,0.393,0.608
				c0.043-0.021,0.086-0.043,0.13-0.064c-0.191-0.368-0.368-0.745-0.577-1.103c-0.135-0.232-0.357-0.419-0.466-0.659
				c-0.078-0.172-0.121-0.484-0.025-0.583c0.139-0.144,0.495-0.274,0.624-0.194c0.405,0.252,0.808,0.557,1.101,0.929
				c1.06,1.349,1.714,2.897,2.094,4.565c0.082,0.36,0.19,0.713,0.287,1.069c0.037,0.006,0.075,0.013,0.112,0.019
				c0.109-0.203,0.221-0.406,0.328-0.61c0.115-0.22,0.265-0.298,0.533-0.246c1.527,0.294,3.062,0.339,4.614,0.182
				c3.444-0.348,6.396-1.873,9.198-3.773c0.142-0.096,0.245-0.26,0.343-0.407c0.391-0.59,0.779-1.182,1.155-1.781
				c0.079-0.126,0.126-0.28,0.154-0.428c0.211-1.113,0.402-2.231,0.627-3.341c0.065-0.32-0.041-0.485-0.307-0.614
				c-0.486-0.236-0.713-0.834-0.59-1.526c0.084-0.47,0.369-0.686,0.984-0.744c0.411-0.039,0.521-0.143,0.456-0.537
				c-0.09-0.547-0.191-1.106-0.662-1.48c-0.147-0.117-0.339-0.18-0.516-0.255c-0.452-0.193-0.856-0.105-1.319,0.076
				c-0.465,0.181-0.962,0.017-1.275-0.465c-0.052-0.08-0.183-0.149-0.281-0.153c-0.395-0.019-0.791-0.009-1.187-0.013
				c-0.088-0.001-0.184,0.008-0.264-0.022c-0.379-0.141-0.757-0.283-1.128-0.444c-0.619-0.269-0.835-0.707-0.566-1.343
				c0.202-0.479,0.515-0.915,0.805-1.352c0.141-0.212,0.353-0.375,0.514-0.576c0.264-0.328,0.239-0.677,0.01-1.029
				c-0.166-0.254-0.295-0.538-0.398-0.824c-0.048-0.133-0.056-0.36,0.023-0.446c0.312-0.335,0.124-0.599-0.023-0.92
				c-0.655-1.425-0.104-3.118,1.272-3.854c0.32-0.171,0.446-0.427,0.612-0.698c1.158-1.889,2.786-3.181,4.913-3.83
				c0.158-0.048,0.313-0.11,0.469-0.166c1.767-0.426,2.684-0.368,4.334,0c0.176,0.072,0.349,0.152,0.527,0.216
				c1.915,0.689,3.362,1.974,4.538,3.592c0.286,0.393,0.497,0.84,0.759,1.252c0.057,0.09,0.181,0.187,0.281,0.194
				c0.948,0.07,1.615,0.593,2.096,1.351c1.696,2.671,0.685,5.969-1.225,7.669c-0.794,0.707-1.741,1.199-2.87,1.185
				c-0.14-0.002-0.326,0.046-0.415,0.142c-1.197,1.279-2.412,2.545-3.558,3.87c-0.751,0.869-1.326,1.868-1.725,2.959
				c-0.085,0.232-0.074,0.397,0.057,0.606c1.869,2.99,4.263,5.475,7.096,7.57c1.323,0.978,2.679,1.906,4.164,2.584
				c1.329,0.607,2.759,0.995,4.145,1.478c0.097,0.034,0.215,0.036,0.291,0.095c0.437,0.333,0.75,0.222,1.139-0.15
				c1.073-1.025,2.304-1.819,3.737-2.266c0,0.103,0,0.206,0,0.31c-0.758,0.377-1.569,0.675-2.261,1.148
				c-1.345,0.918-2.493,2.068-3.451,3.392c-0.47,0.65-1.067,1.147-1.755,1.54c-0.502,0.287-1.026,0.535-1.517,0.839
				c-0.127,0.078-0.269,0.377-0.223,0.438c0.112,0.149,0.329,0.297,0.505,0.299c0.244,0.002,0.512-0.092,0.73-0.214
				c0.805-0.453,1.588-0.945,2.391-1.401c0.283-0.16,0.598-0.359,0.902-0.365c0.657-0.013,1.115-0.34,1.542-0.76
				c0.174-0.171,0.308-0.382,0.481-0.553c0.076-0.075,0.205-0.096,0.31-0.141c-0.013,0.111,0.011,0.25-0.047,0.329
				c-0.202,0.277-0.432,0.533-0.684,0.835c0.776,0.028,1.331-0.276,1.746-0.851c0.335-0.465,0.749-0.803,1.33-0.897
				c0,0.103,0,0.206,0,0.31c-0.316,0.197-0.653,0.366-0.941,0.598c-0.336,0.271-0.632,0.593-0.937,0.901
				c-0.077,0.077-0.153,0.174-0.182,0.275c-0.299,1.032-0.588,2.067-0.88,3.102c-0.103,0-0.206,0-0.31,0
				c0.346-1.018,0.768-2.016,0.886-3.178c-0.611,0.104-1.172,0.201-1.734,0.294c-0.178,0.03-0.362,0.03-0.534,0.079
				c-0.252,0.071-0.516,0.139-0.739,0.269c-0.745,0.432-1.444,0.955-2.219,1.32c-0.572,0.269-0.814,0.619-0.768,1.216
				c-0.103,0-0.206,0-0.31,0c0.015-0.254,0.031-0.507,0.049-0.805c-0.12-0.012-0.274,0.018-0.359-0.045
				c-0.203-0.152-0.435-0.317-0.54-0.533c-0.132-0.272-0.029-0.556,0.25-0.737c0.141-0.091,0.27-0.225,0.423-0.266
				c0.606-0.162,0.812-0.623,0.991-1.159c0.401-1.199,1.363-1.931,2.316-2.66c0.109-0.083,0.225-0.158,0.386-0.27
				c-6.831-1.91-11.859-6.112-15.768-11.899c-0.152,0.327-0.32,0.615-0.423,0.925c-0.513,1.539-1.011,3.083-1.511,4.626
				c-0.622,1.919-1.589,3.658-2.761,5.288c-0.084,0.117-0.259,0.17-0.391,0.252c-0.072-0.127-0.195-0.249-0.206-0.381
				c-0.046-0.576-0.118-1.159-0.073-1.73c0.164-2.091,0.372-4.178,0.562-6.267c0.006-0.062-0.005-0.125-0.012-0.276
				c-3.298,4.895-5.44,10.15-6.228,15.936c-0.103,0-0.206,0-0.31,0c0.104-0.605,0.208-1.21,0.314-1.827
				c-0.935,0.63-1.824,1.228-2.713,1.827C152.96,98.212,152.806,98.212,152.651,98.212z M161.868,90.478
				c0.112-0.102,0.146-0.124,0.167-0.154c1.175-1.662,2.097-3.451,2.712-5.393c0.287-0.908,0.505-1.84,0.834-2.732
				c0.4-1.084,0.916-2.126,1.326-3.207c0.559-1.471,1.472-2.704,2.474-3.888c1.204-1.422,2.781-2.533,3.572-4.3
				c0.113-0.253,0.38-0.493,0.175-0.771c-0.251-0.34-0.054-0.342,0.204-0.384c0.365-0.06,0.755-0.085,1.083-0.236
				c0.742-0.342,0.973-0.961,0.852-2.032c-0.054-0.473-0.309-0.727-0.703-0.7c-0.606,0.041-0.945,0.349-0.932,0.892
				c0.097-0.103,0.161-0.232,0.249-0.251c0.168-0.037,0.35-0.012,0.527-0.013c-0.02,0.097-0.041,0.194-0.061,0.291
				c-0.358-0.085-0.317,0.167-0.341,0.387c-0.024,0.215-0.152,0.28-0.305,0.107c-0.238-0.27-0.343-0.101-0.439,0.113
				c-0.095,0.211-0.204,0.42-0.265,0.642c-0.29,1.06-0.472,1.109-1.827,0.84c-0.025-0.005-0.051-0.009-0.075-0.017
				c-0.41-0.134-0.547-0.403-0.395-0.805c0.363-0.963,0.746-1.92,1.096-2.888c0.286-0.79,0.795-1.34,1.527-1.762
				c0.972-0.56,1.411-1.619,0.775-2.704c-0.646-1.102-1.481-2.03-2.45-2.855c-1.872-1.593-4.046-2.084-6.427-1.752
				c-1.427,0.199-2.712,0.8-3.883,1.631c-0.888,0.631-1.467,1.54-2.087,2.408c-0.007,0.01,0.018,0.042,0.029,0.064
				c0.012,0.006,0.024,0.017,0.035,0.016c0.064-0.008,0.128-0.016,0.19-0.03c1.226-0.277,2.267-0.016,3.158,0.933
				c0.798,0.85,0.678,2.786-0.3,3.344c-0.704,0.402-1.351,0.901-2.049,1.313c-0.536,0.316-0.982,0.711-1.291,1.242
				c-0.31,0.533-0.658,1.067-0.841,1.647c-0.214,0.678-0.292,1.403-0.381,2.114c-0.041,0.33,0.218,0.459,0.512,0.297
				c0.098-0.054,0.171-0.154,0.261-0.225c0.619-0.482,1.204-1.02,1.867-1.43c1.02-0.631,2.111-1.123,3.327-1.284
				c0.292-0.039,0.638-0.136,0.714-0.496c0.073-0.346-0.197-0.497-0.462-0.626c-0.035-0.017-0.085-0.027-0.099-0.055
				c-0.027-0.052-0.057-0.124-0.04-0.17c0.018-0.048,0.119-0.116,0.135-0.105c0.245,0.168,0.521,0.314,0.71,0.533
				c0.216,0.249,0.205,0.598-0.064,0.796c-0.302,0.221-0.657,0.436-1.017,0.501c-1.729,0.313-3.174,1.162-4.507,2.253
				c-0.096,0.079-0.234,0.106-0.353,0.158c0.046,0.056,0.092,0.111,0.139,0.167c0.125,0.008,0.249,0.024,0.374,0.023
				c2.027-0.011,4.027-0.272,6.02-0.625c0.939-0.166,1.886-0.315,2.819,0.06c1.158,0.465,1.455,1.623,0.605,2.516
				c-1.334,1.402-2.927,2.343-4.883,2.574c-0.118,0.014-0.247-0.065-0.37-0.1c0.072-0.096,0.135-0.201,0.217-0.288
				c0.242-0.257,0.617-0.468,0.712-0.77c0.174-0.552,0.229-1.154,0.249-1.738c0.015-0.414-0.422-0.745-0.846-0.783
				c-0.162-0.015-0.34-0.057-0.472-0.144c-0.207-0.137-0.343-0.125-0.475,0.124c0.505,0.409,0.697,0.99,0.817,1.607
				c0.131,0.674-0.097,0.956-0.777,1.032c-0.198,0.022-0.447,0.117-0.559,0.264c-0.285,0.374-0.045,1.205,0.37,1.439
				c0.456,0.258,0.516,0.484,0.422,0.991c-0.264,1.416-0.528,2.834-0.727,4.261c-0.185,1.326-0.307,2.661-0.42,3.996
				c-0.099,1.168-0.151,2.339-0.212,3.51C161.78,90.031,161.834,90.217,161.868,90.478z M142.105,86.372
				c-0.061,0.097-0.121,0.211-0.206,0.302c-0.012,0.013-0.173-0.073-0.224-0.144c-0.533-0.737-1.037-1.497-1.596-2.213
				c-0.239-0.306-0.58-0.537-0.898-0.771c-0.085-0.063-0.309-0.064-0.372,0c-0.086,0.089-0.131,0.282-0.098,0.404
				c0.052,0.193,0.162,0.381,0.287,0.541c1.097,1.416,2.098,2.89,2.966,4.462c0.806,1.462,0.756,2.857-0.186,4.202
				c-0.464,0.662-1.04,1.244-1.543,1.879c-0.161,0.203-0.278,0.453-0.363,0.699c-0.036,0.103,0.029,0.325,0.111,0.365
				c0.11,0.054,0.286,0.002,0.424-0.038c0.078-0.023,0.142-0.107,0.205-0.172c0.428-0.445,0.872-0.878,1.278-1.343
				c0.604-0.692,1.313-1.15,2.263-1.134c0.269,0.004,0.283-0.17,0.279-0.36c-0.026-1.257,0.393-2.403,0.9-3.521
				c0.22-0.486,0.472-0.944,0.088-1.458c-0.036-0.047-0.035-0.123-0.049-0.185c-0.414-1.838-1.033-3.588-2.231-5.081
				c-0.192-0.239-0.404-0.475-0.649-0.654c-0.126-0.092-0.347-0.054-0.524-0.075c0.028,0.156,0.055,0.312,0.086,0.467
				c0.004,0.022,0.032,0.039,0.05,0.058c0.694,0.735,0.974,1.644,1.091,2.618c0.012,0.099-0.07,0.208-0.108,0.313
				c-0.095-0.065-0.196-0.122-0.281-0.198c-0.045-0.04-0.059-0.113-0.091-0.169c-0.59-1.055-1.131-2.148-2.201-2.83
				c-0.231-0.147-0.492-0.449-0.739-0.188c-0.278,0.293,0.028,0.568,0.231,0.79c0.777,0.851,1.463,1.763,1.907,2.836
				C141.982,85.951,142.029,86.138,142.105,86.372z M157.161,64.025c0,0.116-0.002,0.232,0.001,0.348
				c0.001,0.051,0.012,0.102,0.022,0.153c0.223,1.12,0.928,1.867,1.885,2.412c0.061,0.035,0.182,0.033,0.24-0.005
				c0.938-0.613,1.878-1.222,2.8-1.858c0.707-0.487,0.974-1.365,0.722-2.229c-0.278-0.955-1.245-1.634-2.412-1.634
				C158.677,61.212,157.136,62.063,157.161,64.025z M175.272,63.726c-0.025-0.008-0.05-0.016-0.076-0.024
				c-0.038-0.396-0.068-0.794-0.122-1.188c-0.011-0.078-0.119-0.142-0.183-0.212c-0.055,0.07-0.154,0.139-0.158,0.211
				c-0.047,0.994-0.63,1.602-1.424,2.101c-0.348,0.219-0.744,0.501-0.907,0.852c-0.525,1.13-0.955,2.305-1.415,3.465
				c-0.097,0.245,0.003,0.395,0.266,0.437c0.229,0.037,0.457,0.074,0.684,0.121c0.296,0.061,0.477-0.026,0.594-0.329
				c0.315-0.816,0.659-1.62,0.992-2.429c0.079-0.192,0.132-0.333,0.434-0.293c0.349,0.045,0.728-0.049,0.828-0.506
				C174.946,65.197,175.109,64.462,175.272,63.726z M175.378,62.401c0.189,1.361,0.13,2.618-0.377,3.826
				c-0.023,0.056-0.007,0.155,0.03,0.206c0.241,0.337,0.492,0.665,0.789,1.061c0.324-0.627,0.612-1.317,1.016-1.933
				c0.504-0.768,0.305-1.431-0.14-2.099C176.387,62.999,176.003,62.615,175.378,62.401z M177.413,65.126
				c-0.39,0.739-0.74,1.407-1.094,2.072c-0.282,0.53-0.538,1.077-0.865,1.577c-0.218,0.335-0.536,0.605-0.817,0.897
				c-0.064,0.067-0.158,0.106-0.335,0.222c0.257,0.064,0.414,0.143,0.564,0.132c0.434-0.033,0.868-0.089,1.297-0.165
				c0.122-0.022,0.267-0.118,0.333-0.223c0.465-0.732,0.836-1.511,0.941-2.381C177.52,66.575,177.609,65.884,177.413,65.126z
				 M157.502,66.144c-0.026,0.132-0.102,0.274-0.067,0.381c0.084,0.264,0.175,0.547,0.343,0.759
				c0.295,0.374,0.319,0.764,0.133,1.155c-0.118,0.248-0.347,0.443-0.515,0.67c-0.274,0.371-0.606,0.718-0.793,1.13
				c-0.382,0.847-0.204,1.229,0.844,1.383c-0.083-1.658,0.662-3.028,1.533-4.345C158.503,66.911,158.038,66.554,157.502,66.144z
				 M167.819,71.692c0.002-0.039,0.004-0.079,0.006-0.118c-0.13-0.04-0.26-0.111-0.391-0.114c-0.437-0.008-0.88-0.027-1.312,0.023
				c-1.995,0.234-3.988,0.49-5.981,0.74c-0.079,0.01-0.155,0.042-0.248,0.069c0.374,0.431,0.895,0.512,1.326,0.187
				c0.228-0.172,0.401-0.206,0.657-0.054c0.327,0.193,0.678,0.166,0.962-0.106c0.199-0.191,0.36-0.195,0.566-0.016
				c0.263,0.228,0.579,0.259,0.855,0.057c0.245-0.179,0.485-0.211,0.761-0.149c0.311,0.071,0.588,0.017,0.817-0.221
				c0.185-0.192,0.386-0.213,0.63-0.097C166.966,72.131,167.406,71.97,167.819,71.692z M172.713,71.811
				c0.905,0.249,2.771-0.651,3.346-1.574c-0.122,0.015-0.216,0.038-0.31,0.037c-0.582-0.004-1.205,0.265-1.698-0.308
				c-0.14-0.162-0.471,0.036-0.544,0.255c-0.099,0.299-0.232,0.588-0.372,0.87C173.013,71.333,172.862,71.559,172.713,71.811z
				 M183.212,92.014c-0.434-0.19-2.167,1.159-2.442,1.906c0.131,0.048,0.274,0.077,0.391,0.148c0.209,0.126,0.34,0.071,0.484-0.111
				C182.154,93.311,182.676,92.676,183.212,92.014z M180.096,95.128c0.029,0.021,0.059,0.041,0.088,0.062
				c0.315-0.237,0.629-0.473,0.993-0.747c-0.282-0.127-0.478-0.215-0.69-0.31C180.353,94.472,180.225,94.8,180.096,95.128z"/>
			<path fill="#FDD502" d="M187.785,93.027c-0.582,0.094-0.995,0.432-1.33,0.897c-0.415,0.575-0.97,0.879-1.746,0.851
				c0.251-0.302,0.482-0.558,0.684-0.835c0.058-0.079,0.033-0.217,0.047-0.329c-0.105,0.045-0.234,0.066-0.31,0.141
				c-0.173,0.171-0.307,0.382-0.481,0.553c-0.428,0.421-0.886,0.748-1.542,0.76c-0.304,0.006-0.62,0.205-0.902,0.365
				c-0.803,0.456-1.586,0.948-2.391,1.401c-0.218,0.123-0.486,0.216-0.73,0.214c-0.176-0.001-0.394-0.15-0.505-0.299
				c-0.046-0.061,0.097-0.36,0.223-0.438c0.491-0.303,1.015-0.552,1.517-0.839c0.688-0.393,1.285-0.891,1.755-1.54
				c0.959-1.324,2.106-2.474,3.451-3.392c0.692-0.473,1.504-0.771,2.261-1.148c0,0.387,0,0.774,0,1.161
				c-0.36,0.218-0.727,0.425-1.073,0.663c-0.073,0.05-0.067,0.215-0.097,0.328c0.108-0.03,0.226-0.039,0.321-0.092
				c0.288-0.161,0.567-0.339,0.849-0.511C187.785,91.634,187.785,92.331,187.785,93.027z"/>
			<path fill="#778D93" d="M179.427,98.212c-0.046-0.597,0.196-0.947,0.768-1.216c0.775-0.365,1.474-0.887,2.219-1.32
				c0.224-0.13,0.487-0.198,0.739-0.269c0.172-0.049,0.356-0.049,0.534-0.079c0.562-0.093,1.123-0.19,1.734-0.294
				c-0.118,1.163-0.541,2.16-0.886,3.178C182.832,98.212,181.129,98.212,179.427,98.212z"/>
			<path d="M169.599,98.212c0-0.604-0.001-1.209-0.001-1.813c0-0.167-0.042-0.349,0.008-0.5c0.2-0.599-0.095-1.03-0.384-1.52
				c-0.895-1.518-1.734-3.069-2.585-4.613c-0.048-0.086-0.008-0.221-0.009-0.333c0.091,0.067,0.22,0.113,0.269,0.203
				c0.611,1.133,1.181,2.289,1.821,3.405c1.044,1.822,2.398,3.404,3.883,4.88c0.09,0.089,0.165,0.194,0.248,0.291
				c-0.129,0-0.258,0-0.387,0c-0.798-0.891-1.595-1.782-2.395-2.671c-0.012-0.013-0.047-0.006-0.159-0.016c0,0.9,0,1.794,0,2.687
				C169.805,98.212,169.702,98.212,169.599,98.212z"/>
			<path d="M187.785,90.938c-0.282,0.172-0.561,0.35-0.849,0.511c-0.095,0.053-0.213,0.063-0.321,0.092
				c0.03-0.112,0.024-0.277,0.097-0.328c0.346-0.238,0.713-0.445,1.073-0.663C187.785,90.68,187.785,90.809,187.785,90.938z"/>
			<path fill="#FDD502" d="M161.868,90.478c-0.034-0.261-0.088-0.447-0.078-0.63c0.061-1.17,0.113-2.342,0.212-3.51
				c0.113-1.334,0.235-2.67,0.42-3.996c0.199-1.426,0.463-2.844,0.727-4.261c0.094-0.507,0.035-0.733-0.422-0.991
				c-0.414-0.234-0.654-1.065-0.37-1.439c0.112-0.148,0.361-0.242,0.559-0.264c0.68-0.076,0.908-0.359,0.777-1.032
				c-0.12-0.617-0.312-1.198-0.817-1.607c0.133-0.249,0.268-0.261,0.475-0.124c0.132,0.087,0.31,0.129,0.472,0.144
				c0.423,0.038,0.86,0.369,0.846,0.783c-0.021,0.584-0.075,1.186-0.249,1.738c-0.095,0.301-0.469,0.512-0.712,0.77
				c-0.082,0.087-0.145,0.191-0.217,0.288c0.124,0.036,0.253,0.114,0.37,0.1c1.956-0.231,3.549-1.172,4.883-2.574
				c0.85-0.893,0.553-2.051-0.605-2.516c-0.933-0.375-1.88-0.227-2.819-0.06c-1.993,0.353-3.993,0.614-6.02,0.625
				c-0.125,0.001-0.249-0.015-0.374-0.023c-0.046-0.056-0.092-0.111-0.139-0.167c0.119-0.051,0.257-0.079,0.353-0.158
				c1.333-1.091,2.778-1.941,4.507-2.253c0.36-0.065,0.715-0.28,1.017-0.501c0.269-0.197,0.28-0.546,0.064-0.796
				c-0.19-0.219-0.465-0.365-0.71-0.533c-0.016-0.011-0.117,0.057-0.135,0.105c-0.017,0.047,0.013,0.118,0.04,0.17
				c0.014,0.028,0.064,0.038,0.099,0.055c0.265,0.128,0.535,0.28,0.462,0.626c-0.076,0.36-0.422,0.458-0.714,0.496
				c-1.216,0.161-2.307,0.653-3.327,1.284c-0.663,0.41-1.248,0.948-1.867,1.43c-0.091,0.071-0.163,0.171-0.261,0.225
				c-0.294,0.162-0.553,0.033-0.512-0.297c0.088-0.711,0.167-1.436,0.381-2.114c0.183-0.58,0.531-1.114,0.841-1.647
				c0.309-0.531,0.754-0.925,1.291-1.242c0.698-0.412,1.346-0.911,2.049-1.313c0.978-0.558,1.098-2.494,0.3-3.344
				c-0.891-0.949-1.932-1.209-3.158-0.933c-0.062,0.014-0.126,0.022-0.19,0.03c-0.011,0.001-0.023-0.01-0.035-0.016
				c-0.01-0.022-0.035-0.054-0.028-0.064c0.62-0.868,1.199-1.778,2.087-2.408c1.171-0.831,2.457-1.432,3.883-1.631
				c2.38-0.333,4.555,0.158,6.427,1.752c0.969,0.825,1.804,1.753,2.45,2.855c0.636,1.085,0.196,2.145-0.775,2.704
				c-0.733,0.422-1.242,0.972-1.527,1.762c-0.35,0.968-0.733,1.924-1.096,2.888c-0.152,0.402-0.015,0.671,0.395,0.805
				c0.024,0.008,0.05,0.012,0.075,0.017c1.355,0.268,1.536,0.219,1.827-0.84c0.061-0.222,0.17-0.431,0.265-0.642
				c0.096-0.214,0.201-0.382,0.439-0.113c0.154,0.174,0.281,0.109,0.305-0.107c0.025-0.219-0.017-0.472,0.341-0.387
				c0.02-0.097,0.041-0.194,0.061-0.291c-0.176,0.001-0.358-0.025-0.527,0.013c-0.088,0.019-0.152,0.148-0.249,0.251
				c-0.013-0.543,0.326-0.85,0.932-0.892c0.394-0.027,0.649,0.227,0.703,0.7c0.121,1.071-0.11,1.689-0.852,2.032
				c-0.328,0.151-0.717,0.176-1.083,0.236c-0.258,0.042-0.455,0.044-0.204,0.384c0.205,0.278-0.062,0.519-0.175,0.771
				c-0.791,1.767-2.368,2.878-3.572,4.3c-1.003,1.184-1.915,2.417-2.474,3.888c-0.411,1.081-0.926,2.123-1.326,3.207
				c-0.329,0.892-0.547,1.824-0.834,2.732c-0.615,1.942-1.537,3.732-2.712,5.393C162.014,90.354,161.98,90.376,161.868,90.478z
				 M167.932,67.059c1.159-0.065,2.296-0.385,3.143-1.461c0.728-0.925,1.029-2.669,0.341-3.701c-1.095-1.642-2.607-2.11-4.359-1.593
				c-1.384,0.409-2.709,1.873-2.704,3.627c0.002,0.618,0.116,1.203,0.504,1.707C165.604,66.608,166.619,67.014,167.932,67.059z
				 M168.06,68.423c0.175-0.02,0.35-0.012,0.504-0.065c0.119-0.041,0.213-0.157,0.317-0.239c-0.119-0.033-0.242-0.103-0.357-0.092
				c-1.088,0.105-2.018-0.265-2.864-0.913c-0.125-0.096-0.271-0.164-0.408-0.245c0.055,0.164,0.109,0.329,0.167,0.492
				c0.008,0.022,0.033,0.039,0.054,0.055C166.244,67.99,167.106,68.329,168.06,68.423z M172.573,61.336
				c-0.136-0.148-0.249-0.377-0.414-0.425c-0.268-0.077-0.584,0.242-0.595,0.517c-0.011,0.263,0.205,0.491,0.478,0.488
				C172.369,61.913,172.478,61.704,172.573,61.336z M171.262,59.462c0.217,0.212,0.332,0.421,0.471,0.439
				c0.299,0.038,0.394-0.24,0.368-0.465c-0.017-0.146-0.202-0.274-0.311-0.41C171.646,59.145,171.502,59.264,171.262,59.462z
				 M172.823,61.245c0.249,0.184,0.373,0.346,0.515,0.365c0.258,0.034,0.431-0.161,0.389-0.403
				c-0.025-0.145-0.229-0.377-0.329-0.365C173.235,60.86,173.09,61.045,172.823,61.245z"/>
			<path fill="#FDD502" d="M142.105,86.372c-0.076-0.234-0.123-0.421-0.196-0.597c-0.444-1.074-1.13-1.985-1.907-2.836
				c-0.203-0.222-0.509-0.497-0.231-0.79c0.247-0.26,0.508,0.041,0.739,0.188c1.07,0.682,1.611,1.775,2.201,2.83
				c0.031,0.056,0.046,0.129,0.091,0.169c0.085,0.076,0.187,0.133,0.281,0.198c0.038-0.105,0.12-0.215,0.108-0.313
				c-0.117-0.973-0.396-1.883-1.091-2.618c-0.018-0.019-0.045-0.036-0.05-0.058c-0.032-0.155-0.058-0.311-0.086-0.467
				c0.178,0.021,0.398-0.017,0.524,0.075c0.246,0.179,0.458,0.415,0.649,0.654c1.197,1.493,1.816,3.243,2.231,5.081
				c0.014,0.063,0.014,0.138,0.049,0.185c0.385,0.514,0.133,0.972-0.088,1.458c-0.507,1.118-0.926,2.264-0.9,3.521
				c0.004,0.19-0.011,0.364-0.279,0.36c-0.95-0.016-1.659,0.442-2.263,1.134c-0.406,0.465-0.849,0.898-1.278,1.343
				c-0.062,0.065-0.126,0.149-0.205,0.172c-0.138,0.04-0.314,0.092-0.424,0.038c-0.082-0.04-0.147-0.262-0.111-0.365
				c0.085-0.246,0.202-0.496,0.363-0.699c0.503-0.635,1.08-1.217,1.543-1.879c0.942-1.344,0.992-2.739,0.186-4.202
				c-0.867-1.572-1.869-3.047-2.966-4.462c-0.124-0.16-0.234-0.349-0.287-0.541c-0.033-0.122,0.012-0.316,0.098-0.404
				c0.063-0.065,0.287-0.063,0.372,0c0.318,0.234,0.659,0.465,0.898,0.771c0.56,0.716,1.063,1.476,1.596,2.213
				c0.051,0.07,0.211,0.157,0.224,0.144C141.984,86.583,142.043,86.469,142.105,86.372z"/>
			<path fill="#FFFFFF" d="M157.161,64.025c-0.025-1.962,1.516-2.813,3.258-2.813c1.167,0,2.134,0.679,2.412,1.634
				c0.251,0.864-0.016,1.742-0.722,2.229c-0.922,0.635-1.862,1.245-2.8,1.858c-0.058,0.038-0.179,0.04-0.24,0.005
				c-0.957-0.545-1.662-1.292-1.885-2.412c-0.01-0.05-0.02-0.102-0.022-0.153C157.159,64.257,157.161,64.141,157.161,64.025z
				 M161.643,63.966c0.032-0.917-0.478-1.566-1.253-1.595c-0.919-0.034-1.761,0.761-1.799,1.699c-0.033,0.814,0.59,1.39,1.536,1.418
				C161.099,65.518,161.607,65.008,161.643,63.966z"/>
			<path fill="#718199" d="M175.272,63.726c-0.163,0.735-0.326,1.471-0.487,2.206c-0.1,0.457-0.479,0.551-0.828,0.506
				c-0.302-0.039-0.355,0.101-0.434,0.293c-0.333,0.809-0.677,1.613-0.992,2.429c-0.117,0.303-0.298,0.39-0.594,0.329
				c-0.227-0.047-0.455-0.084-0.684-0.121c-0.263-0.042-0.363-0.192-0.266-0.437c0.46-1.16,0.89-2.335,1.415-3.465
				c0.163-0.351,0.559-0.633,0.907-0.852c0.793-0.5,1.376-1.107,1.424-2.101c0.003-0.073,0.103-0.141,0.158-0.211
				c0.063,0.07,0.172,0.135,0.183,0.212c0.055,0.394,0.084,0.792,0.122,1.188C175.221,63.71,175.247,63.718,175.272,63.726z"/>
			<path fill="#718199" d="M175.378,62.401c0.625,0.214,1.009,0.598,1.318,1.062c0.445,0.668,0.644,1.331,0.14,2.099
				c-0.404,0.615-0.692,1.306-1.016,1.933c-0.296-0.396-0.548-0.725-0.789-1.061c-0.037-0.051-0.053-0.15-0.03-0.206
				C175.508,65.019,175.567,63.762,175.378,62.401z"/>
			<path fill="#718199" d="M177.413,65.126c0.196,0.757,0.107,1.449,0.024,2.132c-0.105,0.87-0.476,1.648-0.941,2.381
				c-0.067,0.105-0.211,0.202-0.333,0.223c-0.429,0.076-0.863,0.132-1.297,0.165c-0.15,0.011-0.306-0.068-0.564-0.132
				c0.178-0.116,0.271-0.155,0.335-0.222c0.281-0.292,0.599-0.562,0.817-0.897c0.327-0.501,0.583-1.048,0.865-1.577
				C176.674,66.534,177.023,65.866,177.413,65.126z"/>
			<path fill="#FDD502" d="M157.502,66.144c0.535,0.41,1.001,0.767,1.478,1.133c-0.871,1.317-1.615,2.687-1.533,4.345
				c-1.048-0.154-1.226-0.536-0.844-1.383c0.186-0.412,0.519-0.759,0.793-1.13c0.168-0.227,0.397-0.421,0.515-0.67
				c0.186-0.391,0.162-0.781-0.133-1.155c-0.168-0.213-0.259-0.495-0.343-0.759C157.401,66.417,157.476,66.275,157.502,66.144z"/>
			<path fill="#FFFFFF" d="M167.819,71.692c-0.413,0.278-0.853,0.439-1.352,0.201c-0.244-0.116-0.445-0.095-0.63,0.097
				c-0.229,0.237-0.506,0.291-0.817,0.221c-0.276-0.063-0.516-0.03-0.761,0.149c-0.277,0.202-0.592,0.171-0.855-0.057
				c-0.206-0.179-0.367-0.174-0.566,0.016c-0.284,0.272-0.635,0.299-0.962,0.106c-0.256-0.151-0.429-0.117-0.657,0.054
				c-0.431,0.324-0.952,0.244-1.326-0.187c0.093-0.026,0.17-0.059,0.248-0.069c1.993-0.25,3.986-0.506,5.981-0.74
				c0.433-0.051,0.875-0.031,1.312-0.023c0.131,0.002,0.261,0.074,0.391,0.114C167.823,71.613,167.821,71.653,167.819,71.692z"/>
			<path fill="#718199" d="M172.713,71.811c0.149-0.252,0.301-0.478,0.421-0.719c0.141-0.282,0.273-0.572,0.372-0.87
				c0.073-0.219,0.405-0.417,0.544-0.255c0.493,0.573,1.117,0.304,1.698,0.308c0.094,0.001,0.188-0.022,0.31-0.037
				C175.483,71.16,173.617,72.06,172.713,71.811z"/>
			<path fill="#FDD502" d="M183.212,92.014c-0.536,0.663-1.058,1.298-1.567,1.943c-0.143,0.181-0.275,0.237-0.484,0.111
				c-0.117-0.071-0.26-0.1-0.391-0.148C181.045,93.173,182.778,91.823,183.212,92.014z"/>
			<path fill="#778D93" d="M180.096,95.128c0.129-0.328,0.257-0.656,0.391-0.996c0.212,0.096,0.408,0.183,0.69,0.31
				c-0.364,0.274-0.678,0.511-0.993,0.747C180.155,95.169,180.125,95.148,180.096,95.128z"/>
			<path d="M167.932,67.059c-1.314-0.045-2.329-0.451-3.075-1.421c-0.388-0.504-0.502-1.089-0.504-1.707
				c-0.005-1.754,1.32-3.218,2.704-3.627c1.752-0.517,3.264-0.049,4.359,1.593c0.688,1.032,0.387,2.776-0.341,3.701
				C170.229,66.674,169.092,66.994,167.932,67.059z M168.03,66.777c0.217-0.043,0.604-0.126,0.994-0.194
				c1.38-0.241,2.384-1.685,2.479-2.977c0.121-1.654-1.271-2.883-2.497-3.13c-1.89-0.381-3.692,0.731-4.226,2.579
				c-0.276,0.956-0.196,1.879,0.541,2.666C166.013,66.457,166.882,66.714,168.03,66.777z"/>
			<path d="M168.06,68.423c-0.953-0.094-1.816-0.433-2.587-1.007c-0.02-0.015-0.046-0.033-0.054-0.055
				c-0.058-0.163-0.112-0.328-0.167-0.492c0.136,0.081,0.283,0.149,0.408,0.245c0.846,0.648,1.776,1.019,2.864,0.913
				c0.115-0.011,0.238,0.059,0.357,0.092c-0.105,0.082-0.198,0.198-0.317,0.239C168.409,68.41,168.234,68.403,168.06,68.423z"/>
			<path d="M172.573,61.336c-0.095,0.368-0.204,0.577-0.532,0.58c-0.273,0.003-0.488-0.225-0.478-0.488
				c0.011-0.274,0.328-0.594,0.595-0.517C172.324,60.958,172.437,61.188,172.573,61.336z"/>
			<path d="M171.262,59.462c0.24-0.198,0.384-0.317,0.528-0.435c0.11,0.136,0.295,0.263,0.311,0.41
				c0.026,0.225-0.069,0.503-0.368,0.465C171.594,59.883,171.479,59.674,171.262,59.462z"/>
			<path d="M172.823,61.245c0.266-0.2,0.411-0.386,0.574-0.404c0.101-0.011,0.304,0.22,0.329,0.365
				c0.043,0.243-0.131,0.438-0.389,0.403C173.196,61.591,173.072,61.429,172.823,61.245z"/>
			<path d="M161.643,63.966c-0.036,1.041-0.544,1.552-1.516,1.523c-0.945-0.028-1.569-0.604-1.536-1.418
				c0.038-0.938,0.88-1.733,1.799-1.699C161.165,62.4,161.675,63.049,161.643,63.966z"/>
			<path fill="#FFFFFF" d="M168.03,66.777c-1.149-0.063-2.018-0.32-2.709-1.057c-0.737-0.786-0.818-1.71-0.541-2.666
				c0.534-1.847,2.336-2.959,4.226-2.579c1.226,0.247,2.618,1.476,2.497,3.13c-0.094,1.292-1.099,2.736-2.479,2.977
				C168.634,66.651,168.248,66.734,168.03,66.777z M168.025,65.505c1.252,0.041,2.073-0.729,1.911-2.053
				c-0.06-0.488-0.212-0.985-0.679-1.246c-0.685-0.383-1.43-0.428-2.168-0.179c-0.6,0.203-0.931,0.645-1,1.294
				C165.982,64.316,166.548,65.548,168.025,65.505z"/>
			<path d="M168.025,65.505c-1.477,0.043-2.043-1.189-1.936-2.183c0.07-0.649,0.4-1.091,1-1.294c0.738-0.25,1.483-0.204,2.168,0.179
				c0.467,0.261,0.619,0.758,0.679,1.246C170.098,64.776,169.277,65.547,168.025,65.505z"/>
		</g>
		<path fill="#9B4122" d="M166.412,73.712c0.129-0.009,0.236-0.102,0.28-0.187c0.17-0.33,0.46-0.309,0.756-0.316
			c0.31-0.008,0.458,0.155,0.568,0.422c0.106,0.257,0.11,0.469-0.118,0.654c-0.06,0.048-0.109,0.11-0.165,0.163
			c-0.138,0.13-0.272,0.345-0.47,0.28c-0.183-0.06-0.073-0.297-0.1-0.453c-0.018-0.102-0.005-0.214-0.128-0.255
			c-0.136-0.045-0.229,0.039-0.291,0.137c-0.171,0.272-0.435,0.43-0.696,0.593c-0.205,0.128-0.44,0.157-0.599-0.033
			c-0.149-0.178-0.201-0.419-0.072-0.65c0.152-0.272,0.367-0.492,0.6-0.696c0.148-0.129,0.351-0.209,0.492-0.1
			c0.174,0.134-0.125,0.242-0.106,0.393c-0.012,0.02-0.04,0.049-0.034,0.058C166.359,73.771,166.387,73.741,166.412,73.712z"/>
	</g>
</g>
<path fill="none" stroke="#13110C" stroke-width="4.9632" d="M186.608,93.131c0-7.467-8.068-12.888-15.293-12.888
	c-7.223,0-15.283,5.516-15.283,12.888"/>
</svg>
