<?xml version="1.0" encoding="utf-8"?>
<!-- Generator: Adobe Illustrator 18.1.1, SVG Export Plug-In . SVG Version: 6.00 Build 0)  -->
<svg version="1.1" id="Слой_1" xmlns="http://www.w3.org/2000/svg" xmlns:xlink="http://www.w3.org/1999/xlink" x="0px" y="0px"
	 viewBox="0 0 1200 1200" enable-background="new 0 0 1200 1200" xml:space="preserve">
<polygon fill="#FFFFFF" points="667,458.4 737.5,380.2 732.1,485.4 954.5,428.9 759.1,550.5 837.3,621.1 732.1,615.7 781.2,825.2 
	667,642.7 596.4,720.8 601.8,615.7 438.4,646.4 574.8,550.5 496.7,480 601.8,485.4 571.1,305.4 "/>
<polygon fill="#FFFFFF" points="715.1,455.9 812.1,415.1 762.7,508 988,551.2 759.5,578.5 800.3,675.5 707.4,626.1 663,836.6 
	636.9,622.9 539.9,663.7 589.3,570.8 428.4,529.2 592.5,500.3 551.7,403.3 644.6,452.7 693.2,276.7 "/>
</svg>
