<?xml version="1.0" encoding="utf-8"?>
<!-- Generator: Adobe Illustrator 18.1.1, SVG Export Plug-In . SVG Version: 6.00 Build 0)  -->
<svg version="1.1" id="Capa_1" xmlns="http://www.w3.org/2000/svg" xmlns:xlink="http://www.w3.org/1999/xlink" x="0px" y="0px"
	 viewBox="0 0 841.9 595.3" enable-background="new 0 0 841.9 595.3" xml:space="preserve">
<g>
	<path fill="#151818" d="M390.1,260.7c-1.2-8.3-4-16.5-2.6-25.1c1.6-10.4,5.8-18.6,17-21.2c2-0.5,2.6-1.5,3-3.2
		c1.1-4.7,2.4-9.4,3.4-14.2c1.2-6,3.5-11.4,7.9-15.7c1.9-1.9,1.6-3-0.1-4.8c-5-5.5-8.9-11.8-12.2-18.4c-1.2-2.5-2.8-3.7-5.4-4.6
		c-8.5-2.9-14.4-8.7-17.8-17c-3.4-8.3-1.9-16.6,4.5-22.9c1.8-1.7,2.9-3.4,3.1-5.9c2.2-22.6,11.5-42.2,25.4-59.8
		c1.1-1.4,3.9-3.1,2.3-4.7c-1.7-1.6-3.3,1.3-4.5,2.5c-11.1,10.4-20.7,22.1-26.7,36.3c-2.3,5.6-3.4,11.4-3.9,17.3
		c-0.1,1.3-0.2,3-1.7,3c-1.5,0-1.5-1.7-1.4-3c0.4-5.4,1-10.8,2.8-15.9c9.5-26,28.3-43.8,51.3-57.8c27.9-17,58.7-20.5,90.2-17.6
		c45.5,4.2,80.5,28,110.1,61.3c1.6,1.8,4.1,3.6,3.4,6.7c-6.1-5.8-12.1-11.5-18.2-17.2c-0.5-0.4-0.9-1.2-1.6-0.5
		c-0.7,0.7,0.2,1.1,0.5,1.6c12.2,18.5,13.7,38.9,9.5,59.8c-1.7,8.6,0.2,15.1,5.3,21.5c2.8,3.5,5.6,7.1,7.8,11
		c4.5,8,3.1,14.7-3.7,20.7c-7.7,6.8-17.1,9.9-26.9,11.9c-4.6,1-7.3,2.6-7.7,7.7c-0.4,5.1-5.2,7.5-8.1,11.6c2.7,1.2,5.2,2.3,7.8,3.3
		c7.9,3,12.8,8.5,14.2,16.9c0.5,3.3,2,6.1,3.9,8.8c5.8,8,10.8,16.6,15,25.6c0.7,1.5,1.5,2.9,2.5,4.2c22.4,30.7,33.1,65.6,38,102.8
		c0.4,3.4,0.5,6.6-3,8.5c-2.9,1.6-2.2,3.3-0.4,5.1c3.1,3.2,6.4,6.4,9.4,9.7c3.6,3.9,6.2,8.3,3.5,13.6c-2.8,5.7-6.9,9.9-14,8.8
		c-2.8-0.4-3.4,0.6-3.4,3.1c0,3.4-0.2,6.9-0.7,10.2c-0.8,5-2.2,9.9-7.1,12.7c-0.9-0.8-1.8-1.6-2.6-2.4c5.4-4,6.1-9.9,6.5-15.9
		c0.4-5.9,1.4-12-5.2-15.5c-0.3-3.2,0.8-3.4,3.1-1.6c2.9,2.2,5.8,4.5,9.6,5c1.2,0.9,2.4,1.3,3.6,0.1l0.1,0c6.8-2.9,8.3-9.4,3.5-15.5
		c-3.1-4-7.8-6.6-10.2-11.1c-2.8-5.1-7.4-2.7-11.1-2.5c-3.4,0.2-1.2,4.1-1.9,6.2c-2.8,8.8-4.8,17.9-9.7,25.9c-0.7,0.2-1.4,0.3-2,0.5
		c0,0,0-0.1,0-0.1c0.4,0.3,0.7,0.5,1.1,0.8c-0.1,0.3-0.1,0.7,0,1c-0.3,0.4-0.7,0.8-1,1.2c-1.1-0.2-2.1-0.5-2.5-1.7
		c2-4.6,4-9.2,6.1-13.8c1.1,0.1,2.2,0.2,2.5-1.2c0.2-1-0.5-1.6-1.4-2c1.2-3.9,2.4-7.9,3.5-11.8c0.8-0.1,1.9,0.2,1.9-1
		c0-0.3-1-0.7-1.5-1c-0.2-1.2-0.1-2.5,0.7-3.5c0.1-0.7,0.1-1.3,0.2-2c0.1-2.9,0.3-5.7,0.4-8.6c4.4,0.1,2.2,3.7,3.1,5.7
		c2.9,3.4,6.2,0.7,9.3,0.7c0.7-0.1,1.4-0.3,2.1-0.4c2.8-2.3,5.1-4.6,4.3-9c-4.9-27.5-12.3-54.3-24.8-79.4c-0.7-1.5-0.9-3.5-3.5-4.2
		c3,9.7,6,19.2,7.1,29.1c-0.4,2.3-0.8,4.6-1.3,6.8c-0.9-1.4-1.1-2.9-1-4.5c-0.1-1.5,0.5-3.2-1.1-4.4c-0.3-1-0.8-2-1-3
		c-5.4-21.2-12.4-41.8-23.5-60.8c-0.9-1.5-1.2-3.8-3.9-4.3c-0.2,4.4,0.7,8.7-0.4,13c-0.3,1.2,0,2.8-1.6,3.2c-1.4,0.3-2.3-0.9-3-1.9
		c-3-4.1-5.7-8.3-8.8-12.3c-10.2-13.5-11.3-13.5-21.9,0.2c-2.1,2.2-4.3,4.2-6.3,6.5c-5.7,6.6-5.6,6.6-11.9,1c-4.3-5-5.8-5.1-8.5-0.5
		c-1,1.7-0.4,3.3,0.1,4.7c2.5,6.8,0.5,12.7-3.6,18.2c-26.8,35.9-61,55-107.1,46.9c-11.3-4.1-21.3-10.1-30.3-18.1
		c-9.2-8.2-16.2-18.1-22.5-28.6c-1.2-2.3-2.3-4.7-3.5-7C391.1,262.9,391.3,261.6,390.1,260.7z M451.8,41.1c0.4-0.4,0.8-0.8,1.2-1.2
		c5-5.6,9.9-11.2,15.2-17.1c-3.2-0.7-4.6,0.9-6.3,1.8c-4.7,2.5-8,6.6-12,9.9c-16,13.1-28.9,28.3-32.9,49.4c-2.6,1.1-2.6,3.5-3.2,5.7
		c-1.5,5.5-3,10.9-4.5,16.4c-0.6-0.2-1.1-0.4-1.7-0.6c0.7-18.8,8.1-35.4,18.7-50.9c10.7-15.6,24.8-27.6,41.5-37.6
		c-3.4-1.8-5.4-0.4-7.3,0.3c-16.6,6.3-28.9,18-40,31.3c-13.6,16.4-23.3,34.6-25.9,56.2c-0.4,3.6-0.8,6,4.5,5.6
		c5.8-0.4,10.7,2.7,15.9,7.2c-4.7,0.9-6.9-1.6-9.7-2.6c-5.8-2.1-11.1-1.3-15.8,2.5c-4.6,3.7-5.2,8.8-4,14.3
		c3.3,14.4,16,21.2,31.3,16.6c0.2,0.7,0.3,1.4,0.5,2.1c-0.3,0.1-0.4,0.3-0.5,0.6c-2.7,1.1-5.4,2.3-8.2,3.5
		c8.7,16.1,20.6,28.6,36.6,37c13.6,8.5,28.6,13.3,44.4,15.8c1.2,0.2,2.6,0.8,3.5-0.5c1.9-2.8,4.3-2.2,6.7-1.3
		c3.7,1.3,4.8-0.2,4.7-3.7c-0.1-5.2,0.2-10.4,0.2-15.7c0-1.6,0.4-3.5-1.7-4.1c-4-1.1-7.9-2.6-12-3c-2.7-0.2-3,3.6-4.9,5.3
		c-0.4,0.4-0.7,0.8-1.1,1.2c-0.9,0.7-2,1.2-2.9,0.2c-0.8-0.9,0.3-1.4,0.9-2.1c3.7-4.7,5.9-9.9,5.5-16c-0.1-1-0.5-2.4,0.9-2.8
		c1.7-0.4,2,1.3,2.3,2.4c0.4,1.2,0.8,2.6,0.4,3.7c-1.5,4.1,1,5,4.1,5.5c1.9,0.4,3.9,0.8,5.8,1.2c1.6,0.3,2.9,0.3,3.3-1.6
		c2.4-10.4,9.6-17.5,17.3-24.1c2-1.7,3.1-3.4,2.7-6.4c-0.6-4.8,1.9-7.8,6.3-8.7c-0.4,1-0.7,1.8-1.1,2.5c-1.2,2.2-3.3,4.9-1.3,6.9
		c1.6,1.7,3.8-1,5.6-1.8c9.3-4.2,12.4-3.8,19.2,3c1.8,7.2,6.9,6.9,12.4,5.5c1.9-0.5,3.9-0.9,5.7-1.7c8-3.4,9.9-10.4,4.9-18
		c-2.3-3.9-6-5.5-10.1-6.6c-5.7-1.5-11.4-1.2-17.2-0.9c-1.3,0.1-3.3,1-3.5-1.1c-0.1-1.8,2.1-1.8,3.3-1.9c5.2-0.7,10.4-1,15.6,0.1
		c8.9,1.9,16.3,5.7,18.4,15.7c-1,10-4.9,15.1-13.5,17.2c-3.1,0.8-6.4,1.1-9.6,1.3c-7.4,0.5-17.5,9.7-18.6,17.3
		c0.5-0.2,1.1-0.2,1.5-0.5c14.3-7.3,18.7-6.1,26.8,8c1,1.8,2.2,2.1,3.8,2.1c17.2,0.6,34.1-0.4,50.4-7.5c18.1-7.9,20.8-15.2,7.9-30.2
		c-8.3-9.6-10.1-20-7.1-30.9c3-10.8,0.8-21.1-1.1-31.2c-2.3-12.7-8.6-23.8-18.1-33.1c-8-7.9-17.2-14.2-26.1-20.8
		c-0.9-0.7-2.1-0.8-3.2-1.1c9.1,8.9,18.8,16.8,25.1,27.7c1.8,3,4.3,6,3,10c-2.5-1-2.7-3.6-3.9-5.5c-3.6-5.6-6.6-11.6-12.7-15.1
		c0,0-0.1,0-0.1,0c-0.2-0.6-0.3-1.3-0.5-1.9c-4.5-4.8-8.9-9.8-15.5-12c6,8.1,11.3,16.3,15.3,25.4c1.2,2.9,3.1,5.7,2.4,9.1
		c-3-0.5-3.1-3.2-4-5.2c-6.1-13.3-13.7-25.3-26-33.9c-3.2-5.2-8.3-7.4-13.8-9.2c7.3,8.3,14.1,16.9,19.3,26.6
		c3.1,5.9,5.5,12.1,7.3,18.4c0.4,1.3,1.7,4.5-2,2c-5.5-14.8-12.3-28.7-23.5-40.2l-0.1-0.1c0.1-0.3,0-0.5-0.3-0.6
		c-4.4-5.2-7.4-7.6-11.7-9.2c0,0.3,0,0.7,0.1,1c0.6,1.1,1.3,2.2,1.9,3.3c7.4,14.5,12.6,29.7,14.1,46.1c-3.7,2.9-3.3-0.7-3.6-2.5
		c-2.4-13.3-5.5-26.4-11.9-38.5c-1.5-3.3-3-6.6-5.9-10.1c-0.7,16.7-4.5,32-4.2,47.8c-1.7,2.2-2.7,1.3-3.1-0.8
		c-0.3-1.9-0.2-3.9,0-5.9c0.9-9.3,1.8-18.6,2.7-27.8c1-4.3,1.1-8.7,0.9-14.6c-10.9,13-17.1,26.8-21.3,41.6c-0.7,3.2,1,6.8-1.8,9.7
		c-2.3-1.4-1.5-3.4-1.4-5.3c1-10.1,4.7-19.5,8.6-28.7c3.3-5.3,6.6-10.6,10-16.2c-15.6,0.8-36.6,26.6-38.3,46.1
		c-1.3,2.5-1.2,5.2-1.2,7.9c0,1.1,0.6,2.9-1.4,2.8c-1.5-0.1-1.9-1.5-1.8-2.9c0.1-2.3,0.2-4.7,0.4-7c0.9-7.4,4-14.2,6.2-21.2l0,0
		c0.7-0.7,1.4-1.4,2.2-2.1c5.8-9,13.8-16.1,22-24c-21.1,2.7-48,38.3-52.4,68.2c-1.2,1.2-1,3.9-3.5,3.8c0.1-1.8-0.1-3.6,0.3-5.3
		c3.8-17.4,10.8-33.3,22.6-46.9c1.1-1.3,2.8-2.4,2.7-4.5c7-6.1,14.4-11.5,21.7-17.2c-12.2,0.9-21.6,7.1-29.7,15.8
		c-6,2.6-9.5,8-13.3,12.8c-14.3,18.1-21.8,39-25.2,61.6c-0.3,1.9,0.2,4.3-2.7,5.9c-1.1-10.6,1.7-20.1,4.4-29.6
		c3.6-12.6,10.2-23.7,16.7-35l0.1-0.1c1.2-0.2,1.6-1.2,1.9-2.2C452,41.1,451.8,41.1,451.8,41.1z M429.2,185.9
		c-5.8-5.6-6.5-5.5-10.3,1.2c-2,3.6-3.5,7.5-4.5,11.5c-1,4-0.7,7.4,2.7,10.1c12.6,16,29.1,26.6,47.9,34c2.2,0.9,4,0.8,5.8-1.2
		c7.4-8.7,14.1-17.8,19.3-28c1.3-2.5,0.9-3.5-2-3.6c-5.8-0.3-11.4-1.6-17-3C455.4,202.9,442.1,194.9,429.2,185.9z M393,254.4
		L393,254.4c0.1,4.5,1.8,8.5,3.8,12.3c7.7,15.2,18.1,28.1,32.1,37.9c11.3,8,24,13.3,37.9,12c36.9-3.5,66.3-20.1,86.6-51.7
		c1.1-1.6,2.1-3.2,1.6-5.5c-1.1-5.3-2.3-10.5-5.5-15c-10.4-18.5-27-28.2-46.9-33.5c-4-2.4-6.4-1.1-8.4,2.9
		c-5.8,11.8-12.8,22.9-22.5,32c-4.7,4.5-9.8,8.4-16.6,9.2c-0.1-3,3.2-2.6,4.3-4.5c2-0.8,4.6-1.9,4.6-4c0-2.1-3-1.8-4.7-2.5
		c-11-4.6-21.2-10.5-30.4-18.2c-3.2-2.7-6.4-5.2-10.1-7.2c-7.8-4.1-24,0.1-25.7,9.6l0.1,0.4c-1.4,1.4-1.1,3.2-1.1,4.9
		c-1.9,6.6-1,13.1,0.5,19.6C392.4,253.7,392.4,254.1,393,254.4z M538,180.2c-1.6-2.2-0.8-4.5-0.2-6.7c1.8-6.4,6.2-10.8,11.2-14.8
		c5.2-4.1,5.1-6.1,0.2-10.7c-3.1-3.6-6.6-3.4-10.6-1.5c-6.9,3.3-13.1,7.5-18.7,12.7c-7.8,7.2-12,16-11.7,26.8c0.2,6.5,0.1,13,0,19.4
		c0,2,0.5,2.9,2.4,3.5c14.1,4.8,26,13.1,36.3,23.6c2.3,3.2,4.7,6.3,6.8,9.7c1.7,2.7,3.1,2.6,4.8,0.2c4.2-5.9,7.1-12.1,5.2-19.6
		c-1.7-7,0.3-11.6,6.1-15.6c1.1-0.7,2.2-2.4,3.6-0.5c1,1.5-0.4,2.3-1.3,3c-2.3,1.9-4.6,3.8-5.1,7.4c12-4.4,16.1-17.9,8.3-25.9
		c-4.2-4.1-9.5-4.5-16.2-1.2c-2.1,1-4,2.7-6.2,3.3c-3.4,1-2.7-0.9-1.5-2.7c4-2.3,8-4.8,12.5-6.2c2.7-0.8,3.1-2.3,1.5-4.4
		c-1.2-1.5-1.2-3.9-3.4-4.6c-4.4-4.2-9.1-2.8-13.8-0.6C544.7,176.4,542.1,179.7,538,180.2z M578,187.2c1.6,3.2,3,5.3,3.8,7.6
		c3.1,9.1-1,18.6-10.7,24.7c-2.8,1.8-4,3.4-3.5,6.8c0.6,3.8-0.5,7.6-2.2,11c-1.3,2.5-1.2,4.3,1.3,6c1.4,1,2.7,2.4,3.8,3.8
		c1.5,2.1,2.7,1.7,4.2,0c3.7-4.4,7.4-8.9,11.5-12.9c2.8-2.7,3.1-4.8,0.7-7.7c-4.9-5.9-4.9-12.1-1-18.5c1.9-3.1,4.9-5.3,7.6-7.6
		c3.3-2.7,5.8-5.9,6.8-10.1c0.5-2.2,0.2-3.3-2.5-3.3C591.4,187.3,585.1,187.2,578,187.2z M586.3,216.3c0,2.9,3.1,10.3,5.1,10.9
		c3.7,1.1,4.7-3.1,7.3-4.3c0.5-0.2,0.9-0.6,1.3-1c2.5-2.5,7.5-4.8,6.8-7.5c-0.9-3.5-6.1-4.5-9.8-5.8
		C589.9,206.3,586.4,208.9,586.3,216.3z M617.1,249.6c-0.2-8.4-1.3-15-2.9-21.5c-0.8-3.5-1-9.2-3.7-9.5c-3.7-0.5-6.5,4.3-9.5,7
		c-1.1,1-1.5,2-0.3,3.2C606.4,234.9,611.2,241.7,617.1,249.6z"/>
	<path fill="#13181C" d="M390.1,260.7c1.3,0.9,1,2.2,1,3.5c-11.2,13.8-16.5,29.7-17.3,47.3c-0.3,5.1,1.3,7.8,6.4,8.4
		c10,4.6,20.5,7.8,31.1,10.8c51.8,14.4,104.5,22.3,158.2,17.8c11.3-0.9,22.8-2.3,34.2-3.9c5-0.7,10.1-0.8,14.9-2.4
		c3.2-1.2,4.9,2.9,8.4,2c7.3-1.9,14.7-3.1,22.1-4.5c3.5-0.6,4.7-2.5,4.2-6c-0.9-5.8-1.6-11.7-2.3-17.6c0.4-2.3,0.8-4.6,1.3-6.8
		c0.3,0.8,0.7,1.5,1,2.3c1,6.7,2.1,13.4,3.1,20.1c0.3,1.9-0.1,4.1,1.3,5.7c3.8,4.2,3.7,9.5,4.4,14.6c1.1,7.5-4.8,13.3-4.4,20.6
		c-0.9-2,1.4-5.6-3.1-5.7c-1.3-2.1-3-0.6-4.3-0.1c-9.6,3.6-20.2,3.2-29.6,8.1c-4.9,2.5-11.1,2.5-16.8,3.6c-2.4,0.1-4.7,0.2-7.1,0.4
		c-0.7,0-1.5,0-2.2,0c-2.5-0.1-5.1-0.1-7.6-0.2c-4.9-0.8-9.8-2.3-14.8-2.4c-18.5-0.2-37,0-55.5,0.1c-1.2-0.2-2.5-0.4-3.7-0.5
		c-12.4-0.4-24.8-1.3-37.1-3.2c-30-4.6-59.9-10.2-88.7-20.1c-3.9-1.7-7.8-3.5-12.3-5.5c0,2.2-0.1,3.8,0,5.4
		c1.6,16.6,4.9,32.8,14.5,46.9c2.9,4.3,5.7,8.7,8.5,13.2c5.2,8.2,7.9,17.2,8.6,26.9c2.3,29.6-0.4,58.6-8.5,87.2
		c-1,3.5-0.2,5.3,2.7,7c5.5,3.1,11.1,6,17.3,7.3c14.1,4.5,28.7,5.8,43.4,4.8c0.7-0.1,1.4-0.2,2.1-0.3c0.4,0,0.7,0,1.1,0
		c12.6-0.2,24.5-3.3,36-8.4c6.8-3,7.8-5.4,5.5-12.6c-0.7-2.1-1.6-4-2.2-6.1c-5.1-17.2-4.9-34.1,2.9-50.5c0.7-1.5,1.5-4.1,3.5-3.3
		c2.2,0.9,0.7,3.2-0.1,4.7c-1.7,3.3-0.5,4.3,2.8,4.6c6.5,0.6,12.9,0.9,19.4,0.6c17.8-1.1,34.5-6.8,51.3-12.2
		c-2.4,4.3-7.5,4.5-10.9,7.1c-8.3,2.4-16.5,5-24.8,7.1c-3.1,0.8-3.9,2-3.3,5.1c1.9,10.6,1.1,21-1.9,31.4c-3.8,12.9-2.1,15.3,11,19.1
		c19.2,5.9,38.6,6.1,58.1,1.5c7.9-1.2,15.2-4.2,22.5-7.3c3.6-1.5,4.6-3,3.5-7.2c-7.2-26.5-8.9-53.4-6.3-80.6c2.1,0.8,3.8,2,4,4.4
		c-2,8.9-1.2,17.9-0.9,26.8c0.6,17.5,0.6,35.1,7.4,51.6c1.3,3.2-1.2,4.5-3,6.8c6.7,1.5,13,2.9,19.4,4.5c11.8,2.9,22.9,7.4,33.1,14.1
		c2.3,1.5,4.4,3.1,6.1,5.3c7,8.9,4.4,18.9-6.4,22.3c-12,3.8-24.5,4.2-36.9,4.6c-27,0.8-53.6-2.7-80-7.9c-2.1-0.4-4.2-0.8-6.4-0.3
		c0,0.3-0.2,0.7-0.1,0.9c7.5,10,3.8,22.6-14.1,23.7c-36.9,2.2-73.1-1.3-108.8-11c-14.4-3.9-28.7-8.4-42.3-14.8
		c-12.9-6-15.2-16.5-5.8-27.5c1-1.2,2.3-2.3,3.4-3.4c-0.2-0.4-0.3-0.8-0.6-1c-7.3-5.1-7.2-5.1-5.2-13.8c6.2-27.4,9.2-55.1,7.6-83.2
		c-0.5-9.2-3.1-17.5-8.4-25.3c-10.1-15-18.5-31-21.5-49.1c-0.6-3.7-1.1-7.5-1.3-11.3c-0.3-4.6-0.5-8.6-3.2-13.1
		c-3.4-5.7-2.8-13.1,0.4-19.3c2-3.9,2.3-7.8,2.4-11.9C371.1,291.5,377.5,274.9,390.1,260.7z M583.7,374.2c6.2,1.3,12.5,0.6,18.8,0.2
		c19.1-1.3,21.8-4.8,18.2-24c0.3-2.7,0-4.7-3.6-4.1c-11.7,1.9-23.5,3.1-35.3,3.2c-2.6,0-2.9,1.1-2.6,3.3c0.8,5.5,0.5,11.1-0.2,16.6
		C578.4,373.6,579.9,374.8,583.7,374.2z M689,570.6c9.5-2.1,11.5-7.1,5.8-14.9c-3.4-4.6-7.9-7.7-12.9-10.4
		c-14-7.4-29.2-11-44.7-13.9c-3.3-0.6-6.3-0.1-9.5,1.1c-26,9.2-52.2,11.8-78.5,1.2c-4.3-1.8-6.3-0.9-7.7,3.1
		c-5.5,9.9-4.6,13.2,4.8,18.4c2.8,1.6,5.6,3.3,8.4,5c3.4,2,6.4,4.3,10.5,5.3c22.4,5.2,45.2,7.5,68,9.1
		C651.9,575.8,670.7,575.9,689,570.6z M558.2,590.4c9.7-2.2,12-8.1,6.1-16c-1.7-2.3-3.9-4.3-6.1-6.1c-15.5-13-34.2-19.7-53-26.1
		c-2.2-0.7-4.2-0.2-6.3,0.5c-30.6,9.9-61.2,10.7-91.4-1.7c-2.4-1-4.1-1-5.6,1.1c-10.1,10.2-9,18.7,3.9,24.2
		c28.5,12.2,58.2,19.9,88.9,23.6C515.8,592.3,537,593.1,558.2,590.4z M539.8,372.6c7.2,0,14.4,0.2,21.6,0c15.3-0.6,15.2-0.7,14.8-16
		c-0.1-4.1-1.4-5.2-5.4-4.8c-26.6,2.1-53.1,0.9-79.6-2c-39.4-4.3-77.9-12.6-114.9-27c-1.1-0.4-2.2-1.3-3.5-0.3
		c-5.1,3.7-3.7,17.7,2.3,20.5c11.1,5.2,22.5,9.8,34.4,13C452.1,367.2,495.6,372.7,539.8,372.6z M534.9,548.9
		c-0.1-5,0.2-9.3,2.5-12.8c2.2-3.5,3.4-6.3,0.6-10.2c-1.8-2.4-1.1-5.9-0.1-8.9c3.8-11.4,3.8-23,2.8-34.8c-0.3-3.5-1.7-4-4.8-3.8
		c-7.7,0.5-15.6,0.9-23.2-0.6c-4.3-0.8-5.8,0.3-6.5,4.2c-2.1,12-3.2,23.9,1.3,35.7c1.6,4.2,2.7,8.6,3.2,13.1
		c0.3,3.2,0.2,6.1-4.1,7.8C516.3,542.2,525.2,545.4,534.9,548.9z M625.2,358.3c0,1.5,0.1,4,0,6.5c-0.1,2.6,0.9,3.5,3.5,3.1
		c8.7-1.3,17.4-2.7,25.7-6c1.8-0.7,3.7-1.5,4-3.9c0.5-4.3,0.7-8.6-0.4-12.9c-0.7-2.8-2.1-3.7-5.1-2.9c-6.1,1.6-12.2,2.9-18.4,4
		C624.9,348,624.9,347.9,625.2,358.3z"/>
	<path fill="#151818" d="M635.7,442.7c-0.3-2.5-1.9-3.6-4-4.4c0-1.5-0.1-2.9-0.1-4.4c0.1-0.1,0.1-0.3,0.2-0.4
		c-0.1,0.1-0.2,0.3-0.2,0.4c-4.8,3.1-7.5,9.4-14.3,9.8c5.1-4.5,9.6-9.4,14.1-14.4c0.2,0.8,0.1,1.8,1.2,1.9c0.2,0,0.7-0.3,0.8-0.5
		c0.4-1.2-0.3-1.9-1.4-2.4c0.8-1,1.5-2.1,2.3-3.1c0.2-0.2,0.3-0.4,0.4-0.6c1.4-2.3,2.9-4.6,4.3-6.9c1.1,0,2.3,0,3.4,0
		c0,0.5-0.1,1.1-0.1,1.6c-0.4,0.5-0.8,1-1.2,1.6c-0.9,0.4-1.1,1.2-1.2,2.1c-1.2,1.7-3,3.3-3.5,5.2c-1,3.5-2.6,7.6-0.1,10.6
		c1.5,1.9,4.9,1.4,7.2-0.5c1.1-0.8,2.1-1.6,3.2-2.4c0,1.1,0,2.3,0.1,3.4C643.9,443.2,640.4,444.9,635.7,442.7z"/>
	<path fill="#151818" d="M655.3,439.3c-2.5,0.7-4.6-0.3-6.6-1.6c0.1-1.5-0.3-2.6-2.1-2.7c0-6.2,0.2-12.5,0-18.7
		c-0.1-2,1.4-2.7,2.2-3.9c2.2,1.2,1.6,3.4,1.6,5.3c0.1,4.1-0.2,8.2-0.3,12.3c0,2.1-0.3,4.5,2.5,5.2c1.3,1.1,2.5,1.2,3.7-0.1l0,0
		c0.3,0.2,0.7,0.2,1,0.2C657.4,437,655.1,437.5,655.3,439.3z"/>
	<path fill="#13181C" d="M655.3,439.3c-0.2-1.8,2.1-2.3,2.2-4c0.2-0.3,0.6-0.4,0.9-0.4c0.9,0.8,1.8,1.6,2.6,2.4
		C659.4,438.9,657.6,439.8,655.3,439.3z"/>
	<path fill="#13181C" d="M646.7,435c1.7,0.1,2.1,1.2,2.1,2.7c-0.7,0.5-1.4,1-2.1,1.6c0-1.1,0-2.3-0.1-3.4
		C646.5,435.6,646.6,435.3,646.7,435z"/>
	<path fill="#F7CF22" d="M450,43.4c-6.5,11.2-13.1,22.4-16.7,35c-2.7,9.5-5.5,18.9-4.4,29.6c2.9-1.6,2.4-4,2.7-5.9
		c3.4-22.6,10.9-43.5,25.2-61.6c3.8-4.8,7.3-10.2,13.3-12.8c0.2,1.9-1.1,2.9-2.2,4.1c-17.7,18.9-28.4,41.4-33.2,66.7
		c-0.7,3.6-1,7.5,0.8,11.7c1.6-2.4,2.1-4.2,2.3-6.2c1.1-10.7,4.5-21,8.1-31c5.4-14.7,14.2-27.6,24.9-39.1c2-2.1,3.9-4.8,7.4-4.8
		c0.1,2.1-1.6,3.2-2.7,4.5c-11.8,13.6-18.7,29.5-22.6,46.9c-0.4,1.7-0.2,3.6-0.3,5.3c2.6,0.1,2.3-2.6,3.5-3.8c1.3,0.9,1.7,2.3,2,3.7
		c0.3,1.2-0.7,3.4,1.5,3.3c1.7-0.1,1.5-2.1,1.9-3.5c2.6-9.8,4.6-19.8,9.6-28.8c3.5-6.3,6.4-13.1,13.2-16.8c-2.2,7-5.4,13.8-6.2,21.2
		c-0.3,2.3-0.3,4.6-0.4,7c-0.1,1.4,0.4,2.7,1.8,2.9c2.1,0.1,1.4-1.7,1.4-2.8c0-2.7-0.1-5.4,1.2-7.9c2.4,0.3,2.4,2.1,1.8,3.6
		c-0.9,2-0.4,3.8-0.3,5.8c0,1.9-0.1,4.1,2.1,4c2,0,1.8-2.4,1.8-3.9c-0.2-15.1,6.9-27.2,15.8-38.6c1.8-2.3,3.6-5.1,7-5.6l0,0
		c0.1,1.6,0.1,3.2,0.2,4.8c-4,9.3-7.6,18.6-8.6,28.7c-0.2,1.9-0.9,3.9,1.4,5.3c2.8-2.8,1.1-6.5,1.8-9.7c2.9-0.3,3.1,1.5,3.1,3.8
		c0.1,2.5-0.6,5.2,0.7,7.8c2.3-1.2,2.4-3,2.5-4.8c1-11.6,5.9-21.8,11-32c0.6-1.2,1.7-1.8,3.1-1.8c-0.9,9.3-1.9,18.5-2.7,27.8
		c-0.2,2-0.2,4,0,5.9c0.3,2.1,1.4,3,3.1,0.8c2.8-1,1.7,5.6,5.1,2.8c2.3-1.9,0.7-5.1,1-7.7c1.4-10.9,2.7-21.9,4.1-32.8
		c6.4,12.1,9.5,25.2,11.9,38.5c0.3,1.8-0.1,5.4,3.6,2.5c0.6-0.2,1.6-0.7,1.9,0c0.5,1.8,0.6,3.9,3.3,2.8c2-0.8,1.4-2.9,1.1-4.3
		c-2.2-11-4.9-22-8.9-32.5c-0.8-2.2-2.3-4-1.3-6.5c11.2,11.5,18,25.4,23.5,40.2c-0.1,2,1.5,3.1,2.6,2.2c2.4-2.2,3.6,0.1,5,1
		c1.2-1.2,1-2.3,0.7-3.3c-3.6-11.9-8.7-23-16.9-32.5c-1.4-1.6-2.6-3-2.1-5.2c12.3,8.5,19.9,20.6,26,33.9c0.9,2,1,4.7,4,5.2
		c2.3-0.5,3.8,1.7,6.7,1.9c-0.5-4.1-1.9-7.5-3.7-10.9c-2-3.7-5.3-6.9-4.6-11.7c6.1,3.4,9.1,9.5,12.7,15.1c1.2,1.9,1.4,4.5,3.9,5.5
		c4.7,3.3,5,8.6,6.3,13.5c0,0.1-1.2,0.6-1.8,0.9c-3.1-1-6.1-2.4-9.2-3c-15-3-29.7,4.9-31.9,16.9c-2.8,15.4,7.1,29.9,22.2,32.3
		c7.8,1.2,14.5-1.7,20.9-5.6c-0.9,8.7,3.1,15.6,8.5,21.9c2.5,2.9,4.3,6.1,6,9.5c3.3,6.6,2.9,10.6-3.1,15
		c-9.9,7.2-21.4,10.5-33.3,12.7c-5.6,1-9.7,0.3-11.8-5.6c-0.4-1.1-1.7-1.8-2.6-2.7c-2.6-2.5-5.3-5-8.4-7.9c3.9-0.9,7.1-1.6,10.2-2.4
		c8.5-2.1,13-16.6,7.3-23.8c-0.1-0.1-0.3-0.1-0.5-0.2c-2-10-9.4-13.8-18.4-15.7c-5.1-1.1-10.4-0.8-15.6-0.1
		c-1.3,0.2-3.5,0.1-3.3,1.9c0.2,2.1,2.1,1.2,3.5,1.1c5.7-0.2,11.5-0.6,17.2,0.9c4.1,1.1,7.8,2.7,10.1,6.6c1.3,4,0,6.7-3.3,9.5
		c-5.9,5.1-12.8,4.5-19.7,4.7c-6.8-6.8-9.9-7.2-19.2-3c-1.8,0.8-4,3.5-5.6,1.8c-1.9-2,0.2-4.7,1.3-6.9c0.4-0.7,0.7-1.5,1.1-2.5
		c-4.4,0.9-6.9,3.9-6.3,8.7c0.3,3-0.7,4.6-2.7,6.4c-7.7,6.7-14.9,13.7-17.3,24.1c-0.5,2-1.8,2-3.3,1.6c-1.9-0.4-3.9-0.9-5.8-1.2
		c-3.1-0.6-5.6-1.4-4.1-5.5c0.4-1.1-0.1-2.5-0.4-3.7c-0.3-1.1-0.7-2.7-2.3-2.4c-1.4,0.3-0.9,1.8-0.9,2.8c0.4,6.1-1.8,11.3-5.5,16
		c-0.5,0.7-1.6,1.2-0.9,2.1c0.8,1,2,0.5,2.9-0.2c0.4-0.3,0.7-0.8,1.1-1.2c1.8-1.6,2.1-5.5,4.9-5.3c4.1,0.3,8,1.8,12,3
		c2.1,0.6,1.7,2.5,1.7,4.1c0,5.2-0.3,10.4-0.2,15.7c0.1,3.5-1,5-4.7,3.7c-2.4-0.9-4.9-1.5-6.7,1.3c-0.9,1.3-2.3,0.6-3.5,0.5
		c-15.8-2.4-30.8-7.2-44.4-15.8c0-1.3-0.1-2.4-1.4-3.2c-9.8-6.6-15.8-16.6-22.3-26.1c-2.2-3.2-5-6.7-4.6-11.2c0-0.3,0.2-0.5,0.5-0.6
		c0.5-0.4,1.4-0.7,1.4-1.1c-0.1-1.1-1.1-1-1.9-1c-15.3,4.5-28-2.2-31.3-16.6c-1.2-5.5-0.7-10.6,4-14.3c4.7-3.7,10-4.6,15.8-2.5
		c2.7,1,5,3.5,9.7,2.6c-5.2-4.5-10.1-7.6-15.9-7.2c-5.3,0.4-4.9-2-4.5-5.6c2.6-21.5,12.3-39.7,25.9-56.2c11-13.3,23.4-25,40-31.3
		c1.9-0.7,3.9-2.1,7.3-0.3c-16.7,9.9-30.8,21.9-41.5,37.6c-10.5,15.5-18,32-18.7,50.9c0.6,0.2,1.1,0.4,1.7,0.6
		c1.5-5.5,3-10.9,4.5-16.4c0.6-2.2,0.6-4.7,3.2-5.7c-1.2,6.7-2.4,13.3-3.7,20c-0.3,1.6-1.1,3.8,0.7,4.3c2.4,0.7,1.9-1.9,2.2-3.3
		c4.6-18.2,10.4-35.8,22.5-50.6C442,50.1,444.3,44.9,450,43.4z M403.1,140.5c3.1-1.7,0-2.8-0.5-3.8c-1-2.1-2.9-4.3-1.6-6.4
		c1.4-2.3,3.4,0.6,5.3,0.4c0.5,0,0.9-0.3,1.4-0.5c-3.4-4.4-8.5-5.7-12.6-3.4c-3.2,1.8-4,4.9-1.7,6.9
		C394.6,138.8,397.4,141.6,403.1,140.5z M541.4,97.7c-6.1-17.1-20-24.5-38-20.3c-14.8,3.5-23.4,17.5-19.8,32.2
		c3.1,12.7,14.2,21.8,27.2,22.5c15.1,0.7,25.1-5.8,30.3-19.9c3.3-4.6,1-9.7,1.4-14.6C542.5,97.1,541.7,97.2,541.4,97.7z"/>
	<path fill="#98D5D8" d="M618.6,342c-4.8,1.6-9.9,1.7-14.9,2.4c-11.4,1.6-22.9,2.9-34.2,3.9c-53.7,4.5-106.4-3.4-158.2-17.8
		c-10.6-2.9-21.1-6.1-31.1-10.8c0.7-6.5,0.5-12.9,1.8-19.5c2.1-10.9,6.6-20.2,12.6-29.2c6.2,10.5,13.3,20.4,22.5,28.6
		c9,8,19.1,14,30.3,18.1c1.1,1.7,2.9,1.9,4.6,2.4c16.5,4.5,33,2.9,49.7,1.3c28.1-2.8,50.7-14.7,67.7-37.3c7.1-9.4,6.2-20.2-1.9-26.3
		c-3.8-2.9-5-5.8-0.9-9.4c6.2,5.7,6.2,5.6,11.9-1c2-2.3,4.2-4.3,6.3-6.5c12.1,13.6,22.3,28.5,29.3,45.4c5.2,12.7,8,25.7,6.9,39.7
		C620.5,331.6,618.5,336.7,618.6,342z"/>
	<path fill="#99D6D8" d="M392.6,253.1c-1.5-6.5-2.3-13-0.5-19.6c1.8-1.3,0.9-3.3,1.1-4.9c0,0-0.1-0.4-0.1-0.4c1.1,0,2-0.6,2.9-1.1
		c12.3-6.8,17.2-8,28.2,0.8c5.1,4.1,10.6,7.8,16.1,11.5c6.2,4.2,13.5,6.3,19.1,11.2c-1.1,1.8-4.4,1.5-4.3,4.5c0.3,1.4-1.7,2.8-0.4,4
		c1.4,1.3,3.1,0.2,4.5-0.5c3.1-1.8,6.2-3.5,9.1-5.6c15.1-10.9,25.9-25.5,34.3-42c19.9,5.2,36.5,15,46.9,33.5
		c-4.3,3.4-6.3,8.6-9.7,12.8c-18.3,22.2-42.1,35.1-70,39.9c-11.8,2.1-24.1,1-35.3-4.5c-15.6-7.8-27.9-19.3-37.1-34.1
		c-1-1.6-1.5-4.3-4.4-4.1c0,0,0,0,0,0C392.9,254,392.7,253.5,392.6,253.1z"/>
	<path fill="#D4D2C0" d="M634.2,425.1c-0.8,1-1.5,2.1-2.3,3.1c-0.2,0.3-0.4,0.6-0.6,0.9c-4.5,4.9-9,9.9-14.1,14.4
		c6.8-0.4,9.5-6.6,14.3-9.8l0.1,0c0,1.5,0.1,2.9,0.1,4.4c-2.6,27.2-1,54.2,6.3,80.6c1.1,4.1,0.1,5.7-3.5,7.2
		c-7.3,3.1-14.6,6.1-22.5,7.3c0.9-11.4,3.4-22.7,3.3-34.2c-0.1-7.7-0.3-15.4-0.9-23.1c-0.9-11-6.9-19.4-17.2-22.4
		c-1.1-0.3-2.9,0.2-3-1.5c0-0.8,1.2-1.6,2-2.3c11.5-10.2,20.6-22.3,28.3-35.6c5.4-9.4,8.2-19.4,7-30.4c-0.4-3.5-1.2-5.5-5.8-4.6
		c-7.3,1.5-14.7,2.7-22.3,3c-9.5,0.3-18.5-2.5-27.8-2.4c-18.3,0.3-36.6-0.2-54.8-1.1c-1.8-0.1-3.8,0.3-4-2.4
		c18.5-0.1,37-0.3,55.5-0.1c4.9,0.1,9.9,1.5,14.8,2.4c2.5,2,5,1.8,7.6,0.2c0.7,0,1.5,0,2.2,0c2.4,1.3,4.9,2.3,7.1-0.4
		c5.6-1.1,11.9-1.1,16.8-3.6c9.4-4.9,20-4.5,29.6-8.1c1.3-0.5,2.9-2,4.3,0.1c-0.1,2.9-0.3,5.7-0.4,8.6c-0.1,0.7-0.1,1.3-0.2,2
		c-0.8,1.1-0.8,2.3-0.7,3.5c-0.1,0.7-0.3,1.4-0.4,2c-1.2,3.9-2.4,7.9-3.5,11.8c-0.4,1.1-0.8,2.2-1.1,3.2c-2,4.6-4,9.2-6.1,13.8
		c-1,2-2.1,3.9-3.1,5.9c-1.4,2.3-2.9,4.6-4.3,6.9C634.4,424.6,634.2,424.8,634.2,425.1z"/>
	<path fill="#59C0BE" d="M618.6,342c0-5.4,2-10.4,2.4-15.9c1.1-14-1.7-27-6.9-39.7c-7-16.9-17.2-31.7-29.3-45.4
		c10.5-13.7,11.7-13.7,21.9-0.2c3,4,5.8,8.3,8.8,12.3c0.7,0.9,1.6,2.2,3,1.9c1.5-0.4,1.3-2,1.6-3.2c1-4.2,0.2-8.5,0.4-13
		c2.6,0.5,3,2.8,3.9,4.3c11.1,19,18.1,39.6,23.5,60.8c0.3,1,0.7,2,1,3c-0.1,1.6,0.2,3,1.1,4.4c-0.1,1.6,0.1,3.1,1,4.5
		c0.8,5.9,1.5,11.7,2.3,17.6c0.5,3.5-0.7,5.3-4.2,6c-7.4,1.4-14.8,2.6-22.1,4.5C623.5,345,621.8,340.9,618.6,342z"/>
	<path fill="#F7CF22" d="M546.9,232.5c-10.4-10.6-22.2-18.8-36.3-23.6c-1.9-0.6-2.4-1.6-2.4-3.5c0.1-6.5,0.2-13,0-19.4
		c-0.3-10.8,3.9-19.5,11.7-26.8c5.6-5.2,11.9-9.3,18.7-12.7c4.1-2,7.5-2.1,10.6,1.5c0.4,3.7-0.7,6.5-4,8.6c-1.9,1.2-3.6,2.9-5.3,4.4
		c-5.6,5-6.5,14.2-1.9,19.3c4.1-0.5,6.7-3.8,10.3-5.4c4.8-2.2,9.4-3.6,13.8,0.6c-1.1,5.1-3.7,9.3-8.2,12.1c-1.2,0.7-2.6,1.3-2.4,3.1
		c-1.3,1.9-1.9,3.7,1.5,2.7c2.2-0.6,4.1-2.3,6.2-3.3c6.7-3.3,12-2.8,16.2,1.2c0,1.3-0.2,2.5,0,3.8c0.4,4-0.2,6.9-4.8,8.5
		c-6.3,2.2-9.3,7.2-10.7,14.1C558.4,224.4,554.4,230.3,546.9,232.5z"/>
	<path fill="#59C0BE" d="M393,254.4c2.9-0.2,3.4,2.4,4.4,4.1c9.2,14.9,21.5,26.4,37.1,34.1c11.2,5.5,23.4,6.6,35.3,4.5
		c27.9-4.9,51.7-17.7,70-39.9c3.4-4.1,5.3-9.4,9.7-12.8c3.3,4.5,4.4,9.7,5.5,15c0.5,2.3-0.6,3.8-1.6,5.5
		c-20.3,31.7-49.7,48.3-86.6,51.7c-13.9,1.3-26.5-4.1-37.9-12c-14-9.8-24.5-22.7-32.1-37.9C394.9,262.8,393.1,258.8,393,254.4z"/>
	<path fill="#D8B430" d="M583.9,138.3c0.2,0.1,0.4,0,0.5,0.2c5.6,7.2,1.2,21.6-7.3,23.8c-3.1,0.8-6.3,1.5-10.2,2.4
		c3.1,2.9,5.8,5.4,8.4,7.9c0.9,0.9,2.2,1.6,2.6,2.7c2.1,5.9,6.2,6.6,11.8,5.6c12-2.2,23.5-5.4,33.3-12.7c6-4.4,6.5-8.4,3.1-15
		c-1.7-3.4-3.5-6.6-6-9.5c-5.4-6.3-9.4-13.2-8.5-21.9c14.2-12.1,11.4-31.7-2-40.6c0.6-0.3,1.8-0.8,1.8-0.9
		c-1.3-4.8-1.6-10.2-6.3-13.5c1.2-4-1.3-7-3-10C595.7,45.8,586,37.8,577,28.9c1.1,0.4,2.4,0.5,3.2,1.1c8.9,6.7,18.1,13,26.1,20.8
		c9.5,9.3,15.8,20.4,18.1,33.1c1.9,10.1,4.1,20.4,1.1,31.2c-3,11-1.2,21.3,7.1,30.9c12.9,15,10.2,22.3-7.9,30.2
		c-16.2,7.1-33.1,8-50.4,7.5c-1.6-0.1-2.8-0.3-3.8-2.1c-8.1-14.1-12.5-15.4-26.8-8c-0.5,0.2-1,0.3-1.5,0.5
		c1.2-7.6,11.2-16.8,18.6-17.3c3.2-0.2,6.5-0.6,9.6-1.3C579,153.4,582.9,148.2,583.9,138.3z"/>
	<path fill="#98D5D8" d="M429.2,185.9c12.9,9,26.3,17.1,41.7,21c5.6,1.4,11.2,2.7,17,3c3,0.1,3.3,1.1,2,3.6
		c-5.2,10.2-11.8,19.4-19.3,28c-1.7,2-3.5,2.1-5.8,1.2c-18.7-7.4-35.2-18-47.9-34c1.9-0.9,2.1-2.6,2.2-4.5
		C419.8,196.7,422.7,190.3,429.2,185.9z"/>
	<path fill="#59C0BE" d="M566.6,248.6c-4.1,3.6-2.9,6.4,0.9,9.4c8,6.1,8.9,17,1.9,26.3c-17,22.6-39.6,34.5-67.7,37.3
		c-16.7,1.7-33.2,3.3-49.7-1.3c-1.7-0.5-3.5-0.7-4.6-2.4c46.1,8.1,80.3-11.1,107.1-46.9c4.1-5.5,6.1-11.3,3.6-18.2
		c-0.5-1.4-1.1-3-0.1-4.7C560.9,243.5,562.3,243.5,566.6,248.6z"/>
	<path fill="#D8B430" d="M578,187.2c7.1,0,13.4,0.1,19.7-0.1c2.7-0.1,3,1.1,2.5,3.3c-0.9,4.3-3.5,7.4-6.8,10.1
		c-2.8,2.3-5.7,4.4-7.6,7.6c-4,6.4-3.9,12.6,1,18.5c2.4,2.9,2.2,5-0.7,7.7c-4.2,3.9-7.8,8.5-11.5,12.9c-1.5,1.8-2.6,2.2-4.2,0
		c-1-1.4-2.3-2.8-3.8-3.8c-2.4-1.7-2.5-3.5-1.3-6c1.7-3.4,2.8-7.2,2.2-11c-0.5-3.4,0.6-5.1,3.5-6.8c9.7-6.1,13.8-15.6,10.7-24.7
		C581,192.5,579.6,190.4,578,187.2z"/>
	<path fill="#F7CF22" d="M652.8,435.1c-2.8-0.8-2.6-3.1-2.5-5.2c0-4.1,0.3-8.2,0.3-12.3c0-1.8,0.6-4-1.6-5.3c-1.1,0-2.2-0.1-3.2-0.1
		c-0.1-0.3,0-0.7,0-1c0.3-0.4,0.6-0.8,0.9-1.2c4.9-8,6.9-17.1,9.7-25.9c3.8-8,4.1-5.6,8.5-0.8c2.1,2.4,3.8,5.3,6.3,7.2
		c5.8,4.4,7.1,9.8,4.9,16.4c0,0-0.1,0-0.1,0c-1.2,0-2.4,0-3.6-0.1c-3.8-0.5-6.7-2.8-9.6-5c-2.3-1.8-3.4-1.6-3.1,1.6
		c-1.7,2.5-3.4-1.4-5.3,0.2c0.3,2.8,2.7,4.4,4.4,6.3c1.1,1.1,1.6,1.9,1.4,3.6c-0.6,7.3-0.6,14.6-3.7,21.4c0,0,0,0,0,0
		C655.2,435.1,654,435.1,652.8,435.1z"/>
	<path fill="#DEB92B" d="M484.4,40c-6.8,3.7-9.7,10.5-13.2,16.8c-5,9-7,19-9.6,28.8c-0.4,1.4-0.2,3.4-1.9,3.5
		c-2.2,0.1-1.2-2.1-1.5-3.3c-0.4-1.4-0.8-2.8-2-3.7c4.4-29.9,31.3-65.5,52.4-68.2c-8.2,7.9-16.3,15-22,24c-0.3-0.5-0.9-1.6-1-1.6
		C483.9,37.1,484.3,38.6,484.4,40L484.4,40z"/>
	<path fill="#DEB92B" d="M450,43.4c-5.7,1.5-8,6.7-11.3,10.8c-12.1,14.8-18,32.4-22.5,50.6c-0.3,1.4,0.1,3.9-2.2,3.3
		c-1.8-0.5-1-2.7-0.7-4.3c1.3-6.7,2.5-13.3,3.7-20c4-21.1,16.9-36.3,32.9-49.4c4-3.3,7.3-7.4,12-9.9c1.7-0.9,3.1-2.5,6.3-1.8
		c-5.3,5.9-10.2,11.5-15.2,17.1c-0.4,0.4-0.8,0.8-1.2,1.2c0,0,0.1,0,0.1,0c-1.6-0.1-2.5,0.4-1.9,2.2L450,43.4z"/>
	<path fill="#DEB92B" d="M478.1,29.1c-3.5,0-5.4,2.7-7.4,4.8C460,45.4,451.2,58.3,445.8,73c-3.7,10-7,20.3-8.1,31
		c-0.2,2-0.7,3.8-2.3,6.2c-1.7-4.2-1.4-8.1-0.8-11.7c4.8-25.3,15.5-47.8,33.2-66.7c1.1-1.2,2.4-2.2,2.2-4.1
		c8.1-8.6,17.5-14.8,29.7-15.8C492.5,17.7,485.1,23.1,478.1,29.1z"/>
	<path fill="#59C0BE" d="M653.2,311.5c-0.3-0.8-0.7-1.5-1-2.3c-1.1-9.9-4.1-19.3-7.1-29.1c2.6,0.7,2.8,2.7,3.5,4.2
		c12.5,25.1,19.9,51.9,24.8,79.4c0.8,4.4-1.5,6.7-4.3,9c-0.2-0.3-0.5-0.5-0.7-0.8c-0.1-4.1,0.3-8.3-0.6-12.3
		c-2.4-11.1-5.1-22.1-8.3-33C657.9,321.6,657.6,315.6,653.2,311.5z"/>
	<path fill="#DEB92B" d="M510.4,30.5c-0.1-1.6-0.1-3.2-0.2-4.8c0.1-0.2,0.3-0.3,0.4-0.5c-0.2,0.1-0.3,0.3-0.5,0.4
		c-3.4,0.5-5.2,3.3-7,5.6c-8.9,11.3-15.9,23.5-15.8,38.6c0,1.6,0.3,3.9-1.8,3.9c-2.3,0-2.1-2.1-2.1-4c0-2-0.5-3.8,0.3-5.8
		c0.7-1.5,0.7-3.3-1.8-3.6c1.7-19.5,22.7-45.2,38.3-46.1C517,19.9,513.7,25.2,510.4,30.5z"/>
	<path fill="#D8B430" d="M546.9,232.5c7.5-2.2,11.5-8.1,12.8-15c1.3-6.9,4.4-11.8,10.7-14.1c4.6-1.6,5.2-4.5,4.8-8.5
		c-0.1-1.2,0-2.5,0-3.8c7.8,8.1,3.7,21.5-8.3,25.9c0.5-3.5,2.7-5.5,5.1-7.4c0.9-0.8,2.4-1.6,1.3-3c-1.3-1.9-2.5-0.2-3.6,0.5
		c-5.8,4-7.8,8.6-6.1,15.6c1.9,7.6-1,13.8-5.2,19.6c-1.7,2.4-3.1,2.5-4.8-0.2C551.6,238.9,549.2,235.7,546.9,232.5z"/>
	<path fill="#C4E0DF" d="M394.6,271.1c-6,8.9-10.5,18.3-12.6,29.2c-1.3,6.6-1.1,13-1.8,19.5c-5-0.6-6.6-3.3-6.4-8.4
		c0.9-17.6,6.1-33.5,17.3-47.3C392.3,266.5,393.4,268.8,394.6,271.1z"/>
	<path fill="#C4E0DF" d="M459.4,250.6c-5.7-4.9-13-7-19.1-11.2c-5.5-3.7-10.9-7.4-16.1-11.5c-11-8.8-15.8-7.6-28.2-0.8
		c-1,0.5-1.8,1.2-2.9,1.1c1.7-9.5,17.8-13.6,25.7-9.6c3.7,1.9,6.9,4.5,10.1,7.2c9.2,7.7,19.4,13.5,30.4,18.2
		c1.7,0.7,4.7,0.4,4.7,2.5C464,248.7,461.4,249.8,459.4,250.6z"/>
	<path fill="#DEB92B" d="M525.4,27.9c-1.4,0-2.4,0.6-3.1,1.8c-5.1,10.2-10,20.4-11,32c-0.2,1.8-0.2,3.6-2.5,4.8
		c-1.3-2.6-0.6-5.3-0.7-7.8c0-2.2-0.2-4-3.1-3.8c4.2-14.8,10.4-28.6,21.3-41.6C526.5,19.2,526.3,23.6,525.4,27.9z"/>
	<path fill="#98D5D8" d="M653.2,311.5c4.5,4.1,4.7,10,6.3,15.2c3.2,10.8,5.9,21.9,8.3,33c0.9,3.9,0.4,8.2,0.6,12.3
		c-0.4,0.4-0.9,0.8-1.3,1.2c-3.1,0-6.4,2.7-9.3-0.7c-0.4-7.2,5.4-13.1,4.4-20.6c-0.7-5.2-0.6-10.4-4.4-14.6c-1.4-1.6-1-3.7-1.3-5.7
		C655.3,324.9,654.2,318.2,653.2,311.5z"/>
	<path fill="#C4E0DF" d="M502.6,210.9c-8.4,16.5-19.1,31-34.3,42c-2.9,2.1-6,3.8-9.1,5.6c-1.4,0.8-3,1.8-4.5,0.5
		c-1.3-1.2,0.6-2.6,0.4-4c6.8-0.8,11.9-4.7,16.6-9.2c9.7-9.1,16.7-20.2,22.5-32C496.2,209.8,498.6,208.6,502.6,210.9z"/>
	<path fill="#D8B430" d="M547.5,25.3c-1,2.5,0.5,4.3,1.3,6.5c4,10.5,6.7,21.5,8.9,32.5c0.3,1.4,0.8,3.5-1.1,4.3
		c-2.6,1.1-2.8-1.1-3.3-2.8c-0.2-0.8-1.2-0.3-1.9,0c-1.5-16.3-6.7-31.5-14.1-46.1c-0.6-1.1-1.3-2.2-1.9-3.3c-0.1-0.3-0.1-0.7-0.1-1
		c4.3,1.6,7.3,4,11.7,9.2c-0.2,0.2-0.3,0.4-0.5,0.6C546.8,25.3,547.1,25.3,547.5,25.3C547.4,25.3,547.5,25.3,547.5,25.3z"/>
	<path fill="#DEB92B" d="M535.9,24.7c-1.3,10.9-2.7,21.9-4.1,32.8c-0.3,2.6,1.3,5.7-1,7.7c-3.3,2.8-2.2-3.8-5.1-2.8
		c-0.3-15.7,3.5-31.1,4.2-47.8C532.9,18.2,534.5,21.4,535.9,24.7z"/>
	<path fill="#59C0BE" d="M586.3,216.3c0.1-7.5,3.5-10,10.7-7.6c3.7,1.2,8.9,2.2,9.8,5.8c0.7,2.8-4.3,5-6.8,7.5
		c-0.4,0.4-0.8,0.8-1.3,1c-2.6,1.2-3.7,5.4-7.3,4.3C589.4,226.7,586.3,219.2,586.3,216.3z"/>
	<path fill="#D8B430" d="M416.9,150.8c-0.4,4.5,2.4,7.9,4.6,11.2c6.5,9.4,12.5,19.4,22.3,26.1c1.3,0.9,1.4,2,1.4,3.2
		c-16-8.4-27.9-20.9-36.6-37C411.5,153.1,414.2,152,416.9,150.8z"/>
	<path fill="#D8B430" d="M560.1,27.7c-0.5,2.2,0.8,3.7,2.1,5.2c8.3,9.4,13.3,20.6,16.9,32.5c0.3,1,0.5,2.1-0.7,3.3
		c-1.4-0.9-2.6-3.1-5-1c-1.1,1-2.7-0.2-2.6-2.2c3.7,2.5,2.4-0.7,2-2c-1.8-6.4-4.2-12.6-7.3-18.4c-5.2-9.8-12-18.3-19.3-26.6
		C551.8,20.2,556.9,22.5,560.1,27.7z"/>
	<path fill="#59C0BE" d="M617.1,249.6c-5.9-7.9-10.7-14.7-16.4-20.8c-1.2-1.2-0.7-2.3,0.3-3.2c3-2.7,5.8-7.5,9.5-7
		c2.6,0.3,2.8,6,3.7,9.5C615.8,234.6,616.9,241.2,617.1,249.6z"/>
	<path fill="#D8B430" d="M588.6,46.1c-0.7,4.7,2.6,8,4.6,11.7c1.9,3.4,3.2,6.8,3.7,10.9c-2.9-0.2-4.4-2.4-6.7-1.9
		c0.7-3.4-1.2-6.2-2.4-9.1c-3.9-9.1-9.2-17.4-15.3-25.4c6.6,2.2,11,7.1,15.5,12c-0.7,0.1-1.6,0.2-1.5,1
		C586.6,46.4,587.7,46.1,588.6,46.1L588.6,46.1z"/>
	<path fill="#D8B430" d="M676,407c2.2-6.6,0.9-12-4.9-16.4c-2.5-1.9-4.2-4.8-6.3-7.2c-4.4-4.8-4.7-7.2-8.5,0.8
		c0.7-2.1-1.5-6,1.9-6.2c3.6-0.2,8.3-2.6,11.1,2.5c2.5,4.5,7.1,7.1,10.2,11.1C684.3,397.6,682.9,404.1,676,407z"/>
	<path fill="#D8B430" d="M554.3,147.1c6.9-0.2,13.7,0.4,19.7-4.7c3.3-2.8,4.6-5.5,3.3-9.5c5,7.6,3.1,14.5-4.9,18
		c-1.8,0.8-3.7,1.2-5.7,1.7C561.2,154.1,556.1,154.4,554.3,147.1z"/>
	<path fill="#C4E0DF" d="M429.2,185.9c-6.5,4.4-9.3,10.8-9.9,18.4c-0.1,1.9-0.3,3.6-2.2,4.5c-3.5-2.7-3.8-6.2-2.7-10.1
		c1-4,2.5-7.9,4.5-11.5C422.7,180.4,423.4,180.3,429.2,185.9z"/>
	<path fill="#D8B430" d="M656.5,435.1c3-6.8,3.1-14.2,3.7-21.4c0.1-1.7-0.3-2.5-1.4-3.6c-1.8-1.9-4.1-3.4-4.4-6.3
		c1.9-1.6,3.6,2.3,5.3-0.2c6.6,3.5,5.6,9.6,5.2,15.5c-0.4,6-1,11.9-6.5,15.9c-0.4,0-0.7,0.1-0.9,0.4
		C657.1,435.3,656.8,435.3,656.5,435.1z"/>
	<path fill="#D8B430" d="M538,180.2c-4.6-5-3.7-14.3,1.9-19.3c1.7-1.5,3.4-3.2,5.3-4.4c3.3-2,4.5-4.9,4-8.6
		c4.9,4.6,4.9,6.6-0.2,10.7c-5,4-9.4,8.4-11.2,14.8C537.2,175.7,536.4,178,538,180.2z"/>
	<path fill="#D8B430" d="M645.6,412.2c1.1,0,2.2,0.1,3.2,0.1c-0.8,1.3-2.3,1.9-2.2,3.9c0.2,6.2,0,12.5,0,18.7
		c-0.1,0.3-0.2,0.6-0.1,0.9c-1.1,0.8-2.1,1.6-3.2,2.4c-3.3-0.7-1.8-3.3-2.2-5.2c-0.6-3.4,1.4-7.1-1.4-10.2c0.1-0.9,0.4-1.6,1.2-2.1
		c0.4-0.5,0.8-1,1.2-1.6c0-0.5,0.1-1.1,0.1-1.6c1.1-1.2,2-2.5,2.3-4.2C645,413.1,645.3,412.6,645.6,412.2z"/>
	<path fill="#D8B430" d="M551.4,190.5c-0.2-1.8,1.3-2.3,2.4-3.1c4.5-2.8,7.1-6.9,8.2-12.1c2.2,0.7,2.2,3.1,3.4,4.6
		c1.5,2,1.1,3.6-1.5,4.4C559.4,185.6,555.5,188.2,551.4,190.5z"/>
	<path fill="#13181C" d="M644.7,413.5c-0.3,1.7-1.2,3-2.3,4.2c-1.1,0-2.3,0-3.4,0c1-2,2.1-3.9,3.1-5.9
		C642.6,412.9,643.5,413.3,644.7,413.5z"/>
	<path fill="#F7CF22" d="M484.4,40c-0.1-1.4-0.5-2.9,1.2-3.7c0.1,0,0.6,1,1,1.6C485.8,38.6,485.1,39.3,484.4,40z"/>
	<path fill="#13181C" d="M648.2,398c0.4-1.1,0.8-2.2,1.1-3.2c0.8,0.4,1.6,1,1.4,2C650.4,398.1,649.2,398,648.2,398z"/>
	<path fill="#C4E0DF" d="M393.2,228.6c-0.2,1.7,0.7,3.6-1.1,4.9C392.1,231.9,391.8,230.1,393.2,228.6z"/>
	<path fill="#D8B430" d="M416.9,148.2c0.8,0,1.8-0.2,1.9,1c0,0.3-0.9,0.7-1.4,1.1C417.2,149.6,417,148.9,416.9,148.2z"/>
	<path fill="#F7CF22" d="M588.5,46c-0.8,0.1-1.9,0.4-2-0.9c-0.1-0.8,0.8-0.9,1.5-1C588.1,44.8,588.3,45.4,588.5,46z"/>
	<path fill="#13181C" d="M652.8,382.9c0.1-0.7,0.3-1.4,0.4-2c0.5,0.3,1.5,0.7,1.5,1C654.7,383.1,653.7,382.8,652.8,382.9z"/>
	<path fill="#F7CF22" d="M450.1,43.3c-0.6-1.8,0.3-2.3,1.9-2.2C451.7,42.1,451.3,43,450.1,43.3z"/>
	<path fill="#13181C" d="M649.9,311.6c-0.9-1.3-1.1-2.8-1.1-4.4C650.4,308.4,649.8,310.1,649.9,311.6z"/>
	<path fill="#D8B430" d="M672.4,406.9c1.2,0,2.4,0,3.6,0.1C674.8,408.2,673.6,407.9,672.4,406.9z"/>
	<path fill="#13181C" d="M654,377.3c0.1-0.7,0.1-1.3,0.2-2C654.1,376,654,376.7,654,377.3z"/>
	<path fill="#F7CF22" d="M451.8,41.1c0.4-0.4,0.8-0.8,1.2-1.2C452.6,40.2,452.2,40.6,451.8,41.1z"/>
	<path fill="#13181C" d="M667,373.2c0.4-0.4,0.9-0.8,1.3-1.2c0.2,0.3,0.5,0.5,0.7,0.8C668.4,372.9,667.7,373.1,667,373.2z"/>
	<path fill="#13181C" d="M646.6,410.1c-0.3,0.4-0.6,0.8-0.9,1.2c-0.4-0.3-0.7-0.5-1.1-0.8c0,0,0,0.1,0,0.1
		C645.2,410.4,645.9,410.2,646.6,410.1z"/>
	<path fill="#D4D2C0" d="M644.6,410.6C644.6,410.6,644.6,410.5,644.6,410.6C644.6,410.5,644.6,410.6,644.6,410.6z"/>
	<path fill="#F7CF22" d="M547.4,25.3c-0.3,0-0.5,0-0.8,0c0.2-0.2,0.3-0.4,0.5-0.6C547.4,24.7,547.5,24.9,547.4,25.3z"/>
	<path fill="#59C0BE" d="M392.6,253.1c0.1,0.4,0.3,0.8,0.4,1.2C392.4,254.1,392.4,253.7,392.6,253.1z"/>
	<path fill="#E5E3D6" d="M516.7,376.3c0.2,2.7,2.2,2.3,4,2.4c18.3,0.9,36.5,1.4,54.8,1.1c9.3-0.1,18.4,2.7,27.8,2.4
		c7.6-0.3,15-1.5,22.3-3c4.6-0.9,5.4,1.1,5.8,4.6c1.2,11-1.6,21-7,30.4c-7.7,13.3-16.8,25.4-28.3,35.6c-0.8,0.7-2,1.5-2,2.3
		c0,1.8,1.9,1.2,3,1.5c10.3,3,16.3,11.4,17.2,22.4c0.7,7.7,0.8,15.4,0.9,23.1c0.2,11.5-2.4,22.8-3.3,34.2
		c-19.5,4.6-38.9,4.4-58.1-1.5c0.3-0.4,0.6-0.8,0.9-1.1c-5.1-3.6-3.7-8.4-2.2-13.1c3.5-11.1,4.3-22.4,2.3-33.9
		c-0.4-2.4-0.1-3.7,2.9-4.5c8-1.9,15.9-4.1,23.6-6.9c4.5-1.6,9.3-3.5,12.5-7.7c-5.4,1.2-10.6,3.1-15.8,4.6c-1.6,0.4-3.5,2.7-5.2,0
		c3.5-2.6,8.5-2.8,10.9-7.1c1.4-2.9,1.7-6.1-2.7-5c-6,1.5-11.9,2.4-18,3c-14.7,1.4-29.7,2.8-43.8-2c-9.2-3.1-18.2-3.6-27.5-3.6
		c-14.9,0-25.6,10.4-22.6,27.4c1.9,10.5,1.8,21.1-1.5,31.4c-3.4,10.6-6.3,21.2-6.2,32.5c-14.8,1-29.3-0.3-43.4-4.8
		c-0.6-2.9-3.4-2.9-5.3-4.1c-3.5-2.2-5.4-4.1-4-9.3c4.8-18,7.5-36.4,8.5-55.1c0.6-9.9-0.3-19.7-0.4-29.5c-0.2-11.8-4-22.8-10.9-32.2
		c-11.7-15.9-18.9-33.2-20.4-52.9c-0.1-1.8-0.9-4.1,1.5-5.3c28.9,9.9,58.7,15.5,88.7,20.1c12.3,1.9,24.7,2.8,37.1,3.2
		C514.3,375.9,515.5,376.1,516.7,376.3z"/>
	<path fill="#8C959B" d="M558.2,590.4c-21.2,2.7-42.4,1.9-63.5-0.5c-30.7-3.6-60.4-11.4-88.9-23.6c-12.8-5.5-14-14-3.9-24.2
		c13,5.4,26.6,8.4,40.4,10.8c7.6,1.3,15.3,2.7,23,2.1c5.4-0.4,10.8-1.7,16.1-0.8c8.6,1.5,17.2,0.6,25.9,0.9c2,0.1,3.9,0.2,5.9,0.7
		c12.3,3.1,23.2,8.9,32.6,17.1C551,577.7,557.7,581.9,558.2,590.4z"/>
	<path fill="#8C959B" d="M539.8,372.6c-44.2,0.1-87.7-5.4-130.4-16.9c-11.9-3.2-23.2-7.8-34.4-13c-5.9-2.8-7.4-16.8-2.3-20.5
		c1.3-1,2.4-0.1,3.5,0.3c37,14.5,75.5,22.7,114.9,27c26.5,2.9,53,4.1,79.6,2c4.1-0.3,5.3,0.8,5.4,4.8c0.4,15.3,0.5,15.4-14.8,16
		C554.2,372.9,547,372.6,539.8,372.6z"/>
	<path fill="#D4D2C0" d="M461.6,545.7c-0.1-11.2,2.7-21.9,6.2-32.5c3.3-10.3,3.4-20.9,1.5-31.4c-3.1-17,7.7-27.4,22.6-27.4
		c9.3,0,18.3,0.5,27.5,3.6c14.1,4.8,29.1,3.4,43.8,2c6.1-0.6,12-1.5,18-3c4.4-1.1,4.1,2,2.7,5c-16.8,5.5-33.4,11.2-51.3,12.2
		c-6.5,0.4-12.9,0.1-19.4-0.6c-3.3-0.3-4.5-1.3-2.8-4.6c0.7-1.4,2.3-3.7,0.1-4.7c-2-0.8-2.8,1.8-3.5,3.3c-7.7,16.4-8,33.3-2.9,50.5
		c0.6,2.1,1.5,4,2.2,6.1c2.3,7.2,1.3,9.5-5.5,12.6c-11.4,5.1-23.4,8.2-36,8.4c-0.4-0.8-0.7-0.7-1.1,0
		C463,545.6,462.3,545.7,461.6,545.7z"/>
	<path fill="#8C959B" d="M689,570.6c-18.3,5.3-37.1,5.2-55.8,3.9c-22.8-1.6-45.6-3.9-68-9.1c-4.1-1-7.1-3.3-10.5-5.3
		c-2.8-1.6-5.5-3.4-8.4-5c-9.3-5.2-10.2-8.6-4.8-18.4c4.2,1,8.4,1.9,12.5,3c20.7,5.2,41.8,8.2,63.2,8.8c8.9,0.2,17.8-1.3,26.7-2.6
		c13.4-2,24.4,4.5,35.1,11C684.1,559.9,688.9,563.7,689,570.6z"/>
	<path fill="#F7F7F7" d="M387.2,352.6c-2.4,1.2-1.6,3.5-1.5,5.3c1.4,19.7,8.7,37,20.4,52.9c6.9,9.4,10.7,20.4,10.9,32.2
		c0.1,9.8,1,19.6,0.4,29.5c-1.1,18.7-3.7,37.1-8.5,55.1c-1.4,5.2,0.5,7,4,9.3c1.9,1.2,4.7,1.1,5.3,4.1c-6.2-1.3-11.8-4.1-17.3-7.3
		c-2.9-1.7-3.7-3.5-2.7-7c8-28.5,10.8-57.6,8.5-87.2c-0.8-9.8-3.5-18.7-8.6-26.9c-2.8-4.4-5.6-8.8-8.5-13.2
		c-9.6-14.2-12.9-30.3-14.5-46.9c-0.1-1.5,0-3.1,0-5.4C379.5,349.1,383.3,350.8,387.2,352.6z"/>
	<path fill="#727C82" d="M689,570.6c-0.1-6.9-4.9-10.7-10-13.7c-10.8-6.5-21.8-13-35.1-11c-8.9,1.3-17.8,2.9-26.7,2.6
		c-21.3-0.6-42.4-3.6-63.2-8.8c-4.2-1-8.3-2-12.5-3c1.4-4,3.3-4.9,7.7-3.1c26.3,10.6,52.5,8,78.5-1.2c3.2-1.1,6.2-1.7,9.5-1.1
		c15.4,2.9,30.6,6.6,44.7,13.9c5,2.6,9.6,5.7,12.9,10.4C700.4,563.5,698.5,568.5,689,570.6z"/>
	<path fill="#727C82" d="M558.2,590.4c-0.5-8.5-7.2-12.7-12.6-17.4c-9.4-8.2-20.3-14-32.6-17.1c-2-0.5-3.9-0.7-5.9-0.7
		c-8.6-0.3-17.2,0.5-25.9-0.9c-5.3-0.9-10.7,0.4-16.1,0.8c-7.7,0.5-15.4-0.8-23-2.1c-13.8-2.3-27.4-5.4-40.4-10.8
		c1.5-2.1,3.3-2.1,5.6-1.1c30.2,12.3,60.8,11.5,91.4,1.7c2.1-0.7,4.1-1.3,6.3-0.5c18.8,6.4,37.5,13.1,53,26.1
		c2.2,1.8,4.4,3.8,6.1,6.1C570.2,582.2,567.9,588.1,558.2,590.4z"/>
	<path fill="#E95C30" d="M620.7,350.4c3.6,19.2,0.9,22.7-18.2,24c-6.3,0.4-12.5,1.1-18.8-0.2c0-5.9,0.1-11.9,0.1-17.8
		c0-2.3,0.4-4,3.2-3.8C598.3,353.5,609.3,350,620.7,350.4z"/>
	<path fill="#F7F7F7" d="M572.9,469.2c1.7,2.7,3.6,0.4,5.2,0c5.2-1.5,10.4-3.4,15.8-4.6c-3.2,4.2-8,6-12.5,7.7
		c-7.7,2.8-15.7,5-23.6,6.9c-3.1,0.7-3.3,2.1-2.9,4.5c2,11.5,1.2,22.8-2.3,33.9c-1.5,4.7-2.9,9.5,2.2,13.1c-0.3,0.4-0.6,0.8-0.9,1.1
		c-13.1-3.7-14.8-6.1-11-19.1c3-10.4,3.8-20.8,1.9-31.4c-0.6-3.1,0.1-4.3,3.3-5.1C556.4,474.1,564.6,471.6,572.9,469.2z"/>
	<path fill="#8C959B" d="M625.2,358.3c-0.3-10.5-0.3-10.3,9.1-12.1c6.2-1.1,12.3-2.5,18.4-4c3-0.8,4.4,0.1,5.1,2.9
		c1.1,4.3,0.9,8.5,0.4,12.9c-0.3,2.4-2.1,3.2-4,3.9c-8.3,3.3-16.9,4.7-25.7,6c-2.6,0.4-3.6-0.5-3.5-3.1
		C625.3,362.3,625.2,359.8,625.2,358.3z"/>
	<path fill="#D8B430" d="M620.7,350.4c-11.3-0.4-22.4,3.1-33.7,2.2c-2.8-0.2-3.2,1.5-3.2,3.8c0,5.9,0,11.9-0.1,17.8
		c-3.7,0.6-5.3-0.6-4.7-4.7c0.7-5.5,1-11.1,0.2-16.6c-0.3-2.2,0-3.3,2.6-3.3c11.9-0.1,23.6-1.3,35.3-3.2
		C620.6,345.7,621,347.7,620.7,350.4z"/>
	<path fill="#E5E3D6" d="M604,378.4c-2.2,2.7-4.7,1.6-7.1,0.4C599.2,378.6,601.6,378.5,604,378.4z"/>
	<path fill="#E5E3D6" d="M594.7,378.7c-2.6,1.6-5.1,1.8-7.6-0.2C589.6,378.6,592.1,378.7,594.7,378.7z"/>
	<path fill="#E5E3D6" d="M463.6,545.5c0.3-0.7,0.7-0.8,1.1,0C464.4,545.4,464,545.5,463.6,545.5z"/>
	<path fill="#F7CF22" d="M639.8,422.9c2.9,3.1,0.8,6.8,1.4,10.2c0.4,1.9-1.1,4.5,2.2,5.2c-2.3,1.9-5.8,2.3-7.2,0.5
		c-2.5-3-0.8-7.2,0.1-10.6C636.8,426.2,638.6,424.7,639.8,422.9z"/>
	<path fill="#13181C" d="M631.3,429.2c0.2-0.3,0.4-0.6,0.6-0.9c1,0.5,1.7,1.1,1.4,2.4c-0.1,0.2-0.5,0.5-0.8,0.5
		C631.4,431,631.6,429.9,631.3,429.2z"/>
	<path fill="#13181C" d="M631.5,433.8c0.1-0.1,0.2-0.3,0.2-0.4C631.7,433.6,631.6,433.7,631.5,433.8
		C631.6,433.9,631.5,433.8,631.5,433.8z"/>
	<path fill="#13181C" d="M634.2,425.1c0-0.3,0.1-0.5,0.4-0.6C634.6,424.8,634.4,425,634.2,425.1z"/>
	<path fill="#F7CF22" d="M642.2,419.3c-0.4,0.5-0.8,1-1.2,1.6C641.4,420.3,641.8,419.8,642.2,419.3z"/>
	<path fill="#D8B430" d="M652.8,435.1c1.2,0,2.5,0,3.7-0.1C655.2,436.3,654,436.2,652.8,435.1z"/>
	<path fill="#151818" d="M541.1,112.1c-5.2,14.1-15.2,20.7-30.3,19.9c-13-0.6-24.1-9.8-27.2-22.5c-3.6-14.7,5-28.7,19.8-32.2
		c18-4.2,31.9,3.2,38,20.3C541.8,102.5,542,107.3,541.1,112.1z M512.3,128.5c13.4,0,23.9-7.1,26.3-18c2.5-11.3-3.4-23.6-13.4-28
		c-12.1-5.3-28.2-2.1-34.6,7c-1.3,1.9-2.4,4.1-3.1,6.2C482.3,112.2,494.5,128.4,512.3,128.5z"/>
	<path fill="#13181C" d="M609.7,81c13.4,8.8,16.2,28.4,2,40.6c-6.4,3.9-13.2,6.8-20.9,5.6c-15.1-2.4-25-16.9-22.2-32.3
		c2.2-12,16.9-19.9,31.9-16.9C603.6,78.6,606.6,80,609.7,81z M595.6,123.5c9-0.1,16.4-3.3,20.4-11.6c3.7-7.5,3.1-15.2-1.6-22.1
		c-7.5-10.9-26.2-12.4-37.3-3.2c-2.6,2.1-4.5,4.6-5.2,8C568.6,110,579.8,123.7,595.6,123.5z"/>
	<path fill="#151818" d="M393.4,133.6c-2.3-2-1.5-5.1,1.7-6.9c4-2.3,9.1-0.9,12.6,3.4c-0.5,0.2-0.9,0.5-1.4,0.5
		c-1.8,0.1-3.9-2.7-5.3-0.4c-1.3,2.1,0.5,4.3,1.6,6.4c0.5,1.1,3.7,2.2,0.5,3.8c-3-3-5.6-6.3-5.7-10.9
		C394.6,130.3,394.9,132.7,393.4,133.6z"/>
	<path fill="#D8B430" d="M393.4,133.6c1.5-0.9,1.3-3.4,4-4.1c0.1,4.6,2.7,7.9,5.7,10.9C397.4,141.6,394.6,138.8,393.4,133.6z"/>
	<path fill="#D8B430" d="M541.1,112.1c0.8-4.8,0.7-9.6,0.3-14.4c0.3-0.5,1.1-0.6,1.1-0.2C542.1,102.4,544.5,107.5,541.1,112.1z"/>
	<path fill="#F7CF22" d="M510.2,25.7c0.2-0.1,0.3-0.3,0.5-0.4C510.5,25.4,510.4,25.6,510.2,25.7C510.2,25.7,510.2,25.7,510.2,25.7z"
		/>
	<path fill="#F7F7F7" d="M512.3,128.5c-17.7,0-30-16.2-24.7-32.8c0.7-2.2,1.8-4.4,3.1-6.2c6.4-9.1,22.5-12.3,34.6-7
		c10,4.4,15.9,16.7,13.4,28C536.2,121.4,525.7,128.5,512.3,128.5z M504.4,100.3c-3.7,0.4-5.9,2.2-5.9,5.8c0,3.6,2.3,5.8,5.8,5.8
		c3.5,0,5.8-2.2,5.8-5.8C510.1,102.5,507.8,100.7,504.4,100.3z"/>
	<path fill="#F7F7F7" d="M595.6,123.5c-15.8,0.2-27-13.6-23.7-29c0.7-3.4,2.7-5.9,5.2-8c11.2-9.2,29.9-7.7,37.3,3.2
		c4.8,6.9,5.3,14.6,1.6,22.1C612,120.2,604.6,123.5,595.6,123.5z M603,102.6c-0.6-2.6-2-4.8-5.3-4.7c-3.5,0.1-5.3,2.2-5.1,5.5
		c0.2,3.2,2.3,4.8,5.4,4.7C601.3,108,602.7,105.9,603,102.6z"/>
	<path fill="#13181C" d="M504.4,100.3c3.4,0.4,5.7,2.3,5.6,5.9c0,3.6-2.3,5.8-5.8,5.8c-3.5,0-5.8-2.2-5.8-5.8
		C498.5,102.4,500.8,100.6,504.4,100.3z"/>
	<path fill="#13181C" d="M603,102.6c-0.3,3.4-1.8,5.5-5,5.6c-3.1,0.1-5.2-1.5-5.4-4.7c-0.2-3.4,1.7-5.4,5.1-5.5
		C601.1,97.8,602.5,100,603,102.6z"/>
</g>
</svg>
