<?xml version="1.0" encoding="utf-8"?>
<!-- Generator: Adobe Illustrator 18.1.1, SVG Export Plug-In . SVG Version: 6.00 Build 0)  -->
<svg version="1.1" id="Capa_1" xmlns="http://www.w3.org/2000/svg" xmlns:xlink="http://www.w3.org/1999/xlink" x="0px" y="0px"
	 viewBox="0 0 841.9 595.3" enable-background="new 0 0 841.9 595.3" xml:space="preserve">
<g>
	<path fill="none" d="M473.3,82.1c0.6,0.6,1.1,1.1,1.7,1.7C474.5,83.2,473.9,82.6,473.3,82.1z"/>
	<path fill="none" d="M359.1,244.8c-1.6-0.5-3.2-1.1-4.8-1.7C355.9,243.7,357.5,244.3,359.1,244.8z"/>
	<path fill="none" d="M477.6,86.5c-0.8-0.9-1.7-1.8-2.5-2.7C476,84.8,476.8,85.7,477.6,86.5L477.6,86.5z"/>
	<path fill="none" d="M367.7,247.2c-1.9-0.5-3.8-1-5.7-1.5C363.8,246.2,365.8,246.7,367.7,247.2z"/>
	<path fill="none" d="M471.6,80.4c0.6,0.5,1.2,1.1,1.8,1.7C472.8,81.5,472.2,80.9,471.6,80.4z"/>
	<path fill="none" d="M451.6,87.7c1.2,2.1,2.3,4.3,3.3,6.5C453.9,92.1,452.8,89.9,451.6,87.7z"/>
	<path fill="none" d="M436.9,67.1C436.9,67.2,436.9,67.2,436.9,67.1C436.9,67.2,436.9,67.2,436.9,67.1z"/>
	<path fill="none" d="M435,65.1c0.1,0.1,0.3,0.3,0.4,0.4C435.3,65.4,435.1,65.3,435,65.1z"/>
	<path fill="none" d="M455.2,94.8c1,2.2,2,4.4,2.9,6.6C457.2,99.2,456.2,97,455.2,94.8z"/>
	<path fill="none" d="M346.9,240.1c-0.9-0.4-1.9-0.9-2.8-1.3C345,239.2,345.9,239.6,346.9,240.1z"/>
	<path fill="none" d="M476.1,104.7c0.1,0.3,0.2,0.5,0.3,0.8C476.3,105.3,476.2,105,476.1,104.7z"/>
	<path fill="none" d="M419.7,339.4c-22.5,18.4-49.5,26.7-82.6,20.9c-5.2-1.9-10.2-4.2-14.9-6.9c4.7,2.7,9.7,5,14.9,6.9
		C370.2,366,397.2,357.8,419.7,339.4z"/>
	<path fill="none" d="M415.4,104.9C415.4,104.9,415.4,104.9,415.4,104.9c-1.1,1.5-2,1.5-2.5,0.8
		C413.4,106.4,414.3,106.3,415.4,104.9z"/>
	<path fill="none" d="M482.3,274.6c-2.1,1.6-4.5,4.6-7.9,8.9c-1.6,1.6-3.2,3.2-4.8,4.8c1.5-1.6,3.2-3.2,4.8-4.8
		C477.8,279.1,480.2,276.1,482.3,274.6z"/>
	<path fill="none" d="M431,328.9c-1.8,1.9-3.7,3.7-5.6,5.5C427.3,332.6,429.2,330.8,431,328.9z"/>
	<path fill="none" d="M436.7,67.1c-0.2-0.2-0.3-0.4-0.5-0.5C436.4,66.7,436.5,66.9,436.7,67.1L436.7,67.1z"/>
	<path fill="none" d="M401.5,78.5c-2.8,6.1-5.1,12.4-6.9,18.9c-0.1,0.6-0.2,1.2-0.2,1.8c0-0.6,0.1-1.2,0.2-1.8
		C396.5,90.9,398.7,84.6,401.5,78.5z"/>
	<path fill="none" d="M501.3,163.9c-4.8,2.9-9.8,5.3-15.3,5.8C491.5,169.3,496.5,166.9,501.3,163.9c-0.7,7.1,1.7,13,5.6,18.3
		C503.1,176.9,500.6,171.1,501.3,163.9z"/>
	<path fill="none" d="M542.9,353.9c1.1,1,2,2.2,2.6,3.4C544.8,356.1,544,354.9,542.9,353.9c-0.3-0.8-0.7-1.5-1-2.3l0,0
		C542.2,352.4,542.5,353.1,542.9,353.9z"/>
	<path fill="none" d="M494.8,109.1C494.8,109.1,494.8,109.1,494.8,109.1c-2.2-0.9-2.6-3-3.5-4.8
		C492.2,106.1,492.6,108.2,494.8,109.1z"/>
	<path fill="none" d="M463.2,108.1c0,0.8-0.5,1.2-2.6-0.2c-0.6-1.6-1.2-3.2-1.9-4.9c0.6,1.6,1.3,3.2,1.9,4.9
		C462.7,109.3,463.2,108.9,463.2,108.1z"/>
	<path fill="none" d="M263.6,357.2c0.6,2.9,2.4,4.6,6.2,5c6.3,2.9,12.7,5.2,19.2,7.3c-6.5-2.1-13-4.4-19.2-7.3
		C266,361.8,264.2,360.2,263.6,357.2z"/>
	<path fill="none" d="M479.8,109.1C479.8,109.1,479.8,109.1,479.8,109.1c-1.5-0.2-2.3-1-2.8-2C477.5,108.1,478.3,108.9,479.8,109.1z
		"/>
	<path fill="none" d="M425,57.8c0,0.3,0,0.7,0.1,1C425,58.5,425,58.2,425,57.8C425,57.8,425,57.8,425,57.8z"/>
	<path fill="none" d="M351.5,76.5c0.4-0.4,0.8-0.9,1.2-1.3C352.3,75.6,351.9,76.1,351.5,76.5z"/>
	<path fill="none" d="M445.9,215.1c0.9,0.1,1.8,0.2,2.8,0.6C447.8,215.3,446.8,215.1,445.9,215.1z"/>
	<path fill="none" d="M465.9,234.7c-0.3-0.4-0.6-0.8-1-1.1c-1.5-1.5-3.1-2.4-4.9-3c1.8,0.5,3.4,1.5,4.9,3
		C465.3,233.9,465.6,234.3,465.9,234.7z"/>
	<path fill="none" d="M452.5,218.1c-0.2-0.1-0.5-0.3-0.7-0.3c0,0,0,0,0,0C452,217.8,452.3,218,452.5,218.1z"/>
	<path fill="none" d="M434.6,187.6c-0.7-0.1-1.3-0.2-2-0.1C433.3,187.4,433.9,187.5,434.6,187.6z"/>
	<path fill="none" d="M445,215.1c0.3,0,0.6,0,0.9,0C445.5,215.1,445.3,215.1,445,215.1z"/>
	<path fill="none" d="M438.9,190.3C438.9,190.3,438.9,190.3,438.9,190.3L438.9,190.3C438.9,190.3,438.9,190.3,438.9,190.3z"/>
	<path fill="none" d="M468.9,243.2C468.9,243.2,468.9,243.2,468.9,243.2C468.9,243.2,468.9,243.2,468.9,243.2z"/>
	<path fill="none" d="M450.4,216.7c0.2,0.1,0.3,0.2,0.5,0.3C450.8,216.9,450.6,216.8,450.4,216.7z"/>
	<path fill="none" d="M449.8,216.3c0.1,0.1,0.2,0.1,0.3,0.1C450,216.4,449.9,216.3,449.8,216.3z"/>
	<path fill="none" d="M466.8,235.9C466.8,235.9,466.8,236,466.8,235.9C466.8,236,466.8,235.9,466.8,235.9z"/>
	<path fill="none" d="M467.1,236.5c0.1,0.1,0.1,0.2,0.2,0.3C467.2,236.7,467.2,236.6,467.1,236.5z"/>
	<path fill="none" d="M456.7,230.1c1,0,1.9,0.1,2.8,0.3C458.6,230.3,457.7,230.1,456.7,230.1z"/>
	<path fill="none" d="M401.5,78.5c1.6-3.5,3.4-6.9,5.5-10.3C405,71.5,403.2,75,401.5,78.5z"/>
	<path fill="none" d="M389.2,65c-1.9,1.9-3.8,3.8-5.6,5.8C385.3,68.8,387.2,66.9,389.2,65z"/>
	<path fill="none" d="M394.2,104.7c0.2-0.6,0.3-1.2,0.3-1.8C394.5,103.5,394.4,104.2,394.2,104.7z"/>
	<path fill="none" d="M417.1,81.7c0-0.3,0.1-0.5,0.1-0.8C417.2,81.2,417.2,81.5,417.1,81.7z"/>
	<path fill="none" d="M366.5,63.8c1-0.8,2-1.6,3-2.3C368.5,62.3,367.5,63,366.5,63.8z"/>
	<path fill="none" d="M417.9,75.7c0.3-2.1,0.5-4.2,0.8-6.4C418.4,71.5,418.2,73.6,417.9,75.7z"/>
	<path fill="none" d="M443.2,215.3c0.6-0.1,1.2-0.2,1.7-0.2C444.4,215.1,443.8,215.2,443.2,215.3z"/>
	<path fill="none" d="M435.9,188c0.8,0.4,1.7,0.9,2.4,1.7C437.5,188.9,436.7,188.3,435.9,188z"/>
	<path fill="none" d="M442.2,194.4c0.1,0.3,0.2,0.6,0.3,0.9C442.4,195,442.3,194.7,442.2,194.4z"/>
	<path fill="none" d="M304.3,128.6c0.1-0.3,0.2-0.5,0.3-0.7C304.5,128.1,304.4,128.4,304.3,128.6z"/>
	<path fill="none" d="M547.1,361.1c0.2,0.7,0.4,1.3,0.6,2C547.5,362.4,547.3,361.8,547.1,361.1z"/>
	<path fill="none" d="M429.8,188.2c0.5-0.2,1-0.3,1.4-0.5C430.7,187.9,430.2,188,429.8,188.2z"/>
	<path fill="none" d="M454.2,220.4c0.2,0.5,0.4,0.9,0.6,1.3C454.5,221.3,454.3,220.9,454.2,220.4z"/>
	<path fill="none" d="M316.9,262.2c-0.9-0.8-1.8-1.7-2.7-2.6C315.1,260.5,316,261.3,316.9,262.2z"/>
	<path fill="none" d="M322.5,267c-1.9-1.5-3.8-3.1-5.6-4.8C318.7,263.8,320.6,265.4,322.5,267z"/>
	<path fill="none" d="M304.2,248.1c-0.1-0.2-0.2-0.3-0.2-0.5C304,247.7,304.1,247.9,304.2,248.1z"/>
	<path fill="none" d="M331.4,273.4c-3.1-2-6.1-4.1-8.9-6.4C325.3,269.3,328.3,271.4,331.4,273.4z"/>
	<path fill="none" d="M314.1,259.5c-1.6-1.6-3.2-3.3-4.7-5C311,256.2,312.5,257.9,314.1,259.5z"/>
	<path fill="none" d="M283.2,268.9c-0.2,0.6-0.4,1.1-0.5,1.7l0.1,0.4c0,0-0.1-0.4-0.1-0.4C282.8,270.1,283,269.5,283.2,268.9z"/>
	<path fill="none" d="M344.8,297.4C344.8,297.4,344.8,297.4,344.8,297.4c-0.1-2,1.5-2.5,2.8-3.2
		C346.2,294.9,344.7,295.4,344.8,297.4z"/>
	<path fill="none" d="M439.2,286.9c0,0-0.1-0.1-0.1-0.1c-1.3-2.3-2.7-4.5-4.2-6.5c1.5,2,2.9,4.2,4.2,6.5
		C439.2,286.8,439.2,286.9,439.2,286.9z"/>
	<path fill="none" d="M282.1,295.9c0,0.4,0.1,0.7,0.6,0.8l0,0c0,0,0,0,0,0C282.2,296.6,282.1,296.3,282.1,295.9z"/>
	<path fill="none" d="M283.4,268.5c0.1-0.1,0.1-0.3,0.2-0.4C283.5,268.3,283.5,268.4,283.4,268.5z"/>
	<path fill="none" d="M282.1,272.2c0.2-0.4,0.4-0.8,0.8-1.1C282.5,271.4,282.3,271.8,282.1,272.2z"/>
	<path fill="none" d="M294,260.6c0.2,0,0.3-0.1,0.5-0.1C294.3,260.5,294.1,260.5,294,260.6z"/>
	<path fill="none" d="M427.6,271.9c2.5,2.4,4.9,5.1,7,8C432.5,277,430.2,274.3,427.6,271.9z"/>
	<path fill="none" d="M281.8,274.1c0-0.1,0-0.1,0-0.2C281.8,273.9,281.8,274,281.8,274.1z"/>
	<path fill="none" d="M440.5,289c1.1,2,1.9,4.1,2.6,6.3C442.5,293.1,441.7,291,440.5,289z"/>
	<path fill="none" d="M546.4,359.2c0.3,0.6,0.5,1.3,0.7,2C546.9,360.4,546.6,359.8,546.4,359.2z"/>
	<path fill="none" d="M281.9,272.9c0.1-0.3,0.1-0.5,0.2-0.7C282,272.4,281.9,272.6,281.9,272.9z"/>
	<path fill="none" d="M305.6,250.1c0.3,0.4,0.7,0.7,1.2,1l0,0C306.3,250.8,305.9,250.4,305.6,250.1z"/>
	<path fill="none" d="M359.9,70c0,0-0.1,0.1-0.1,0.1l0,0C359.8,70.1,359.8,70,359.9,70z"/>
	<path fill="none" d="M280.8,306.5c0-0.2,0-0.3,0-0.5C280.8,306.2,280.8,306.4,280.8,306.5c1.2,2.3,2.3,4.7,3.5,7
		C283.1,311.2,281.9,308.9,280.8,306.5z"/>
	<path fill="none" d="M280.8,305.6c0,0.2,0,0.3,0,0.5C280.8,305.9,280.8,305.7,280.8,305.6z"/>
	<path fill="none" d="M419.7,339.4c2-1.6,3.9-3.3,5.8-5C423.6,336.1,421.6,337.8,419.7,339.4z"/>
	<path fill="none" d="M314.6,104.7c-3.7,6.4-6.5,13.5-8,21.5c-0.6,0.3-1.1,0.6-1.5,1c0.4-0.4,0.9-0.8,1.5-1
		C308.1,118.3,310.9,111.2,314.6,104.7z"/>
	<path fill="none" d="M485.4,273.2C485.5,273.2,485.5,273.2,485.4,273.2C485.5,273.2,485.5,273.2,485.4,273.2z"/>
	<path fill="none" d="M374,82.4c0.7-0.7,1.4-1.4,2.2-2.1c2.2-3.4,4.7-6.5,7.3-9.5c-2.7,3-5.2,6.1-7.3,9.5
		C375.5,81,374.7,81.7,374,82.4z"/>
	<path fill="none" d="M539.2,337.9c-0.4-1.5-0.8-3-1.2-4.5C538.4,334.9,538.8,336.4,539.2,337.9z"/>
	<path fill="none" d="M340.5,85.4c0.6-0.4,0.9-1.2,1.1-1.9h0C341.4,84.2,341.1,85,340.5,85.4z"/>
	<path fill="none" d="M281.8,276C281.8,276,281.8,276,281.8,276c-0.7,2.5-1,4.9-1.1,7.4C280.7,280.9,281.1,278.4,281.8,276z"/>
	<path fill="none" d="M431.7,139.6C431.7,139.6,431.7,139.6,431.7,139.6C431.7,139.6,431.7,139.6,431.7,139.6z"/>
	<path fill="none" d="M307,192.7c-0.1,0-0.2,0.1-0.3,0.2C306.8,192.8,306.9,192.7,307,192.7L307,192.7z"/>
	<path fill="#151818" d="M280.8,305.1c0,0.2,0,0.3,0,0.5c0,0.2,0,0.3,0,0.5c0,0.2,0,0.3,0,0.5c1.2,2.3,2.3,4.7,3.5,7
		c6.2,10.5,13.3,20.4,22.5,28.6c2.2,2,4.6,3.9,6.9,5.6c2.7,2,5.6,3.8,8.5,5.5c4.7,2.7,9.7,5,14.9,6.9c33.1,5.8,60.1-2.4,82.6-20.9
		c2-1.6,3.9-3.3,5.8-5c1.9-1.8,3.8-3.6,5.6-5.5c4.6-4.7,8.9-9.9,13.1-15.6c4.1-5.5,6.1-11.3,3.6-18.2c-0.5-1.4-1.1-3-0.1-4.7
		c2.8-4.6,4.2-4.6,8.5,0.5c6.2,5.7,6.2,5.6,11.9-1c0.5-0.6,1-1.1,1.5-1.7c1.5-1.6,3.2-3.2,4.8-4.8c3.4-4.4,5.8-7.4,7.9-8.9
		c1.1-0.9,2.1-1.3,3.2-1.3c0,0,0,0,0,0c0.7,0,1.4,0.2,2.2,0.6c0.2,0.1,0.4,0.2,0.6,0.4c0.4,0.3,0.8,0.6,1.2,0.9
		c1.8,1.7,4,4.4,6.9,8.2c3,4,5.8,8.3,8.8,12.3c0.7,0.9,1.6,2.2,3,1.9c1.5-0.4,1.3-2,1.6-3.2c1-4.2,0.2-8.5,0.4-13
		c2.6,0.5,3,2.8,3.9,4.3c11.1,19,18.1,39.6,23.5,60.8c0.2,0.8,0.5,1.5,0.8,2.3c0.1,0.3,0.2,0.5,0.3,0.8c0.4,0.3,0.6,0.6,0.8,1
		c0.5,1,0.2,2.3,0.2,3.4c-0.1,1.6,0.1,3.1,1,4.5c0.4-2.3,0.8-4.6,1.3-6.8c-0.5-4.6-1.5-9.2-2.6-13.7c-0.4-1.5-0.8-3-1.2-4.5
		c-1-3.6-2.1-7.2-3.3-10.9c2.6,0.7,2.8,2.7,3.5,4.2c7.7,15.4,13.4,31.5,17.9,47.9h4c-6.2-24.8-16.2-48.2-31.8-69.5
		c-1-1.3-1.8-2.7-2.5-4.2c-4.2-9-9.2-17.5-15-25.6c-1.9-2.7-3.4-5.4-3.9-8.8c-1.4-8.4-6.3-13.9-14.2-16.9c-2.6-1-5.1-2.1-7.8-3.3
		c3-4.1,7.7-6.6,8.1-11.6c0.4-5.1,3.1-6.8,7.7-7.7c9.8-2,19.2-5.2,26.9-11.9c6.9-6,8.3-12.7,3.7-20.7c-2.2-3.9-5-7.5-7.8-11
		c-5.1-6.4-7-12.9-5.3-21.5c4.2-20.9,2.7-41.3-9.5-59.8c-0.3-0.5-1.2-0.9-0.5-1.6c0.7-0.7,1.1,0.1,1.6,0.5
		c6,5.7,12.1,11.5,18.2,17.2c0.7-3-1.8-4.8-3.4-6.7c-29.5-33.3-64.6-57-110.1-61.3c-31.6-2.9-62.3,0.5-90.2,17.6
		c-23,14.1-41.8,31.8-51.3,57.8c-1.9,5.1-2.5,10.5-2.8,15.9c-0.1,1.3-0.1,3,1.4,3c1.5,0,1.6-1.7,1.7-3c0.5-6,1.6-11.8,3.9-17.3
		c6-14.3,15.5-25.9,26.7-36.3c1.3-1.2,2.8-4.1,4.5-2.5c1.6,1.6-1.2,3.3-2.3,4.7c-14,17.6-23.2,37.2-25.4,59.8
		c-0.2,2.6-1.4,4.2-3.1,5.9c-6.4,6.2-8,14.5-4.5,22.9c3.4,8.3,9.4,14.1,17.8,17c2.6,0.9,4.2,2.2,5.4,4.6c3.3,6.6,7.2,12.9,12.2,18.4
		c1.6,1.8,2,2.9,0.1,4.8c-4.4,4.3-6.6,9.8-7.9,15.7c-1,4.8-2.2,9.5-3.4,14.2c-0.4,1.7-1.1,2.8-3,3.2c-11.2,2.6-15.3,10.8-17,21.2
		c-1.4,8.7,1.4,16.8,2.6,25.1C280.5,303.6,280.7,304.4,280.8,305.1z M448.1,284.8c-1.7,2.4-3.1,2.5-4.8-0.2
		c-2.1-3.4-4.5-6.5-6.8-9.7c-10.4-10.6-22.2-18.8-36.3-23.6c-1.9-0.6-2.4-1.6-2.4-3.5c0.1-6.5,0.2-13,0-19.4
		c-0.3-10.8,3.9-19.5,11.7-26.8c5.6-5.2,11.9-9.3,18.7-12.7c0.5-0.2,1-0.5,1.5-0.7c0.5-0.2,1-0.3,1.4-0.5c0.5-0.1,0.9-0.2,1.4-0.2
		c0.7-0.1,1.4,0,2,0.1c0.4,0.1,0.9,0.2,1.3,0.4c0.8,0.4,1.7,0.9,2.4,1.7c0.2,0.2,0.4,0.4,0.6,0.6c0,0,0,0,0,0c1.7,1.6,2.7,2.9,3.3,4
		c0.1,0.3,0.2,0.6,0.3,0.9c0.1,0.4,0.1,0.8,0,1.2c-0.3,1.4-1.5,2.8-3.8,4.6c-5,4-9.4,8.4-11.2,14.8c-0.6,2.3-1.4,4.5,0.2,6.7
		c4.1-0.5,6.7-3.8,10.3-5.4c1.8-0.8,3.6-1.5,5.3-1.9c0.6-0.1,1.2-0.2,1.7-0.2c0.3,0,0.6,0,0.9,0c0,0,0.1,0,0.1,0
		c0.9,0.1,1.8,0.2,2.8,0.6c0.4,0.2,0.8,0.4,1.2,0.6c0.1,0.1,0.2,0.1,0.3,0.1c0.1,0.1,0.2,0.2,0.4,0.2c0.2,0.1,0.3,0.2,0.5,0.3
		c0.3,0.2,0.6,0.5,0.8,0.7c0.3,0.1,0.5,0.2,0.7,0.3c0.9,0.6,1.3,1.4,1.7,2.3c0.2,0.5,0.4,0.9,0.6,1.3c0.1,0.2,0.2,0.4,0.4,0.6
		c1.5,2,1.1,3.6-1.5,4.4c-4.5,1.3-8.5,3.8-12.5,6.2c-1.3,1.9-1.9,3.7,1.5,2.7c2.2-0.6,4.1-2.3,6.2-3.3c2.9-1.4,5.6-2.2,8-2.2
		c1,0,1.9,0.1,2.8,0.3c0.2,0,0.3,0.1,0.5,0.1c1.8,0.5,3.4,1.5,4.9,3c0.4,0.4,0.7,0.7,1,1.1c0.3,0.4,0.6,0.8,0.9,1.2c0,0,0,0,0,0
		c0.1,0.2,0.2,0.4,0.3,0.5c0.1,0.1,0.1,0.2,0.2,0.3c1.1,2,1.6,4.2,1.6,6.4c0,0,0,0,0,0c0,1.3-0.1,2.5-0.5,3.8
		c-0.2,0.6-0.3,1.2-0.6,1.8c-0.6,1.5-1.4,3-2.4,4.3c-0.2,0.3-0.4,0.5-0.7,0.8c-0.5,0.5-0.9,1-1.5,1.5c-1.8,1.7-4.1,3.1-6.7,4
		c0.5-3.5,2.7-5.5,5.1-7.4c0.9-0.8,2.4-1.6,1.3-3c-1.3-1.9-2.5-0.2-3.6,0.5c-5.8,4-7.8,8.6-6.1,15.6
		C455.2,272.8,452.4,279,448.1,284.8z M500.2,260.9c2.6,0.3,2.8,6,3.7,9.5c1.6,6.6,2.7,13.2,2.9,21.5c-5.9-7.9-10.7-14.7-16.4-20.8
		c-1.2-1.2-0.7-2.3,0.3-3.2C493.7,265.2,496.5,260.5,500.2,260.9z M486.7,251.1c3.7,1.2,8.9,2.2,9.8,5.8c0.7,2.8-4.3,5-6.8,7.5
		c-0.4,0.4-0.8,0.8-1.3,1c-2.6,1.2-3.7,5.4-7.3,4.3c-2-0.6-5.1-8.1-5.1-10.9C476,251.3,479.5,248.7,486.7,251.1z M489.8,232.8
		c-0.9,4.3-3.5,7.4-6.8,10.1c-2.8,2.3-5.7,4.4-7.6,7.6c-4,6.4-3.9,12.6,1,18.5c2.4,2.9,2.2,5-0.7,7.7c-4.2,3.9-7.8,8.5-11.5,12.9
		c-1.5,1.8-2.6,2.2-4.2,0c-1-1.4-2.3-2.8-3.8-3.8c-2.4-1.7-2.5-3.5-1.3-6c1.7-3.4,2.8-7.2,2.2-11c-0.5-3.4,0.6-5.1,3.5-6.8
		c9.7-6.1,13.8-15.6,10.7-24.7c-0.8-2.3-2.2-4.4-3.8-7.6c7.1,0,13.4,0.1,19.7-0.1C490,229.5,490.3,230.6,489.8,232.8z M309.5,213.2
		c-1.4-1.7-2.8-3.4-4-5.2c-2.6-3.6-5-7.4-7.1-11.4c2.8-1.2,5.5-2.3,8.2-3.5c0-0.1,0.1-0.3,0.1-0.4c0.1-0.1,0.2-0.2,0.3-0.2
		c-0.2-0.7-0.3-1.4-0.5-2.1c-15.3,4.5-28-2.2-31.3-16.6c-1.2-5.5-0.7-10.6,4-14.3c4.7-3.7,10-4.6,15.8-2.5c2.7,1,5,3.5,9.7,2.6
		c-5.2-4.5-10.1-7.6-15.9-7.2c-5.3,0.4-4.9-2-4.5-5.6c2.6-21.5,12.3-39.7,25.9-56.2c11-13.3,23.4-25,40-31.3
		c1.9-0.7,3.9-2.1,7.3-0.3c-16.7,9.9-30.8,21.9-41.5,37.6c-10.5,15.5-18,32-18.7,50.9c0.6,0.2,1.1,0.4,1.7,0.6
		c1.5-5.5,3-10.9,4.5-16.4c0.3-1.1,0.4-2.2,0.8-3.3c0.1-0.3,0.2-0.5,0.3-0.7s0.3-0.5,0.5-0.7c0.4-0.4,0.9-0.8,1.5-1
		c1.5-7.9,4.3-15,8-21.5c6.2-10.7,15-19.7,25-27.9c4-3.3,7.3-7.4,12-9.9c1.7-0.9,3.1-2.5,6.3-1.8c-5.3,5.9-10.2,11.5-15.2,17.1
		c-0.4,0.4-0.8,0.8-1.2,1.2c0,0,0.1,0,0.1,0c0,0,0,0,0,0h0c-0.2,0.8-0.5,1.5-1.1,1.9c-0.2,0.1-0.5,0.2-0.8,0.3l-0.1,0.1
		c-6.5,11.2-13.1,22.4-16.7,35c-2.7,9.5-5.5,18.9-4.4,29.6c2.9-1.6,2.4-4,2.7-5.9c3.4-22.6,10.9-43.5,25.2-61.6
		c0.7-0.9,1.4-1.8,2.1-2.8c0.5-0.6,1-1.2,1.4-1.8c0.5-0.6,1-1.2,1.5-1.8c0.4-0.4,0.8-0.9,1.2-1.3c2-2.1,4.3-3.9,7.1-5.1
		c0,0,0.1-0.1,0.1-0.1c2.1-2.2,4.3-4.3,6.6-6.2c1-0.8,2-1.6,3-2.3c1.7-1.2,3.5-2.3,5.4-3.2c4.4-2.2,9.2-3.6,14.5-4
		c-7.3,5.7-14.7,11.1-21.7,17.2c0.1,2.1-1.6,3.2-2.7,4.5c-11.8,13.6-18.7,29.5-22.6,46.9c-0.4,1.7-0.2,3.6-0.3,5.3
		c1.1,0,1.7-0.5,2.1-1.1c0.1-0.2,0.2-0.4,0.3-0.6c0.1-0.3,0.3-0.6,0.4-1c0.2-0.4,0.4-0.8,0.7-1.1c1-6.5,3-13.3,5.8-20
		c0.4-1,0.8-1.9,1.3-2.9c1.7-3.8,3.7-7.5,5.9-11.1c10.8-18,26.3-32.5,39.5-34.2c-3.1,3-6.1,5.8-9.1,8.7c-1.9,1.9-3.8,3.8-5.6,5.8
		c-2.7,3-5.2,6.1-7.3,9.5c-0.7,0.7-1.4,1.4-2.2,2.1l0,0c-2.2,7-5.4,13.8-6.2,21.2c-0.3,2.3-0.3,4.6-0.4,7c-0.1,1.4,0.4,2.7,1.8,2.9
		c2.1,0.1,1.4-1.7,1.4-2.8c0-1.4,0-2.7,0.1-4c0.1-1.3,0.4-2.6,1.1-3.9c0.5-5.5,2.5-11.4,5.5-17.2c0.3-0.6,0.7-1.3,1-1.9
		c1.1-1.9,2.2-3.8,3.5-5.6c1.2-1.8,2.6-3.6,4-5.3c0.9-1.1,1.9-2.2,2.9-3.2c6.8-7.3,14.7-12.4,21.5-12.8c-3.5,5.6-6.8,10.9-10,16.2
		c-4,9.3-7.6,18.6-8.6,28.7c-0.2,1.9-0.9,3.9,1.4,5.3c0.7-0.7,1.1-1.5,1.4-2.3c0.2-0.6,0.3-1.2,0.3-1.8c0-0.2,0-0.4,0-0.6
		c0-1-0.1-2.1-0.1-3.1c0-0.6,0.1-1.2,0.2-1.8c1.8-6.5,4.1-12.8,6.9-18.9c1.6-3.5,3.4-6.9,5.5-10.3c2.6-4.2,5.5-8.4,8.9-12.4
		c0.2,5.9,0.1,10.3-0.9,14.6c-0.9,9.3-1.9,18.5-2.7,27.8c-0.2,2-0.2,4,0,5.9c0.1,0.7,0.3,1.2,0.5,1.6c0.5,0.8,1.4,0.7,2.5-0.8
		c-0.1-7.7,0.7-15.4,1.7-23.1c0-0.3,0.1-0.5,0.1-0.8c0.2-1.7,0.4-3.4,0.7-5.2c0.3-2.1,0.5-4.2,0.8-6.4c0.5-4,0.8-8.1,1-12.3
		c2.9,3.5,4.4,6.8,5.9,10.1c6.4,12.1,9.5,25.2,11.9,38.5c0.3,1.8-0.1,5.4,3.6,2.5c-1.5-16.3-6.7-31.5-14.1-46.1
		c-0.6-1.1-1.3-2.2-1.9-3.3c-0.1-0.3-0.1-0.7-0.1-1c0,0,0,0,0,0c0,0,0,0,0,0c3.7,1.4,6.5,3.4,10,7.3c0.1,0.1,0.3,0.3,0.4,0.4
		c0.3,0.3,0.5,0.6,0.8,0.9c0.2,0.2,0.3,0.4,0.5,0.5c0.1,0,0.2,0,0.2,0.1c0,0,0,0,0.1,0.1c0.1,0.1,0.1,0.1,0.1,0.2c0,0.1,0,0.1,0,0.2
		l0.1,0.1c4.9,5,8.9,10.5,12.4,16.3c0.7,1.2,1.4,2.4,2.1,3.7c1.2,2.1,2.3,4.3,3.3,6.5c0.1,0.2,0.2,0.4,0.3,0.6c1,2.2,2,4.4,2.9,6.6
		c0.2,0.5,0.4,1.1,0.6,1.6c0.6,1.6,1.3,3.2,1.9,4.9c2.1,1.4,2.6,1,2.6,0.2c0-0.1,0-0.2,0-0.3c0-0.2-0.1-0.4-0.1-0.6
		c-0.1-0.4-0.3-0.9-0.4-1.2c-1.8-6.4-4.2-12.6-7.3-18.4c-5.2-9.8-12-18.3-19.3-26.6c5.5,1.8,10.6,4,13.8,9.2
		c12.3,8.5,19.9,20.6,26,33.9c0.1,0.3,0.2,0.5,0.3,0.8c0.1,0.3,0.2,0.5,0.3,0.8c0.2,0.5,0.4,1.1,0.6,1.6c0.5,1,1.3,1.8,2.8,2
		c0.5-2.1-0.1-4-0.9-5.9c-0.5-1.1-1-2.2-1.5-3.2c-3.9-9.1-9.2-17.4-15.3-25.4c3.7,1.2,6.7,3.3,9.4,5.8c0.6,0.5,1.2,1.1,1.8,1.7
		c0.6,0.6,1.1,1.1,1.7,1.7c0,0,0.1,0.1,0.1,0.1c0.8,0.9,1.7,1.8,2.5,2.7v0l0,0c0.2,0.6,0.3,1.3,0.5,1.9l0.1,0
		c6.1,3.4,9.1,9.5,12.7,15.1c0.2,0.2,0.3,0.5,0.4,0.7c0.9,1.8,1.3,3.9,3.5,4.8c0.8-2.8-0.1-5-1.3-7.1c-0.6-1-1.2-1.9-1.7-2.8
		c-6.4-10.9-16.1-18.8-25.1-27.7c1.1,0.4,2.4,0.5,3.2,1.1c8.9,6.7,18.1,13,26.1,20.8c9.5,9.3,15.8,20.4,18.1,33.1
		c1.9,10.1,4.1,20.4,1.1,31.2c-3,11-1.2,21.3,7.1,30.9c12.9,15,10.2,22.3-7.9,30.2c-16.2,7.1-33.1,8-50.4,7.5
		c-1.6-0.1-2.8-0.3-3.8-2.1c-8.1-14.1-12.5-15.4-26.8-8c-0.5,0.2-1,0.3-1.5,0.5c1.2-7.6,11.2-16.8,18.6-17.3
		c3.2-0.2,6.5-0.6,9.6-1.3c8.6-2.1,12.5-7.3,13.5-17.2c-2-10-9.4-13.8-18.4-15.7c-5.1-1.1-10.4-0.8-15.6-0.1
		c-1.3,0.2-3.5,0.1-3.3,1.9c0.2,2.1,2.1,1.2,3.5,1.1c5.7-0.2,11.5-0.6,17.2,0.9c4.1,1.1,7.8,2.7,10.1,6.6c5,7.6,3.1,14.5-4.9,18
		c-1.8,0.8-3.7,1.2-5.7,1.7c-5.6,1.4-10.7,1.8-12.4-5.5c-6.8-6.8-9.9-7.2-19.2-3c-1.8,0.8-4,3.5-5.6,1.8c-1.9-2,0.2-4.7,1.3-6.9
		c0.4-0.7,0.7-1.5,1.1-2.5c-4.4,0.9-6.9,3.9-6.3,8.7c0.3,3-0.7,4.6-2.7,6.4c-7.7,6.7-14.9,13.7-17.3,24.1c-0.5,2-1.8,2-3.3,1.6
		c-1.9-0.4-3.9-0.9-5.8-1.2c-3.1-0.6-5.6-1.4-4.1-5.5c0.4-1.1-0.1-2.5-0.4-3.7c-0.3-1.1-0.7-2.7-2.3-2.4c-1.4,0.3-0.9,1.8-0.9,2.8
		c0.4,6.1-1.8,11.3-5.5,16c-0.5,0.7-1.6,1.2-0.9,2.1c0.8,1,2,0.5,2.9-0.2c0.4-0.3,0.7-0.8,1.1-1.2c1.8-1.6,2.1-5.5,4.9-5.3
		c4.1,0.3,8,1.8,12,3c2.1,0.6,1.7,2.5,1.7,4.1c0,5.2-0.3,10.4-0.2,15.7c0.1,3.5-1,5-4.7,3.7c-2.4-0.9-4.9-1.5-6.7,1.3
		c-0.9,1.3-2.3,0.6-3.5,0.5c-4-0.6-7.9-1.4-11.7-2.3c-1.9-0.5-3.8-1-5.7-1.5c-0.9-0.3-1.9-0.6-2.8-0.9c-1.6-0.5-3.2-1.1-4.8-1.7
		c-2.5-0.9-5-1.9-7.4-3c-0.9-0.4-1.9-0.9-2.8-1.3c-3.1-1.5-6.1-3.2-9.1-5.1c-9-4.7-16.7-10.8-23.3-18
		C310.9,214.9,310.2,214.1,309.5,213.2z M304,241c1-4,2.5-7.9,4.5-11.5c3.8-6.7,4.5-6.8,10.3-1.2c12.9,9,26.3,17.1,41.7,21
		c5.6,1.4,11.2,2.7,17,3c3,0.1,3.3,1.1,2,3.6c-5.2,10.2-11.8,19.4-19.3,28c-1.7,2-3.5,2.1-5.8,1.2c-8.2-3.3-16-7.1-23.2-11.8
		c-3.1-2-6.1-4.1-8.9-6.4c-1.9-1.5-3.8-3.1-5.6-4.8c-0.9-0.8-1.8-1.7-2.7-2.6c0,0-0.1-0.1-0.1-0.1c-1.6-1.6-3.2-3.3-4.7-5
		c-0.9-1.1-1.8-2.2-2.7-3.3c-0.4-0.3-0.8-0.7-1.2-1c-0.6-0.6-1-1.3-1.4-2c-0.1-0.2-0.2-0.3-0.2-0.5c-0.3-0.7-0.4-1.5-0.5-2.3
		C303.4,243.9,303.6,242.5,304,241z M281.8,274.1c0-0.1,0-0.1,0-0.2c0-0.3,0.1-0.6,0.1-1c0.1-0.3,0.1-0.5,0.2-0.7
		c0.2-0.4,0.4-0.8,0.8-1.1l-0.1-0.4c0.1-0.6,0.3-1.2,0.5-1.7c0.1-0.1,0.1-0.3,0.2-0.4c0.1-0.1,0.1-0.3,0.2-0.4
		c1.8-3.6,5.9-6.2,10.4-7.6c0.2,0,0.3-0.1,0.5-0.1c0.6-0.2,1.2-0.3,1.8-0.4c0.3-0.1,0.7-0.1,1-0.2c0.7-0.1,1.4-0.2,2-0.2
		c3.4-0.2,6.6,0.2,9.1,1.5c3.7,1.9,6.9,4.5,10.1,7.2c9.2,7.7,19.4,13.5,30.4,18.2c1.7,0.7,4.7,0.4,4.7,2.5c0,2.1-2.5,3.2-4.6,4
		c-0.3,0.6-0.9,0.9-1.5,1.2c-1.3,0.7-2.9,1.2-2.8,3.2c4.7-0.5,8.5-2.5,12-5.2c1.6-1.2,3.1-2.6,4.6-4c9.7-9.1,16.7-20.2,22.5-32
		c2-4.1,4.4-5.3,8.4-2.9c5,1.3,9.7,2.9,14.2,4.8c2.3,1,4.5,2,6.6,3.2c1.1,0.6,2.1,1.2,3.1,1.8c4.1,2.5,7.9,5.4,11.4,8.8
		c2.5,2.4,4.9,5.1,7,8c0.1,0.1,0.2,0.2,0.3,0.4c1.5,2,2.9,4.2,4.2,6.5c0,0,0.1,0.1,0.1,0.1c0.5,0.7,0.9,1.4,1.3,2.1
		c1.1,2,1.9,4.1,2.6,6.3c0.2,0.8,0.5,1.7,0.7,2.5c0.3,1.3,0.6,2.6,0.9,3.9c0.5,2.3-0.6,3.8-1.6,5.5c-20.3,31.7-49.7,48.3-86.6,51.7
		c-13.9,1.3-26.5-4.1-37.9-12c-14-9.8-24.5-22.7-32.1-37.9c-1.9-3.8-3.7-7.8-3.8-12.3l0,0c-0.5-0.2-0.6-0.5-0.6-0.8
		c0-0.1,0.1-0.2,0.1-0.4c-0.5-2-0.9-4.1-1.2-6.1c-0.3-2-0.4-4.1-0.4-6.1c0-2.4,0.4-4.9,1.1-7.4C281.8,275.3,281.7,274.7,281.8,274.1
		z"/>
	<polygon fill="#151818" points="541.8,351.6 541.8,351.6 541.8,351.6 	"/>
	<path fill="#13181C" d="M542.9,353.9c-0.3-0.8-0.7-1.5-1-2.3c0,0,0,0,0,0c-0.4,2.3-0.8,4.6-1.3,6.8c0,0,0,0,0,0
		c0.6,4.4,1.1,8.8,1.7,13.2c0.1,1,0.3,2,0.4,3h3.4c0-0.2,0-0.4-0.1-0.6C544.9,367.3,543.9,360.6,542.9,353.9z"/>
	<path fill="#13181C" d="M262.4,364.7c1.3-1,2.4-0.1,3.5,0.3c9.1,3.6,18.3,6.8,27.6,9.6h13.6c-2.1-0.6-4.2-1.1-6.3-1.7
		c-4-1.1-7.9-2.2-11.9-3.5c-6.5-2.1-13-4.4-19.2-7.3c-3.8-0.4-5.6-2.1-6.2-5c-0.2-1-0.2-2.1-0.2-3.4c0.9-17.6,6.1-33.5,17.3-47.3
		c0-0.2,0-0.3,0-0.5s0-0.3,0-0.5c0-0.2,0-0.3,0-0.5c0-0.8-0.2-1.5-1-2c-12.6,14.2-18.9,30.9-19.4,49.8c-0.1,4.2-0.4,8-2.4,11.9
		c-1.6,3.1-2.5,6.6-2.7,9.9h4.1C259,370.6,260,366.5,262.4,364.7z"/>
	<path fill="#F7CF22" d="M311.2,204.4c6.5,9.4,12.5,19.4,22.3,26.1c1.3,0.9,1.4,2,1.4,3.2c3,1.9,6,3.5,9.1,5.1
		c0.9,0.5,1.9,0.9,2.8,1.3c2.4,1.1,4.9,2.1,7.4,3c1.6,0.6,3.2,1.1,4.8,1.7c0.9,0.3,1.9,0.6,2.8,0.9c1.9,0.5,3.8,1.1,5.7,1.5
		c3.8,0.9,7.7,1.7,11.7,2.3c1.2,0.2,2.6,0.8,3.5-0.5c1.9-2.8,4.3-2.2,6.7-1.3c3.7,1.3,4.8-0.2,4.7-3.7c-0.1-5.2,0.2-10.4,0.2-15.7
		c0-1.6,0.4-3.5-1.7-4.1c-4-1.1-7.9-2.6-12-3c-2.7-0.2-3,3.6-4.9,5.3c-0.4,0.4-0.7,0.8-1.1,1.2c-0.9,0.7-2,1.2-2.9,0.2
		c-0.8-0.9,0.3-1.4,0.9-2.1c3.7-4.7,5.9-9.9,5.5-16c-0.1-1-0.5-2.4,0.9-2.8c1.7-0.4,2,1.3,2.3,2.4c0.4,1.2,0.8,2.6,0.4,3.7
		c-1.5,4.1,1,5,4.1,5.5c1.9,0.4,3.9,0.8,5.8,1.2c1.6,0.3,2.9,0.3,3.3-1.6c2.4-10.4,9.6-17.5,17.3-24.1c2-1.7,3.1-3.4,2.7-6.4
		c-0.6-4.8,1.9-7.8,6.3-8.7c-0.4,1-0.7,1.8-1.1,2.5c-1.2,2.2-3.3,4.9-1.3,6.9c1.6,1.7,3.8-1,5.6-1.8c9.3-4.2,12.4-3.8,19.2,3
		c6.9-0.2,13.7,0.4,19.7-4.7c3.3-2.8,4.6-5.5,3.3-9.5c-2.3-3.9-6-5.5-10.1-6.6c-5.7-1.5-11.4-1.2-17.2-0.9c-1.3,0.1-3.3,1-3.5-1.1
		c-0.1-1.8,2.1-1.8,3.3-1.9c5.2-0.7,10.4-1,15.6,0.1c8.9,1.9,16.3,5.7,18.4,15.7c0.2,0.1,0.4,0,0.5,0.2c5.6,7.2,1.2,21.6-7.3,23.8
		c-3.1,0.8-6.3,1.5-10.2,2.4c3.1,2.9,5.8,5.4,8.4,7.9c0.9,0.9,2.2,1.6,2.6,2.7c2.1,5.9,6.2,6.6,11.8,5.6c12-2.2,23.5-5.4,33.3-12.7
		c6-4.4,6.5-8.4,3.1-15c-1.7-3.4-3.5-6.6-6-9.5c-1-1.2-2-2.4-2.9-3.6c-3.8-5.3-6.3-11.2-5.6-18.3c-4.8,2.9-9.8,5.3-15.3,5.8
		c-1.8,0.2-3.7,0.1-5.6-0.2c-15.1-2.4-25-16.9-22.2-32.3c2.2-12,16.9-19.9,31.9-16.9c3.1,0.6,6.1,2,9.2,3c0.6-0.3,1.8-0.8,1.8-0.9
		c-1.3-4.8-1.6-10.2-6.3-13.5c-2.2-0.9-2.6-3-3.5-4.8c-0.1-0.3-0.3-0.5-0.4-0.7c-3.6-5.6-6.6-11.6-12.7-15.1
		c-0.7,4.7,2.6,8,4.6,11.7c1.9,3.4,3.2,6.8,3.7,10.9c-2.9-0.2-4.4-2.4-6.7-1.9c-1.5-0.2-2.3-1-2.8-2c-0.3-0.5-0.5-1-0.6-1.6
		c-0.1-0.3-0.2-0.5-0.3-0.8c-0.1-0.3-0.2-0.5-0.3-0.8c-6.1-13.3-13.7-25.3-26-33.9c-0.5,2.2,0.8,3.7,2.1,5.2
		c8.3,9.4,13.3,20.6,16.9,32.5c0.3,1,0.5,2.1-0.7,3.3c-1.4-0.9-2.6-3.1-5-1c-1.1,1-2.7-0.2-2.6-2.2c-0.6-1.6-1.2-3.2-1.9-4.9
		c-0.2-0.5-0.4-1.1-0.6-1.6c-0.9-2.2-1.9-4.4-2.9-6.6c-0.1-0.2-0.2-0.4-0.3-0.6c-1-2.2-2.1-4.4-3.3-6.5c-0.7-1.2-1.4-2.5-2.1-3.7
		c-3.5-5.8-7.5-11.3-12.4-16.3c-1,2.5,0.5,4.3,1.3,6.5c4,10.5,6.7,21.5,8.9,32.5c0.3,1.4,0.8,3.5-1.1,4.3c-2.6,1.1-2.8-1.1-3.3-2.8
		c-0.2-0.8-1.2-0.3-1.9,0c-3.7,2.9-3.3-0.7-3.6-2.5c-2.4-13.3-5.5-26.4-11.9-38.5c-1.3,10.9-2.7,21.9-4.1,32.8
		c-0.3,2.6,1.3,5.7-1,7.7c-3.3,2.8-2.2-3.8-5.1-2.8c-1.1,1.5-2,1.5-2.5,0.8c-0.2-0.4-0.4-0.9-0.5-1.6c-0.3-1.9-0.2-3.9,0-5.9
		c0.9-9.3,1.8-18.6,2.7-27.8c-1.4,0-2.4,0.6-3.1,1.8c-5.1,10.2-10,20.4-11,32c-0.2,1.8-0.2,3.6-2.5,4.8c-1.3-2.6-0.6-5.3-0.7-7.8
		c0-2.2-0.2-4-3.1-3.8c-0.1,0.6-0.2,1.2-0.2,1.8c0,1,0.1,2.1,0.1,3.1c0,0.2,0,0.4,0,0.6c0,0.6-0.1,1.2-0.3,1.8
		c-0.2,0.8-0.7,1.5-1.4,2.3c-2.3-1.4-1.5-3.4-1.4-5.3c1-10.1,4.7-19.5,8.6-28.7c-0.1-1.6-0.1-3.2-0.2-4.8c0,0,0,0,0,0
		c-3.4,0.5-5.2,3.3-7,5.6c-8.9,11.3-15.9,23.5-15.8,38.6c0,1.6,0.3,3.9-1.8,3.9c-2.3,0-2.1-2.1-2.1-4c0-2-0.5-3.8,0.3-5.8
		c0.7-1.5,0.7-3.3-1.8-3.6c-0.6,1.3-0.9,2.6-1.1,3.9c-0.1,1.3-0.1,2.7-0.1,4c0,1.1,0.6,2.9-1.4,2.8c-1.5-0.1-1.9-1.5-1.8-2.9
		c0.1-2.3,0.2-4.7,0.4-7c0.9-7.4,4-14.2,6.2-21.2c-6.8,3.7-9.7,10.5-13.2,16.8c-5,9-7,19-9.6,28.8c-0.4,1.4-0.2,3.4-1.9,3.5
		c-2.2,0.1-1.2-2.1-1.5-3.3c-0.4-1.4-0.8-2.8-2-3.7c-0.3,0.3-0.5,0.7-0.7,1.1c-0.1,0.3-0.3,0.6-0.4,1c-0.1,0.2-0.2,0.4-0.3,0.6
		c-0.4,0.7-1,1.1-2.1,1.1c0.1-1.8-0.1-3.6,0.3-5.3c3.8-17.4,10.8-33.3,22.6-46.9c1.1-1.3,2.8-2.4,2.7-4.5c-3.5,0-5.4,2.7-7.4,4.8
		c-10.8,11.4-19.6,24.3-24.9,39.1c-3.7,10-7,20.3-8.1,31c-0.2,2-0.7,3.8-2.3,6.2c-1.7-4.2-1.4-8.1-0.8-11.7
		c4.8-25.3,15.5-47.8,33.2-66.7c1.1-1.2,2.4-2.2,2.2-4.1l0,0c-2.8,1.2-5.1,3-7.1,5.1c-0.4,0.4-0.8,0.9-1.2,1.3
		c-0.5,0.6-1,1.2-1.5,1.8c-0.5,0.6-1,1.2-1.4,1.8c-0.7,0.9-1.4,1.8-2.1,2.8c-14.3,18.1-21.8,39-25.2,61.6c-0.3,1.9,0.2,4.3-2.7,5.9
		c-1.1-10.6,1.7-20.1,4.4-29.6c3.6-12.6,10.2-23.7,16.7-35c-5.7,1.5-8,6.7-11.3,10.8c-12.1,14.8-18,32.4-22.5,50.6
		c-0.3,1.4,0.1,3.9-2.2,3.3c-1.8-0.5-1-2.7-0.7-4.3c1.3-6.7,2.5-13.3,3.7-20c-0.6,0.3-1.1,0.6-1.5,1c-0.2,0.2-0.3,0.4-0.5,0.7
		c-0.1,0.2-0.3,0.5-0.3,0.7c-0.4,1-0.5,2.2-0.8,3.3c-1.5,5.5-3,10.9-4.5,16.4c-0.6-0.2-1.1-0.4-1.7-0.6c0.7-18.8,8.1-35.4,18.7-50.9
		c10.7-15.6,24.8-27.6,41.5-37.6c-3.4-1.8-5.4-0.4-7.3,0.3c-16.6,6.3-28.9,18-40,31.3c-13.6,16.4-23.3,34.6-25.9,56.2
		c-0.4,3.6-0.8,6,4.5,5.6c5.8-0.4,10.7,2.7,15.9,7.2c-4.7,0.9-6.9-1.6-9.7-2.6c-5.8-2.1-11.1-1.3-15.8,2.5c-4.6,3.7-5.2,8.8-4,14.3
		c3.3,14.4,16,21.2,31.3,16.6c0.8,0,1.8-0.2,1.9,1c0,0.3-0.9,0.7-1.4,1.1c-0.1,0-0.2,0.1-0.3,0.2c-0.1,0.1-0.1,0.2-0.1,0.4
		C306.1,197.7,309,201.2,311.2,204.4z M393.1,119.8c6.2-1.5,11.9-1.5,17-0.3c9.7,2.3,17,9.4,21,20.6c0.2-0.2,0.4-0.4,0.7-0.4
		c0,0,0,0,0,0c0.1,0,0.2,0,0.3,0c0.1,0,0.1,0.1,0.1,0.2c-0.4,4.9,2,10-1.4,14.6c-5.2,14.1-15.2,20.7-30.3,19.9
		c-13-0.6-24.1-9.8-27.2-22.5C369.7,137.2,378.3,123.2,393.1,119.8z M295.9,173c-1.8,0.1-3.9-2.7-5.3-0.4c-1.3,2.1,0.5,4.3,1.6,6.4
		c0.5,1.1,3.7,2.2,0.5,3.8c-5.6,1.1-8.5-1.7-9.7-6.8c-2.3-2-1.5-5.1,1.7-6.9c4-2.3,9.1-0.9,12.6,3.4
		C296.8,172.7,296.4,173,295.9,173z"/>
	<path fill="#98D5D8" d="M503.7,328.9c-7-16.9-17.2-31.7-29.3-45.4c-1.6,1.6-3.2,3.2-4.8,4.8c-0.5,0.5-1,1.1-1.5,1.7
		c-5.7,6.6-5.6,6.6-11.9,1c-4.1,3.6-2.9,6.4,0.9,9.4c8,6.1,8.9,17,1.9,26.3c-17,22.6-39.6,34.5-67.7,37.3
		c-16.7,1.7-33.2,3.3-49.7-1.3c-1.7-0.5-3.5-0.7-4.6-2.4c-5.2-1.9-10.2-4.2-14.9-6.9c-2.9-1.7-5.8-3.5-8.5-5.5
		c-2.4-1.7-4.7-3.6-6.9-5.6c-9.2-8.2-16.2-18.1-22.5-28.6c-6,8.9-10.5,18.3-12.6,29.2c-1.3,6.6-1.1,13-1.8,19.5
		c6.3,2.9,12.7,5.2,19.2,7.3c3.9,1.2,7.9,2.4,11.9,3.5c2.1,0.6,4.2,1.1,6.3,1.7h202.5c0.4-2,0.8-4,1-6.1
		C511.7,354.6,508.9,341.6,503.7,328.9z"/>
	<path fill="#99D6D8" d="M281.8,276c-0.7,2.5-1,4.9-1.1,7.4c0,2,0.1,4.1,0.4,6.1c0.3,2,0.7,4.1,1.2,6.1c0.1,0.4,0.3,0.8,0.4,1.2
		c0,0,0,0,0,0c2.9-0.2,3.4,2.4,4.4,4.1c9.2,14.9,21.5,26.4,37.1,34.1c11.2,5.5,23.4,6.6,35.3,4.5c27.9-4.9,51.7-17.7,70-39.9
		c3.4-4.1,5.3-9.4,9.7-12.8c-1.3-2.3-2.7-4.5-4.2-6.5c-0.1-0.1-0.2-0.2-0.3-0.4c-2.2-2.9-4.5-5.6-7-8c-3.5-3.4-7.3-6.3-11.4-8.8
		c-1-0.6-2.1-1.2-3.1-1.8c-2.1-1.2-4.3-2.2-6.6-3.2c-4.5-1.9-9.3-3.5-14.2-4.8c-8.4,16.5-19.1,31-34.3,42c-2.9,2.1-6,3.8-9.1,5.6
		c-1.4,0.8-3,1.8-4.5,0.5c-1.3-1.2,0.6-2.6,0.4-4c-0.1-2,1.5-2.5,2.8-3.2c0.6-0.3,1.2-0.7,1.5-1.2c-5.7-4.9-13-7-19.1-11.2
		c-5.5-3.7-10.9-7.4-16.1-11.5c-11-8.8-15.8-7.6-28.2-0.8c-1,0.5-1.8,1.2-2.9,1.1c0,0,0.1,0.4,0.1,0.4
		C282.6,272.7,283.5,274.6,281.8,276z"/>
	<path fill="#59C0BE" d="M540.5,358.5C540.5,358.5,540.5,358.5,540.5,358.5c-0.9-1.4-1.1-2.9-1-4.5c-0.9-1.3-1.1-2.8-1.1-4.4
		c-0.1-0.3-0.2-0.5-0.3-0.8c-0.3-0.8-0.6-1.5-0.8-2.3c-5.4-21.2-12.4-41.8-23.5-60.8c-0.9-1.5-1.2-3.8-3.9-4.3
		c-0.2,4.4,0.7,8.7-0.4,13c-0.3,1.2,0,2.8-1.6,3.2c-1.4,0.3-2.3-0.9-3-1.9c-3-4.1-5.7-8.3-8.8-12.3c-2.9-3.8-5-6.5-6.9-8.2
		c-0.4-0.4-0.8-0.7-1.2-0.9c-0.2-0.1-0.4-0.2-0.6-0.4c-0.8-0.4-1.5-0.6-2.2-0.6c0,0,0,0,0,0c-1,0-2,0.5-3.2,1.3
		c-2.1,1.6-4.5,4.6-7.9,8.9c12.1,13.6,22.3,28.5,29.3,45.4c5.2,12.7,8,25.7,6.9,39.7c-0.2,2.1-0.6,4.1-1,6.1h33.1
		c-0.1-1-0.3-2-0.4-3C541.7,367.2,541.1,362.9,540.5,358.5z"/>
	<path fill="#F7CF22" d="M449.4,259.9c1.3-6.9,4.4-11.8,10.7-14.1c4.6-1.6,5.2-4.5,4.8-8.5c-0.1-1.2,0-2.5,0-3.8
		c-1.5-1.5-3.1-2.4-4.9-3c-0.2,0-0.3-0.1-0.5-0.1c-0.9-0.2-1.8-0.3-2.8-0.3c-2.4,0-5.1,0.7-8,2.2c-2.1,1-4,2.7-6.2,3.3
		c-3.4,1-2.7-0.9-1.5-2.7c-0.2-1.8,1.3-2.3,2.4-3.1c4.5-2.8,7.1-6.9,8.2-12.1c0,0,0,0,0,0c-0.3-0.3-0.6-0.5-0.8-0.7
		c-0.2-0.1-0.3-0.2-0.5-0.3c-0.1-0.1-0.2-0.2-0.4-0.2c-0.1-0.1-0.2-0.1-0.3-0.1c-0.4-0.2-0.8-0.4-1.2-0.6c-0.9-0.4-1.8-0.6-2.8-0.6
		c0,0-0.1,0-0.1,0c-0.3,0-0.6,0-0.9,0c-0.6,0-1.2,0.1-1.7,0.2c-1.7,0.3-3.5,1.1-5.3,1.9c-3.5,1.6-6.2,4.9-10.3,5.4
		c-4.6-5-3.7-14.3,1.9-19.3c1.7-1.5,3.4-3.2,5.3-4.4c3.3-2,4.5-4.9,4-8.6l0,0c-0.2-0.2-0.4-0.4-0.6-0.6c-0.8-0.8-1.6-1.3-2.4-1.7
		c-0.4-0.2-0.8-0.3-1.3-0.4c-0.7-0.1-1.3-0.2-2-0.1c-0.5,0-0.9,0.1-1.4,0.2c-0.5,0.1-1,0.3-1.4,0.5c-0.5,0.2-1,0.4-1.5,0.7
		c-6.9,3.3-13.1,7.5-18.7,12.7c-7.8,7.2-12,16-11.7,26.8c0.2,6.5,0.1,13,0,19.4c0,2,0.5,2.9,2.4,3.5c14.1,4.8,26,13.1,36.3,23.6
		C444.1,272.7,448.1,266.8,449.4,259.9z"/>
	<path fill="#59C0BE" d="M429.5,299.5c-18.3,22.2-42.1,35.1-70,39.9c-11.8,2.1-24.1,1-35.3-4.5c-15.6-7.8-27.9-19.3-37.1-34.1
		c-1-1.6-1.5-4.3-4.4-4.1c0.1,4.4,1.8,8.4,3.8,12.3c7.7,15.2,18.1,28.1,32.1,37.9c11.3,8,24,13.3,37.9,12
		c36.9-3.5,66.3-20.1,86.6-51.7c1.1-1.6,2.1-3.2,1.6-5.5c-0.3-1.3-0.6-2.6-0.9-3.9c-0.2-0.9-0.4-1.7-0.7-2.5
		c-0.6-2.2-1.5-4.3-2.6-6.3c-0.4-0.7-0.8-1.4-1.3-2.1c0,0-0.1-0.1-0.1-0.1C434.8,290.2,432.9,295.4,429.5,299.5z"/>
	<path fill="#D8B430" d="M501.1,122.5c0,0.1-1.2,0.6-1.8,0.9c13.4,8.8,16.2,28.4,2,40.6c-0.7,7.1,1.7,13,5.6,18.3
		c0.9,1.2,1.8,2.4,2.9,3.6c2.5,2.9,4.3,6.1,6,9.5c3.3,6.6,2.9,10.6-3.1,15c-9.9,7.2-21.4,10.5-33.3,12.7c-5.6,1-9.7,0.3-11.8-5.6
		c-0.4-1.1-1.7-1.8-2.6-2.7c-2.6-2.5-5.3-5-8.4-7.9c3.9-0.9,7.1-1.6,10.2-2.4c8.5-2.1,13-16.6,7.3-23.8c-0.1-0.1-0.3-0.1-0.5-0.2
		c-1,10-4.9,15.1-13.5,17.2c-3.1,0.8-6.4,1.1-9.6,1.3c-7.4,0.5-17.5,9.7-18.6,17.3c0.5-0.2,1.1-0.2,1.5-0.5
		c14.3-7.3,18.7-6.1,26.8,8c1,1.8,2.2,2.1,3.8,2.1c17.2,0.6,34.1-0.4,50.4-7.5c18.1-7.9,20.8-15.2,7.9-30.2
		c-8.3-9.6-10.1-20-7.1-30.9c3-10.8,0.8-21.1-1.1-31.2c-2.3-12.7-8.6-23.8-18.1-33.1c-8-7.9-17.2-14.2-26.1-20.8
		c-0.9-0.7-2.1-0.8-3.2-1.1c9.1,8.9,18.8,16.8,25.1,27.7c0.6,0.9,1.2,1.9,1.7,2.8c1.2,2.1,2.2,4.4,1.3,7.1c0,0,0,0,0,0
		C499.5,112.3,499.8,117.7,501.1,122.5z"/>
	<path fill="#98D5D8" d="M308.9,246.7c-0.1,1.9-0.3,3.6-2.2,4.5l0,0c0.9,1.1,1.8,2.2,2.7,3.3c1.5,1.7,3.1,3.4,4.7,5
		c0,0,0.1,0.1,0.1,0.1c0.9,0.9,1.8,1.7,2.7,2.6c1.8,1.7,3.7,3.3,5.6,4.8c2.9,2.3,5.9,4.4,8.9,6.4c7.2,4.6,15,8.5,23.2,11.8
		c2.2,0.9,4,0.8,5.8-1.2c7.4-8.7,14.1-17.8,19.3-28c1.3-2.5,0.9-3.5-2-3.6c-5.8-0.3-11.4-1.6-17-3c-15.5-4-28.8-12-41.7-21
		C312.4,232.7,309.5,239.1,308.9,246.7z"/>
	<path fill="#59C0BE" d="M337,360.2c1.1,1.7,2.9,1.9,4.6,2.4c16.5,4.5,33,2.9,49.7,1.3c28.1-2.8,50.7-14.7,67.7-37.3
		c7.1-9.4,6.2-20.2-1.9-26.3c-3.8-2.9-5-5.8-0.9-9.4c-4.3-5-5.8-5.1-8.5-0.5c-1,1.7-0.4,3.3,0.1,4.7c2.5,6.8,0.5,12.7-3.6,18.2
		c-4.2,5.6-8.6,10.8-13.1,15.6c-1.8,1.9-3.7,3.7-5.6,5.5c-1.9,1.8-3.8,3.4-5.8,5C397.2,357.8,370.2,366,337,360.2z"/>
	<path fill="#D8B430" d="M487.3,229.5c-6.3,0.2-12.6,0.1-19.7,0.1c1.6,3.2,3,5.3,3.8,7.6c3.1,9.1-1,18.6-10.7,24.7
		c-2.8,1.8-4,3.4-3.5,6.8c0.6,3.8-0.5,7.6-2.2,11c-1.3,2.5-1.2,4.3,1.3,6c1.4,1,2.7,2.4,3.8,3.8c1.5,2.1,2.7,1.7,4.2,0
		c3.7-4.4,7.4-8.9,11.5-12.9c2.8-2.7,3.1-4.8,0.7-7.7c-4.9-5.9-4.9-12.1-1-18.5c1.9-3.1,4.9-5.3,7.6-7.6c3.3-2.7,5.8-5.9,6.8-10.1
		C490.3,230.6,490,229.5,487.3,229.5z"/>
	<path fill="#DEB92B" d="M347.8,128.1c0.3,1.2-0.7,3.4,1.5,3.3c1.7-0.1,1.5-2.1,1.9-3.5c2.6-9.8,4.6-19.8,9.6-28.8
		c3.5-6.3,6.4-13.1,13.2-16.8l0,0c-0.1-1.4-0.5-2.9,1.2-3.7c0.1,0,0.6,1,1,1.6c2.2-3.4,4.7-6.5,7.3-9.5c1.8-2,3.7-3.9,5.6-5.8
		c2.9-2.9,6-5.7,9.1-8.7C385,58,369.6,72.5,358.8,90.5c-2.2,3.6-4.1,7.3-5.9,11.1c-0.4,0.9-0.9,1.9-1.3,2.9
		c-2.8,6.7-4.9,13.5-5.8,20C347.1,125.3,347.4,126.7,347.8,128.1z"/>
	<path fill="#DEB92B" d="M302.9,146.2c-0.3,1.6-1.1,3.8,0.7,4.3c2.4,0.7,1.9-1.9,2.2-3.3c4.6-18.2,10.4-35.8,22.5-50.6
		c3.3-4,5.6-9.2,11.3-10.8l0.1-0.1c-0.6-1.8,0.3-2.3,1.8-2.2c0.4-0.4,0.8-0.8,1.2-1.2c5-5.6,9.9-11.2,15.2-17.1
		c-3.2-0.7-4.6,0.9-6.3,1.8c-4.7,2.5-8,6.6-12,9.9c-10,8.2-18.8,17.2-25,27.9c-3.7,6.4-6.5,13.5-8,21.5
		C305.4,132.8,304.2,139.5,302.9,146.2z"/>
	<path fill="#DEB92B" d="M357.5,74.2c-17.7,18.9-28.4,41.4-33.2,66.7c-0.7,3.6-1,7.5,0.8,11.7c1.6-2.4,2.1-4.2,2.3-6.2
		c1.1-10.7,4.5-21,8.1-31c5.4-14.7,14.2-27.6,24.9-39.1c2-2.1,3.9-4.8,7.4-4.8c7-6.1,14.4-11.5,21.7-17.2c-5.3,0.4-10.2,1.8-14.5,4
		c-1.9,0.9-3.7,2-5.4,3.2c-1,0.7-2,1.5-3,2.3c-2.3,1.9-4.5,3.9-6.6,6.2c0,0-0.1,0.1-0.1,0.1C359.9,72,358.6,73,357.5,74.2z"/>
	<path fill="#59C0BE" d="M534.7,322.6c1.1,3.7,2.3,7.3,3.3,10.9c0.4,1.5,0.8,3,1.2,4.5c1.2,4.5,2.1,9.1,2.6,13.7c0,0,0,0,0,0
		c0.3,0.8,0.7,1.5,1,2.3c1.1,1,2,2.2,2.6,3.4c0.3,0.6,0.6,1.2,0.9,1.9s0.5,1.3,0.7,2c0.2,0.7,0.4,1.3,0.6,2c0.5,2,0.9,4.1,1.5,6
		c0.5,1.8,1.1,3.7,1.6,5.5h5.4c-4.4-16.5-10.2-32.5-17.9-47.9C537.5,325.3,537.3,323.2,534.7,322.6z"/>
	<path fill="#DEB92B" d="M373.6,106.4c-0.9,2-0.4,3.8-0.3,5.8c0,1.9-0.1,4.1,2.1,4c2,0,1.8-2.4,1.8-3.9
		c-0.2-15.1,6.9-27.2,15.8-38.6c1.8-2.3,3.6-5.1,7-5.6c0.2-0.1,0.3-0.3,0.5-0.4c-0.1,0.2-0.3,0.3-0.4,0.5c0.1,1.6,0.1,3.2,0.2,4.8
		c3.3-5.3,6.6-10.6,10-16.2c-6.8,0.4-14.7,5.5-21.5,12.8c-1,1-1.9,2.1-2.9,3.2c-1.4,1.7-2.7,3.4-4,5.3c-1.2,1.8-2.4,3.7-3.5,5.6
		c-0.4,0.6-0.7,1.3-1,1.9c-3,5.8-5,11.7-5.5,17.2C374.2,103.1,374.2,104.8,373.6,106.4z"/>
	<path fill="#D8B430" d="M459.4,249.6c1.1-0.7,2.2-2.4,3.6-0.5c1,1.5-0.4,2.3-1.3,3c-2.3,1.9-4.6,3.8-5.1,7.4c2.6-1,4.9-2.4,6.7-4
		c0.5-0.5,1-1,1.5-1.5c0.2-0.3,0.4-0.5,0.7-0.8c1-1.4,1.9-2.8,2.4-4.3c0.2-0.6,0.4-1.2,0.6-1.8c0.3-1.2,0.5-2.5,0.5-3.8c0,0,0,0,0,0
		c0-2.2-0.5-4.4-1.6-6.4c-0.1-0.1-0.1-0.2-0.2-0.3c-0.1-0.2-0.2-0.4-0.3-0.5c0,0,0,0,0,0c-0.3-0.4-0.6-0.8-0.9-1.2
		c-0.3-0.4-0.6-0.8-1-1.1c0,1.3-0.2,2.5,0,3.8c0.4,4-0.2,6.9-4.8,8.5c-6.3,2.2-9.3,7.2-10.7,14.1c-1.4,6.9-5.3,12.8-12.8,15
		c2.3,3.2,4.7,6.3,6.8,9.7c1.7,2.7,3.1,2.6,4.8,0.2c4.2-5.9,7.1-12.1,5.2-19.6C451.6,258.2,453.6,253.6,459.4,249.6z"/>
	<path fill="#C4E0DF" d="M269.8,362.2c0.7-6.5,0.5-12.9,1.8-19.5c2.1-10.9,6.6-20.2,12.6-29.2c-1.2-2.3-2.3-4.7-3.5-7
		c-11.2,13.8-16.5,29.7-17.3,47.3c-0.1,1.3,0,2.4,0.2,3.4C264.2,360.2,266,361.8,269.8,362.2z"/>
	<path fill="#C4E0DF" d="M285.7,269.5c12.3-6.8,17.2-8,28.2,0.8c5.1,4.1,10.6,7.8,16.1,11.5c6.2,4.2,13.5,6.3,19.1,11.2
		c2-0.8,4.6-1.9,4.6-4c0-2.1-3-1.8-4.7-2.5c-11-4.6-21.2-10.5-30.4-18.2c-3.2-2.7-6.4-5.2-10.1-7.2c-2.4-1.3-5.7-1.7-9.1-1.5
		c-0.7,0-1.4,0.1-2,0.2c-0.3,0.1-0.7,0.1-1,0.2c-0.6,0.1-1.2,0.3-1.8,0.4c-0.2,0-0.3,0.1-0.5,0.1c-4.5,1.3-8.6,3.9-10.4,7.6
		c-0.1,0.1-0.1,0.3-0.2,0.4c-0.1,0.1-0.1,0.3-0.2,0.4c-0.2,0.6-0.4,1.1-0.5,1.7C283.9,270.7,284.7,270,285.7,269.5z"/>
	<path fill="#DEB92B" d="M397.7,101.1c0.1,2.5-0.6,5.2,0.7,7.8c2.3-1.2,2.4-3,2.5-4.8c1-11.6,5.9-21.8,11-32
		c0.6-1.2,1.7-1.8,3.1-1.8c1-4.3,1.1-8.7,0.9-14.6c-3.4,4.1-6.3,8.2-8.9,12.4c-2.1,3.4-3.9,6.8-5.5,10.3c-2.8,6.1-5.1,12.4-6.9,18.9
		C397.5,97.1,397.7,98.9,397.7,101.1z"/>
	<path fill="#98D5D8" d="M547.6,363.1c-0.2-0.7-0.3-1.3-0.6-2c-0.2-0.7-0.4-1.3-0.7-2s-0.6-1.3-0.9-1.9c-0.7-1.2-1.5-2.4-2.6-3.4
		c1,6.7,2.1,13.4,3.1,20.1c0,0.2,0.1,0.4,0.1,0.6h4.6c-0.5-1.8-1-3.7-1.6-5.5C548.5,367.2,548.1,365.1,547.6,363.1z"/>
	<path fill="#C4E0DF" d="M344.4,301.4c1.4,1.3,3.1,0.2,4.5-0.5c3.1-1.8,6.2-3.5,9.1-5.6c15.1-10.9,25.9-25.5,34.3-42
		c-4-2.4-6.4-1.1-8.4,2.9c-5.8,11.8-12.8,22.9-22.5,32c-1.5,1.4-3,2.7-4.6,4c-3.5,2.7-7.4,4.7-12,5.2c0,0,0,0,0,0
		C345,298.8,343.1,300.2,344.4,301.4z"/>
	<path fill="#D8B430" d="M443,108.2c0.5,1.8,0.6,3.9,3.3,2.8c2-0.8,1.4-2.9,1.1-4.3c-2.2-11-4.9-22-8.9-32.5c-0.8-2.2-2.3-4-1.3-6.5
		l-0.1-0.1c-0.3,0-0.5,0-0.8,0c0.2-0.2,0.3-0.4,0.5-0.6c-0.2-0.2-0.3-0.4-0.5-0.5c-0.3-0.3-0.6-0.6-0.8-0.9
		c-0.1-0.1-0.3-0.3-0.4-0.4c-3.6-3.9-6.3-5.9-10-7.3c0,0,0,0,0,0c0,0.3,0,0.7,0.1,1c0.6,1.1,1.3,2.2,1.9,3.3
		c7.4,14.5,12.6,29.7,14.1,46.1C441.7,108,442.7,107.5,443,108.2z"/>
	<path fill="#DEB92B" d="M420.5,107.6c2.3-1.9,0.7-5.1,1-7.7c1.4-10.9,2.7-21.9,4.1-32.8c-1.5-3.3-3-6.6-5.9-10.1
		c-0.2,4.2-0.5,8.3-1,12.3c-0.2,2.1-0.5,4.3-0.8,6.4c-0.2,1.7-0.4,3.5-0.7,5.2c0,0.3-0.1,0.5-0.1,0.8c-1,7.7-1.8,15.4-1.7,23.1
		c0,0,0,0,0,0C418.2,103.8,417.2,110.4,420.5,107.6z"/>
	<path fill="#59C0BE" d="M476,258.7c0,2.9,3.1,10.3,5.1,10.9c3.7,1.1,4.7-3.1,7.3-4.3c0.5-0.2,0.9-0.6,1.3-1
		c2.5-2.5,7.5-4.8,6.8-7.5c-0.9-3.5-6.1-4.5-9.8-5.8C479.5,248.7,476,251.3,476,258.7z"/>
	<path fill="#D8B430" d="M334.9,233.7c0-1.3-0.1-2.4-1.4-3.2c-9.8-6.6-15.8-16.6-22.3-26.1c-2.2-3.2-5-6.7-4.6-11.2
		c-2.7,1.1-5.4,2.3-8.2,3.5c2.2,4,4.5,7.8,7.1,11.4c1.3,1.8,2.6,3.5,4,5.2c0.7,0.8,1.4,1.7,2.1,2.5
		C318.2,222.9,325.9,228.9,334.9,233.7z"/>
	<path fill="#D8B430" d="M460.6,107.9c-0.1,2,1.5,3.1,2.6,2.2c2.4-2.2,3.6,0.1,5,1c1.2-1.2,1-2.3,0.7-3.3
		c-3.6-11.9-8.7-23-16.9-32.5c-1.4-1.6-2.6-3-2.1-5.2c-3.2-5.2-8.3-7.4-13.8-9.2c7.3,8.3,14.1,16.9,19.3,26.6
		c3.1,5.9,5.5,12.1,7.3,18.4c0.1,0.3,0.2,0.8,0.4,1.2c0.1,0.2,0.1,0.4,0.1,0.6c0,0.1,0,0.2,0,0.3
		C463.2,108.9,462.7,109.3,460.6,107.9z"/>
	<path fill="#59C0BE" d="M490.7,267.9c-1.1,1-1.5,2-0.3,3.2c5.7,6.1,10.5,13,16.4,20.8c-0.2-8.4-1.3-15-2.9-21.5
		c-0.8-3.5-1-9.2-3.7-9.5C496.5,260.5,493.7,265.2,490.7,267.9z"/>
	<path fill="#D8B430" d="M486.5,111c-0.5-4.1-1.9-7.5-3.7-10.9c-2-3.7-5.3-6.9-4.6-11.7l-0.1,0c-0.8,0.1-1.9,0.4-2-0.9
		c-0.1-0.8,0.8-0.9,1.5-1l0,0c-0.8-0.9-1.7-1.8-2.5-2.7c0,0-0.1-0.1-0.1-0.1c-0.6-0.6-1.1-1.2-1.7-1.7c-0.6-0.6-1.2-1.1-1.8-1.7
		c-2.7-2.5-5.7-4.6-9.4-5.8c6,8.1,11.3,16.3,15.3,25.4c0.5,1.1,1,2.1,1.5,3.2c0.8,1.8,1.4,3.7,0.9,5.9c0,0,0,0,0,0
		C482.1,108.6,483.6,110.8,486.5,111z"/>
	<path fill="#D8B430" d="M463.7,184.9c-5.9,5.1-12.8,4.5-19.7,4.7c1.8,7.2,6.9,6.9,12.4,5.5c1.9-0.5,3.9-0.9,5.7-1.7
		c8-3.4,9.9-10.4,4.9-18C468.3,179.4,467,182,463.7,184.9z"/>
	<path fill="#C4E0DF" d="M304,247.6c0.1,0.2,0.1,0.3,0.2,0.5c0.3,0.7,0.8,1.4,1.4,2c0.3,0.4,0.7,0.7,1.2,1c1.9-0.9,2.1-2.6,2.2-4.5
		c0.5-7.6,3.4-14,9.9-18.4c-5.8-5.6-6.5-5.5-10.3,1.2c-2,3.6-3.5,7.5-4.5,11.5c-0.4,1.5-0.6,2.9-0.5,4.2
		C303.5,246,303.7,246.8,304,247.6z"/>
	<path fill="#D8B430" d="M434.9,198.9c-1.9,1.2-3.6,2.9-5.3,4.4c-5.6,5-6.5,14.2-1.9,19.3c-1.6-2.2-0.8-4.5-0.2-6.7
		c1.8-6.4,6.2-10.8,11.2-14.8c2.3-1.8,3.5-3.2,3.8-4.6c0.1-0.4,0.1-0.8,0-1.2c-0.1-0.3-0.2-0.6-0.3-0.9c-0.5-1.2-1.6-2.4-3.3-4
		c0,0,0,0,0,0C439.3,194,438.2,196.8,434.9,198.9z"/>
	<path fill="#D8B430" d="M443.5,229.8c-1.2,0.7-2.6,1.3-2.4,3.1c4-2.3,8-4.8,12.5-6.2c2.7-0.8,3.1-2.3,1.5-4.4
		c-0.1-0.2-0.3-0.4-0.4-0.6c-0.2-0.4-0.4-0.9-0.6-1.3c-0.4-0.9-0.8-1.8-1.7-2.3c-0.2-0.1-0.5-0.3-0.7-0.3
		C450.7,222.9,448.1,227,443.5,229.8z"/>
	<path fill="#F7CF22" d="M375.2,78.7c-1.7,0.8-1.3,2.3-1.2,3.7c0.7-0.7,1.4-1.4,2.2-2.1C375.8,79.7,375.3,78.7,375.2,78.7z"/>
	<path fill="#C4E0DF" d="M282.9,271c-0.4,0.4-0.6,0.7-0.8,1.1c-0.1,0.2-0.2,0.5-0.2,0.7c-0.1,0.3-0.1,0.6-0.1,1c0,0.1,0,0.1,0,0.2
		c0,0.6,0,1.3,0,1.9c0,0,0,0,0,0C283.5,274.6,282.6,272.7,282.9,271z"/>
	<path fill="#D8B430" d="M308.4,191.6c-0.1-1.1-1.1-1-1.9-1c0.2,0.7,0.3,1.4,0.5,2.1v0C307.5,192.3,308.4,191.9,308.4,191.6z"/>
	<path fill="#F7CF22" d="M476.1,87.6c0.1,1.2,1.2,0.9,2,0.9c-0.2-0.6-0.3-1.3-0.5-1.9C476.9,86.7,476.1,86.8,476.1,87.6z"/>
	<path fill="#F7CF22" d="M339.7,85.7c0.3-0.1,0.6-0.2,0.8-0.3c0.6-0.4,0.9-1.2,1.1-1.9c0,0,0,0,0,0c0,0-0.1,0-0.1,0c0,0,0,0,0,0
		c0,0,0,0,0,0C340,83.4,339.1,83.9,339.7,85.7z"/>
	<path fill="#13181C" d="M539.5,354c-0.1-1.1,0.2-2.4-0.2-3.4c-0.2-0.3-0.4-0.7-0.8-1C538.4,351.2,538.6,352.7,539.5,354z"/>
	
		<line fill="none" stroke="#F7CF22" stroke-width="0" stroke-linecap="round" stroke-linejoin="round" x1="341.5" y1="83.4" x2="341.5" y2="83.4"/>
	<path fill="none" stroke="#F7CF22" stroke-width="0" stroke-linecap="round" stroke-linejoin="round" d="M342.7,82.2
		c-0.4,0.4-0.8,0.8-1.2,1.2"/>
	<path fill="#F7CF22" d="M436.2,67.7c0.3,0,0.5,0,0.8,0c0-0.1,0-0.2,0-0.2c0-0.1,0-0.2-0.1-0.2c0,0,0,0-0.1-0.1
		c-0.1,0-0.1-0.1-0.2-0.1h0C436.5,67.3,436.4,67.5,436.2,67.7z"/>
	<path fill="#59C0BE" d="M282.7,296.8c-0.1-0.4-0.3-0.8-0.4-1.2c-0.1,0.1-0.1,0.3-0.1,0.4C282.1,296.3,282.2,296.6,282.7,296.8z"/>
	<path fill="#8C959B" d="M262.4,364.7c-2.4,1.8-3.4,5.8-3.1,9.9h34.2c-9.3-2.8-18.5-6-27.6-9.6C264.8,364.6,263.8,363.8,262.4,364.7
		z"/>
	<path fill="#151818" d="M400.5,174.4c15.1,0.7,25.1-5.8,30.3-19.9c0.8-4.8,0.7-9.6,0.3-14.4c-4-11.2-11.4-18.3-21-20.6
		c-5.1-1.2-10.8-1.1-17,0.3c-14.8,3.5-23.4,17.5-19.8,32.2C376.4,164.6,387.5,173.8,400.5,174.4z M377.2,138.1
		c0.7-2.2,1.8-4.4,3.1-6.2c6.4-9.1,22.5-12.3,34.6-7c10,4.4,15.9,16.7,13.4,28c-2.4,10.9-12.9,18.1-26.3,18
		C384.2,170.8,371.9,154.6,377.2,138.1z"/>
	<path fill="#13181C" d="M499.3,123.4c-3.1-1-6.1-2.4-9.2-3c-15-3-29.7,4.9-31.9,16.9c-2.8,15.4,7.1,29.9,22.2,32.3
		c1.9,0.3,3.8,0.4,5.6,0.2c5.5-0.5,10.5-2.9,15.3-5.8C515.5,151.8,512.7,132.2,499.3,123.4z M485.3,165.9c-15.8,0.2-27-13.6-23.7-29
		c0.7-3.4,2.7-5.9,5.2-8c11.2-9.2,29.9-7.7,37.3,3.2c4.8,6.9,5.3,14.6,1.6,22.1C501.6,162.6,494.2,165.9,485.3,165.9z"/>
	<path fill="#151818" d="M284.7,169.1c-3.2,1.8-4,4.9-1.7,6.9c1.5-0.9,1.3-3.4,4-4.1c0.1,4.6,2.7,7.9,5.7,10.9
		c3.1-1.7,0-2.8-0.5-3.8c-1-2.1-2.9-4.3-1.6-6.4c1.4-2.3,3.4,0.6,5.3,0.4c0.5,0,0.9-0.3,1.4-0.5
		C293.9,168.2,288.8,166.8,284.7,169.1z"/>
	<path fill="#D8B430" d="M283,176c1.2,5.1,4.1,8,9.7,6.8c-3-3-5.6-6.3-5.7-10.9C284.3,172.7,284.5,175.1,283,176z"/>
	<path fill="#D8B430" d="M430.8,154.5c3.3-4.6,1-9.7,1.4-14.6c0-0.1,0-0.2-0.1-0.2c-0.1,0-0.2-0.1-0.3,0c0,0,0,0,0,0
		c-0.2,0-0.5,0.2-0.7,0.4C431.5,144.9,431.6,149.7,430.8,154.5z"/>
	<path fill="#F7CF22" d="M400.3,67.7c-0.2,0.1-0.3,0.3-0.5,0.4c0,0,0,0,0,0C400,68,400.2,67.8,400.3,67.7z"/>
	<path fill="#F7F7F7" d="M401.9,170.9c13.4,0,23.9-7.1,26.3-18c2.5-11.3-3.4-23.6-13.4-28c-12.1-5.3-28.2-2.1-34.6,7
		c-1.3,1.9-2.4,4.1-3.1,6.2C371.9,154.6,384.2,170.8,401.9,170.9z M394.1,142.7c3.4,0.4,5.7,2.3,5.6,5.9c0,3.6-2.3,5.8-5.8,5.8
		c-3.5,0-5.8-2.2-5.8-5.8C388.1,144.8,390.4,143,394.1,142.7z"/>
	<path fill="#F7F7F7" d="M505.7,154.3c3.7-7.5,3.1-15.2-1.6-22.1c-7.5-10.9-26.2-12.4-37.3-3.2c-2.6,2.1-4.5,4.6-5.2,8
		c-3.3,15.4,7.9,29.1,23.7,29C494.2,165.9,501.6,162.6,505.7,154.3z M487.7,150.6c-3.1,0.1-5.2-1.5-5.4-4.7
		c-0.2-3.4,1.7-5.4,5.1-5.5c3.3-0.1,4.7,2.1,5.3,4.7C492.4,148.3,490.9,150.4,487.7,150.6z"/>
	<path fill="#13181C" d="M393.9,154.3c3.5,0,5.8-2.2,5.8-5.8c0-3.6-2.3-5.5-5.6-5.9c-3.7,0.4-5.9,2.2-5.9,5.8
		C388.1,152.1,390.4,154.3,393.9,154.3z"/>
	<path fill="#13181C" d="M487.4,140.3c-3.5,0.1-5.3,2.2-5.1,5.5c0.2,3.2,2.3,4.8,5.4,4.7c3.2-0.1,4.7-2.2,5-5.6
		C492.1,142.3,490.7,140.2,487.4,140.3z"/>
</g>
</svg>
